<?xml version="1.0" standalone="no"?>
<!DOCTYPE svg PUBLIC "-//W3C//DTD SVG 20010904//EN"
 "http://www.w3.org/TR/2001/REC-SVG-20010904/DTD/svg10.dtd">
<svg version="1.0" xmlns="http://www.w3.org/2000/svg"
 width="700.000000pt" height="700.000000pt" viewBox="0 0 700.000000 700.000000"
 preserveAspectRatio="xMidYMid meet">
<metadata>
Created by potrace 1.14, written by Peter Selinger 2001-2017
</metadata>
<g transform="translate(0.000000,700.000000) scale(0.100000,-0.100000)"
fill="#000000" stroke="none">
<path d="M3278 6995 c-1 -1 -41 -6 -88 -9 -47 -4 -94 -9 -105 -11 -11 -2 -42
-7 -70 -10 -27 -3 -72 -10 -100 -15 -27 -5 -61 -12 -75 -14 -354 -65 -750
-211 -1069 -394 -93 -53 -321 -199 -331 -212 -3 -3 -39 -31 -80 -62 -202 -151
-448 -396 -620 -617 -73 -93 -250 -353 -250 -366 0 -3 -12 -24 -27 -48 -38
-61 -155 -297 -197 -400 -104 -252 -166 -471 -220 -768 -2 -15 -8 -53 -11 -85
-4 -33 -9 -68 -11 -79 -25 -135 -25 -674 0 -813 2 -9 7 -44 11 -77 4 -32 9
-68 11 -80 2 -11 7 -36 10 -55 15 -94 61 -280 101 -410 210 -679 612 -1268
1173 -1715 227 -181 531 -361 805 -477 263 -111 613 -209 870 -243 22 -2 56
-7 75 -10 198 -27 656 -27 850 1 526 76 958 226 1366 472 341 206 576 404 873
736 119 134 322 435 425 631 143 272 275 639 332 919 20 99 46 274 57 381 14
128 15 569 3 665 -3 25 -11 81 -16 125 -6 44 -12 89 -14 100 -2 11 -11 61 -21
110 -142 758 -574 1502 -1155 1989 -47 39 -87 74 -90 77 -8 9 -189 142 -239
175 -248 164 -575 327 -811 403 -130 43 -196 63 -210 66 -8 2 -42 10 -75 19
-71 18 -196 45 -245 52 -19 3 -60 9 -91 15 -31 5 -81 12 -110 15 -30 3 -67 8
-84 10 -34 6 -541 14 -547 9z m537 -328 c11 -3 47 -8 80 -11 33 -4 110 -16
170 -27 798 -147 1495 -578 1980 -1224 85 -113 205 -297 205 -314 0 -5 4 -11
8 -13 12 -4 152 -288 189 -383 104 -265 179 -553 208 -795 3 -25 8 -63 11 -85
10 -66 12 -514 4 -590 -5 -38 -11 -95 -15 -125 -7 -68 -22 -160 -35 -220 -16
-70 -21 -93 -27 -125 -16 -92 -117 -391 -178 -530 -39 -89 -132 -271 -176
-344 -22 -34 -39 -65 -39 -66 0 -6 -140 -206 -174 -250 -386 -494 -854 -838
-1430 -1051 -155 -57 -395 -124 -506 -140 -19 -3 -42 -7 -50 -9 -8 -2 -37 -7
-65 -10 -27 -4 -61 -8 -75 -11 -82 -13 -201 -19 -395 -19 -242 0 -350 8 -545
41 -355 60 -772 212 -1058 386 -34 21 -64 38 -66 38 -5 0 -130 83 -136 91 -3
3 -10 8 -17 10 -39 13 -280 216 -408 344 -178 176 -196 197 -306 341 -205 270
-366 572 -480 902 -28 80 -93 316 -104 377 -2 17 -10 56 -15 88 -17 91 -27
162 -39 293 -9 92 -6 528 4 599 24 165 51 317 76 417 300 1212 1254 2125 2474
2366 253 51 358 59 665 56 135 -1 254 -4 265 -7z"/>
<path d="M2945 5559 c-58 -14 -135 -64 -172 -113 -58 -76 -65 -111 -68 -321
l-2 -190 -637 -3 -636 -2 0 -875 0 -875 2070 0 2070 0 0 875 0 875 -637 0
-638 0 -1 198 c-1 192 -2 198 -28 253 -31 66 -97 132 -164 162 -46 22 -57 22
-582 24 -309 1 -552 -3 -575 -8z m1031 -466 l-1 -158 -476 -3 -476 -2 0 160 0
160 477 0 477 0 -1 -157z"/>
<path d="M1434 3021 c-2 -2 -4 -217 -4 -478 l0 -473 2070 0 2070 0 0 474 c0
370 -3 475 -12 478 -7 2 -114 3 -238 3 l-225 -1 -2 -144 c0 -80 -2 -152 -2
-160 -1 -13 -31 -15 -228 -14 -126 1 -233 2 -238 3 -7 1 -10 56 -10 155 2 149
1 154 -19 158 -17 2 -2189 2 -2206 -1 -3 -1 -5 -69 -5 -152 0 -83 -2 -154 -5
-158 -3 -4 -110 -7 -237 -7 l-233 0 -1 46 c0 25 0 96 0 158 0 98 -3 112 -17
113 -62 3 -454 3 -458 0z"/>
</g>
</svg>
