<svg width="1344" height="829" viewBox="0 0 1344 829" fill="none" xmlns="http://www.w3.org/2000/svg">
<g opacity="0.11">
<path d="M439.003 480.757L435.303 481.579" stroke="#0080E0" stroke-miterlimit="10"/>
<path d="M418.033 487.747L414.744 486.102" stroke="#0080E0" stroke-miterlimit="10"/>
<path d="M415.978 498.026L414.744 497.204" stroke="#0080E0" stroke-miterlimit="10"/>
<path d="M373.143 421.019L306.194 401.811M439.05 495.148L435.494 493.123L439.05 495.148ZM590.727 459.188V408.623V459.188Z" stroke="#0080E0" stroke-miterlimit="10"/>
<path d="M246.985 444.573V441.695" stroke="#0080E0" stroke-miterlimit="10"/>
<path d="M246.985 404.278L246.162 394.41" stroke="#0080E0" stroke-miterlimit="10"/>
<path d="M306.194 438.406L246.985 444.574" stroke="#0080E0" stroke-miterlimit="10"/>
<path d="M306.194 401.811L246.985 404.278" stroke="#0080E0" stroke-miterlimit="10"/>
<path d="M465.565 400.709L423.856 397.6M246.162 394.368L269.961 393.932L246.162 394.368ZM246.162 415.38V394.368V415.38ZM666.567 391.943L677.485 392.13L666.567 391.943ZM625.471 398.533L658.9 395.86L625.471 398.533ZM526.657 405.247L472.006 401.206L526.657 405.247Z" stroke="#0080E0" stroke-miterlimit="10"/>
<path d="M376.916 399.344L364.169 399.755" stroke="#0080E0" stroke-miterlimit="10"/>
<path d="M338.265 400.578H336.21" stroke="#0080E0" stroke-miterlimit="10"/>
<path d="M336.277 400.64V403.64M336.277 400.64L334.258 400.7L336.277 400.64ZM326.427 401L324.285 401.06L326.427 401ZM480.121 408.801L471.8 407.961L480.121 408.801ZM465.437 407.301L423.832 403.04L465.437 407.301ZM423.832 403.04L388.834 404.721L423.832 403.04ZM377.026 405.321L364.422 405.921L377.026 405.321ZM354.327 406.401L350.227 406.581L354.327 406.401ZM423.832 397.699V403.04V397.699Z" stroke="#0080E0" stroke-miterlimit="10"/>
<path d="M281.453 398.872L270.01 394.41M316.884 397.955L281.453 398.933L316.884 397.955Z" stroke="#0080E0" stroke-miterlimit="10"/>
<path d="M306.194 401.811H316.884" stroke="#0080E0" stroke-miterlimit="10"/>
<path d="M317.02 400.931L303.316 401.4M326.341 398.923L324.242 398.522L326.341 398.923Z" stroke="#0080E0" stroke-miterlimit="10"/>
<path d="M246.162 415.023L247.082 414.962M303.313 401.109L305.092 401.599L303.313 401.109ZM252.233 394.305L269.955 393.999L252.233 394.305ZM253.705 396.328L269.955 395.96L253.705 396.328ZM316.926 400.312L281.422 401.477L316.926 400.312ZM281.422 401.477L269.955 396.083L281.422 401.477ZM281.422 398.535V401.477V398.535ZM590.602 408.648L551.295 405.89L590.602 408.648ZM577.356 406.748L664.739 398.106L577.356 406.748ZM551.356 423.788V405.89V423.788ZM372.974 451.616V421.03V451.616ZM306.011 416.433V401.906V416.433ZM545.653 449.409V424.646V449.409ZM385.361 489.803V449.655V489.803Z" stroke="#0080E0" stroke-miterlimit="10"/>
<path d="M246.985 441.695L246.162 415.38" stroke="#0080E0" stroke-miterlimit="10"/>
<path d="M696.399 396.877L590.727 408.801" stroke="#0080E0" stroke-miterlimit="10"/>
<path d="M337.854 755.847V765.29M696.339 396.813L691.558 396.69L696.339 396.813ZM703.389 409.813V392.765V409.813ZM673.658 398.652L664.77 398.346L673.658 398.652ZM372.612 710.714L348.643 649.394L372.612 710.714Z" stroke="#0080E0" stroke-miterlimit="10"/>
<path d="M307.016 780.504V790.372" stroke="#0080E0" stroke-miterlimit="10"/>
<path d="M291.391 687.167L307.001 790.372M307.001 790.372L337.854 765.077L307.001 790.372Z" stroke="#0080E0" stroke-miterlimit="10"/>
<path d="M291.391 679.766L307.063 780.442M307.001 780.504L337.854 755.811L307.001 780.504Z" stroke="#0080E0" stroke-miterlimit="10"/>
<path d="M322.23 671.953L307.838 680.588" stroke="#0080E0" stroke-miterlimit="10"/>
<path d="M322.23 671.953L339.499 735.686" stroke="#0080E0" stroke-miterlimit="10"/>
<path d="M322.23 664.552V671.953" stroke="#0080E0" stroke-miterlimit="10"/>
<path d="M322.23 664.552L341.555 734.041" stroke="#0080E0" stroke-miterlimit="10"/>
<path d="M348.545 642.349L340.109 647.118M306.123 671.208L291.391 679.707L306.123 671.208ZM291.391 679.707V687.167V679.707ZM308.018 680.319L306.062 671.208L308.018 680.319Z" stroke="#0080E0" stroke-miterlimit="10"/>
<path d="M361.702 827.789L337.854 736.919" stroke="#0080E0" stroke-miterlimit="10"/>
<path d="M340.321 647.283V654.273" stroke="#0080E0" stroke-miterlimit="10"/>
<path d="M241.928 286.516L240.517 286.271M439.003 504.508L435.447 502.301L439.003 504.508ZM198.208 568.404L154.059 740.651L198.208 568.404ZM417.91 501.688L379.586 513.339L417.91 501.688ZM154.12 740.651V749.665V740.651Z" stroke="#0080E0" stroke-miterlimit="10"/>
<path d="M534.396 3.79363L743.273 299.84" stroke="#0080E0" stroke-miterlimit="10"/>
<path d="M743.273 295.317V299.668M743.273 299.668L742.451 299.84L743.273 299.668Z" stroke="#0080E0" stroke-miterlimit="10"/>
<path d="M327.575 155.035V166.99M742.451 299.84L529.771 3.79363L742.451 299.84ZM394.892 3.79363L329.905 169.197L394.892 3.79363ZM327.575 166.99L389.313 3.79363L327.575 166.99Z" stroke="#0080E0" stroke-miterlimit="10"/>
<path d="M232.593 109.055V123.418M240.406 286.271L232.593 123.48L240.406 286.271Z" stroke="#0080E0" stroke-miterlimit="10"/>
<path d="M330.042 171.553L236.526 129.251M327.707 167.168L232.593 123.446L327.707 167.168Z" stroke="#0080E0" stroke-miterlimit="10"/>
<path d="M703.463 307.241L742.451 300.648M242.05 287.093L270.126 292.022L242.05 287.093Z" stroke="#0080E0" stroke-miterlimit="10"/>
<path d="M236.705 126.758L329.996 169.177M742.451 300.662L527.121 3.79363L742.451 300.662ZM396.44 3.79363L329.996 171.322L396.44 3.79363Z" stroke="#0080E0" stroke-miterlimit="10"/>
<path d="M236.705 129.202V126.735" stroke="#0080E0" stroke-miterlimit="10"/>
<path d="M462.77 470.342V472.549M330.042 171.232V169.086V171.232ZM466.629 480.274L470.61 481.99L466.629 480.274ZM466.629 474.082V480.335V474.082ZM470.549 481.99L477.593 479.906L470.549 481.99ZM466.629 480.274L477.654 477.147L466.629 480.274ZM466.629 474.082L477.654 471.139L466.629 474.082ZM462.77 472.549L466.629 474.082L462.77 472.549ZM462.77 472.549L477.593 468.687L462.77 472.549Z" stroke="#0080E0" stroke-miterlimit="10"/>
<path d="M610.579 485.691L606.342 484.527M459.973 471.3L464.271 480.179L459.973 471.3ZM613.342 484.221L610.517 485.691L613.342 484.221Z" stroke="#0080E0" stroke-miterlimit="10"/>
<path d="M610.463 485.691V452.386" stroke="#0080E0" stroke-miterlimit="10"/>
<path d="M545.569 449.461L539.435 450.993M613.101 483.967V451.238V483.967ZM703.389 508.359L701.549 510.627L703.389 508.359ZM703.389 409.624L701.549 410.114L703.389 409.624ZM701.549 510.688V410.175V510.688ZM703.389 508.359V409.624V508.359ZM654.626 480.657V436.652V480.657ZM539.435 711.837L528.64 699.825L539.435 711.837ZM551.273 697.128L539.435 711.776L551.273 697.128Z" stroke="#0080E0" stroke-miterlimit="10"/>
<path d="M539.741 711.837V451.152" stroke="#0080E0" stroke-miterlimit="10"/>
<path d="M518.577 533.796L512.265 537.108M551.665 656.74V525.575V656.74ZM512.326 537.108L507.669 534.47L512.326 537.108Z" stroke="#0080E0" stroke-miterlimit="10"/>
<path d="M512.193 537.088V458.142" stroke="#0080E0" stroke-miterlimit="10"/>
<path d="M246.162 535.443L247.021 535.198M518.36 533.908V456.498V533.908Z" stroke="#0080E0" stroke-miterlimit="10"/>
<path d="M246.162 539.555V535.443M246.162 539.555L246.985 539.306L246.162 539.555Z" stroke="#0080E0" stroke-miterlimit="10"/>
<path d="M247.144 713.482L247.021 697.282M246.162 552.093L247.021 551.848L246.162 552.093ZM246.162 552.093V547.675V552.093ZM246.162 535.218V547.675V535.218ZM528.762 528.284L518.456 533.684L528.762 528.284ZM563.604 471.522L551.581 475.879L563.604 471.522ZM563.604 471.522V453.297V471.522ZM580.595 476.186L563.604 471.522L580.595 476.186ZM580.595 476.186V456.979V476.186ZM697.88 515.52L701.744 510.734L697.88 515.52ZM697.88 411.017L701.744 410.035L697.88 411.017ZM697.88 515.52V462.87V515.52ZM379.518 618.428V624.872V618.428ZM340.137 640.151V647.208V640.151ZM247.144 680.898L247.021 666.293L247.144 680.898ZM247.144 680.898L306.031 649.479L247.144 680.898ZM307.933 657.947L305.97 649.54L307.933 657.947ZM247.144 713.482L291.248 687.402L247.144 713.482Z" stroke="#0080E0" stroke-miterlimit="10"/>
<path d="M306.194 649.339V671.324M307.838 657.861V680.588V657.861Z" stroke="#0080E0" stroke-miterlimit="10"/>
<path d="M506.847 459.787L507.67 460.609" stroke="#0080E0" stroke-miterlimit="10"/>
<path d="M506.847 463.076L507.258 464.064M507.258 496.793V464.064V496.793Z" stroke="#0080E0" stroke-miterlimit="10"/>
<path d="M554.544 396.055V296.537M554.544 296.537L551.665 297.457L554.544 296.537ZM554.544 262.834L551.665 264.06L554.544 262.834ZM554.544 296.537V262.834V296.537Z" stroke="#0080E0" stroke-miterlimit="10"/>
<path d="M553.31 299.728L551.665 300.251M553.31 299.429L551.665 299.952L553.31 299.429Z" stroke="#0080E0" stroke-miterlimit="10"/>
<path d="M359.647 307.595V269.063M552.95 395.994L554.544 396.055L552.95 395.994ZM551.356 395.932L552.95 395.994L551.356 395.932ZM359.647 269.002L418.134 284.194L359.647 269.002ZM418.134 395.381V378.841V395.381ZM418.134 377.187V360.708V377.187ZM418.134 358.87V342.575V358.87ZM418.134 340.553V324.442V340.553ZM418.134 322.237V307.473V322.237ZM418.134 297.794V284.255V297.794Z" stroke="#0080E0" stroke-miterlimit="10"/>
<path d="M415.566 286.25L363.347 273.113M415.566 395.644V378.946V395.644ZM415.566 377.289V360.653V377.289ZM415.566 358.811V342.359V358.811ZM415.566 340.333V324.065V340.333ZM415.566 321.794V306.877V321.794ZM415.566 297.116V286.25V297.116Z" stroke="#0080E0" stroke-miterlimit="10"/>
<path d="M415.566 398.111L418.445 397.699" stroke="#0080E0" stroke-miterlimit="10"/>
<path d="M415.155 286.576L363.347 273.525M415.155 395.644V378.977V395.644ZM415.155 377.261V360.656V377.261ZM415.155 358.757V342.335V358.757ZM415.155 340.313V324.076V340.313ZM415.155 321.87V306.98V321.87ZM415.155 297.176V286.515V297.176Z" stroke="#0080E0" stroke-miterlimit="10"/>
<path d="M418.221 245.909L352.245 222.128M364.363 399.755L376.971 399.326L364.363 399.755ZM388.783 398.897L415.16 397.978L388.783 398.897ZM423.79 397.733L418.221 397.917L423.79 397.733Z" stroke="#0080E0" stroke-miterlimit="10"/>
<path d="M423.79 299.038V258.722M423.79 395.232V378.935V395.232ZM423.79 377.342V361.105V377.342ZM423.79 359.267V343.214V359.267ZM423.79 341.192V325.323V341.192ZM423.79 323.179V308.596V323.179Z" stroke="#0080E0" stroke-miterlimit="10"/>
<path d="M622.509 236.285L554.621 263.006M352.245 400.167V394.712V400.167ZM352.245 393.119V380.31V393.119ZM352.245 378.839V366.214V378.839ZM352.245 364.252V352.118V364.252ZM352.245 349.666V338.021V349.666ZM352.245 335.08V326.929V335.08ZM352.245 312.833V222.128V312.833ZM354.267 400.105L352.245 400.167L354.267 400.105ZM625.266 398.634L622.509 398.88L625.266 398.634ZM622.509 398.818L554.621 396.244L622.509 398.818ZM625.266 238.614L622.509 236.346L625.266 238.614Z" stroke="#0080E0" stroke-miterlimit="10"/>
<path d="M622.799 398.933V236.108" stroke="#0080E0" stroke-miterlimit="10"/>
<path d="M331.337 266.312L321.099 280.368M333.742 220.894L320.174 245.874L333.742 220.894ZM333.742 325.295V220.894V325.295ZM320.174 334.378V280.183V334.378ZM320.174 269.749V245.813V269.749Z" stroke="#0080E0" stroke-miterlimit="10"/>
<path d="M320.996 280.103V333.556" stroke="#0080E0" stroke-miterlimit="10"/>
<path d="M324.285 345.891L326.341 345.069" stroke="#0080E0" stroke-miterlimit="10"/>
<path d="M320.996 280.103L327.986 281.748" stroke="#0080E0" stroke-miterlimit="10"/>
<path d="M551.56 160.107L539.053 148.938M278.172 363.036V285.288V363.036ZM279.766 280.563L278.233 285.288L279.766 280.563ZM272.164 366.779V303.575V366.779ZM272.164 303.575L271.244 306.459L272.164 303.575ZM625.563 395.068L654.87 395.866L625.563 395.068ZM625.563 275.47L654.87 267.063L625.563 275.47ZM654.87 395.866V267.063V395.866ZM538.991 407.157L532.554 406.666L538.991 407.157ZM551.56 406.113L539.053 407.157L551.56 406.113ZM538.991 148.938L527.771 157.959L538.991 148.938Z" stroke="#0080E0" stroke-miterlimit="10"/>
<path d="M538.919 407.157V148.938" stroke="#0080E0" stroke-miterlimit="10"/>
<path d="M278.075 285.449L272.066 303.713M677.506 392.459L695.166 392.765L677.506 392.459ZM677.506 303.345L695.166 300.035L677.506 303.345ZM677.506 305.919V303.345V305.919Z" stroke="#0080E0" stroke-miterlimit="10"/>
<path d="M272.127 305.35L273.903 305.596M277.823 288.327L272.066 305.35L277.823 288.327Z" stroke="#0080E0" stroke-miterlimit="10"/>
<path d="M275.356 349.592V297.784M275.356 297.784L273.711 301.948L275.356 297.784Z" stroke="#0080E0" stroke-miterlimit="10"/>
<path d="M274.122 303.952L275.356 300.662" stroke="#0080E0" stroke-miterlimit="10"/>
<path d="M275.356 348.358L274.122 349.592" stroke="#0080E0" stroke-miterlimit="10"/>
<path d="M274.122 303.952L275.356 304.135M274.122 349.592V303.952V349.592Z" stroke="#0080E0" stroke-miterlimit="10"/>
<path d="M275.356 297.784L277 293.261" stroke="#0080E0" stroke-miterlimit="10"/>
<path d="M277 347.947V293.261" stroke="#0080E0" stroke-miterlimit="10"/>
<path d="M277 293.261H277.823" stroke="#0080E0" stroke-miterlimit="10"/>
<path d="M275.356 299.761V347.947M276.589 296.139L275.356 299.761L276.589 296.139Z" stroke="#0080E0" stroke-miterlimit="10"/>
<path d="M275.356 347.947L276.589 346.303" stroke="#0080E0" stroke-miterlimit="10"/>
<path d="M275.356 299.84H276.589" stroke="#0080E0" stroke-miterlimit="10"/>
<path d="M276.77 352.779L277.823 351.738M272.066 353.331V355.536V353.331ZM277.823 349.348V346.714V349.348ZM272.066 355.536L273.923 355.598L272.066 355.536ZM273.923 365.217V355.598V365.217Z" stroke="#0080E0" stroke-miterlimit="10"/>
<path d="M281.523 273.936L277.411 273.113" stroke="#0080E0" stroke-miterlimit="10"/>
<path d="M267.132 309.297L270.01 309.708" stroke="#0080E0" stroke-miterlimit="10"/>
<path d="M277.411 273.113V267.357" stroke="#0080E0" stroke-miterlimit="10"/>
<path d="M328.148 329.033V281.873M281.788 274.136V268.179V274.136ZM267.132 309.506V305.453V309.506ZM331.275 277.943L328.148 281.873L331.275 277.943Z" stroke="#0080E0" stroke-miterlimit="10"/>
<path d="M328.463 284.11V328.622M331.275 280.926L328.397 284.171L331.275 280.926Z" stroke="#0080E0" stroke-miterlimit="10"/>
<path d="M329.22 328.211V284.084M331.211 326.92V286.603V326.92ZM331.275 281.748L329.22 284.084L331.275 281.748Z" stroke="#0080E0" stroke-miterlimit="10"/>
<path d="M329.631 286.341L331.207 286.647M329.631 286.341L331.275 284.626L329.631 286.341ZM329.631 327.8V286.402V327.8Z" stroke="#0080E0" stroke-miterlimit="10"/>
<path d="M311.95 281.337L319.351 282.803M319.351 334.79V282.864V334.79Z" stroke="#0080E0" stroke-miterlimit="10"/>
<path d="M281.523 368.917H277.411" stroke="#0080E0" stroke-miterlimit="10"/>
<path d="M267.132 373.851L270.01 374.262" stroke="#0080E0" stroke-miterlimit="10"/>
<path d="M277.411 368.917V363.161" stroke="#0080E0" stroke-miterlimit="10"/>
<path d="M311.95 284.087V281.337M281.706 368.902V362.974V368.902ZM267.132 373.851V369.818V373.851Z" stroke="#0080E0" stroke-miterlimit="10"/>
<path d="M281.523 277.636V274.758" stroke="#0080E0" stroke-miterlimit="10"/>
<path d="M311.95 347.947V345.189M279.467 283.518V280.698V283.518ZM311.95 281.311L308.341 280.515L311.95 281.311Z" stroke="#0080E0" stroke-miterlimit="10"/>
<path d="M281.523 345.48V342.602" stroke="#0080E0" stroke-miterlimit="10"/>
<path d="M311.95 364.394V361.734M279.467 347.504V344.658V347.504Z" stroke="#0080E0" stroke-miterlimit="10"/>
<path d="M281.523 363.161V360.283" stroke="#0080E0" stroke-miterlimit="10"/>
<path d="M283.553 342.927V283.634M279.467 363.161V361.75V363.161ZM283.553 283.634L285.224 279.281L283.553 283.634ZM283.553 360.524V347.832V360.524Z" stroke="#0080E0" stroke-miterlimit="10"/>
<path d="M285.224 346.276V360.694M285.224 279.281V343.086V279.281Z" stroke="#0080E0" stroke-miterlimit="10"/>
<path d="M308.25 283.931L285.224 279.281M308.25 361.516V347.81V361.516ZM308.25 344.751V283.931V344.751Z" stroke="#0080E0" stroke-miterlimit="10"/>
<path d="M281.523 398.522V369.328" stroke="#0080E0" stroke-miterlimit="10"/>
<path d="M281.501 236.519L319.351 247.27M270.01 283.393L281.501 236.519L270.01 283.393Z" stroke="#0080E0" stroke-miterlimit="10"/>
<path d="M281.523 268.179V236.519" stroke="#0080E0" stroke-miterlimit="10"/>
<path d="M319.763 280.085V282.163M319.333 271.158V247.621V271.158ZM270.932 311.631L270.072 311.509L270.932 311.631ZM270.993 308.575V306.496V308.575ZM270.932 357.851L270.072 357.79L270.932 357.851ZM270.01 357.79V355.773V357.79ZM270.993 356.751V354.672V356.751ZM277.381 362.987V368.917V362.987ZM277.381 268.102V274.032V268.102Z" stroke="#0080E0" stroke-miterlimit="10"/>
<path d="M327.237 265.301L317.295 279.692M331.275 266.289L327.237 265.301L331.275 266.289Z" stroke="#0080E0" stroke-miterlimit="10"/>
<path d="M331.275 259.956L327.164 258.722" stroke="#0080E0" stroke-miterlimit="10"/>
<path d="M327.164 265.301V258.722" stroke="#0080E0" stroke-miterlimit="10"/>
<path d="M331.275 266.123V259.956" stroke="#0080E0" stroke-miterlimit="10"/>
<path d="M267.193 305.185V309.21M270.01 373.851L267.132 373.79L270.01 373.851ZM267.193 369.766V373.79V369.766ZM270.01 309.637L267.132 309.21L270.01 309.637Z" stroke="#0080E0" stroke-miterlimit="10"/>
<path d="M690.231 359.871H693.521" stroke="#0080E0" stroke-miterlimit="10"/>
<path d="M693.521 359.871L678.852 356.642M678.852 356.582L675.018 356.821L678.852 356.582Z" stroke="#0080E0" stroke-miterlimit="10"/>
<path d="M693.521 359.871V314.969M693.521 314.969L678.719 305.596L693.521 314.969Z" stroke="#0080E0" stroke-miterlimit="10"/>
<path d="M693.11 357.816V316.493M678.719 356.469V305.596V356.469ZM693.11 316.493L679.401 308.167L693.11 316.493ZM693.11 316.493L691.311 316.738L693.11 316.493Z" stroke="#0080E0" stroke-miterlimit="10"/>
<path d="M686.531 312.83L679.541 308.474M685.205 314.548V354.115V314.548ZM679.842 311.296L685.205 314.548L679.842 311.296Z" stroke="#0080E0" stroke-miterlimit="10"/>
<path d="M686.12 314.214V354.115M679.952 310.53L686.12 314.214L679.952 310.53Z" stroke="#0080E0" stroke-miterlimit="10"/>
<path d="M691.054 357.404V316.705M689.863 355.747V318.362V355.747ZM689.863 318.301L686.531 316.337L689.863 318.301ZM686.531 313.82L691.054 316.644L686.531 313.82Z" stroke="#0080E0" stroke-miterlimit="10"/>
<path d="M690.643 355.76V318.315M690.643 318.315L686.531 315.876L690.643 318.315Z" stroke="#0080E0" stroke-miterlimit="10"/>
<path d="M608.819 342.602L613.753 341.78" stroke="#0080E0" stroke-miterlimit="10"/>
<path d="M592.372 336.846L587.026 337.668" stroke="#0080E0" stroke-miterlimit="10"/>
<path d="M587.026 337.668L608.819 342.602" stroke="#0080E0" stroke-miterlimit="10"/>
<path d="M613.753 341.78L592.372 336.846" stroke="#0080E0" stroke-miterlimit="10"/>
<path d="M613.753 341.78V264.231M613.753 264.231L592.262 250.499L613.753 264.231ZM592.201 250.499L587.026 252.522L592.201 250.499Z" stroke="#0080E0" stroke-miterlimit="10"/>
<path d="M592.372 336.846V250.499" stroke="#0080E0" stroke-miterlimit="10"/>
<path d="M587.026 337.668V252.555" stroke="#0080E0" stroke-miterlimit="10"/>
<path d="M612.108 338.49V266.56M612.108 266.56L594.428 255.433L612.108 266.56ZM612.108 266.56L609.642 267.36L612.108 266.56Z" stroke="#0080E0" stroke-miterlimit="10"/>
<path d="M609.641 337.668V267.295M594.428 257.9L609.641 267.295L594.428 257.9Z" stroke="#0080E0" stroke-miterlimit="10"/>
<path d="M607.996 269.726L607.036 270.031M607.996 269.726L594.428 261.6L607.996 269.726ZM607.996 334.79V269.726V334.79Z" stroke="#0080E0" stroke-miterlimit="10"/>
<path d="M607.174 269.918L594.428 262.423M607.174 334.79V269.918V334.79Z" stroke="#0080E0" stroke-miterlimit="10"/>
<path d="M666.383 373.029H677.485" stroke="#0080E0" stroke-miterlimit="10"/>
<path d="M677.485 373.01V357.397M677.485 373.133L666.383 373.44L677.485 373.133ZM666.383 325.678L674.99 324.51L666.383 325.678Z" stroke="#0080E0" stroke-miterlimit="10"/>
<path d="M675.018 326.155L666.383 327.389" stroke="#0080E0" stroke-miterlimit="10"/>
<path d="M666.383 369.797L674.428 369.553M675.84 371.079V356.857V371.079ZM675.84 371.079L666.383 371.384L675.84 371.079ZM666.383 327.315L674.858 326.155L666.383 327.315Z" stroke="#0080E0" stroke-miterlimit="10"/>
<path d="M674.607 327.8L666.383 329.033" stroke="#0080E0" stroke-miterlimit="10"/>
<path d="M503.558 533.798L506.809 532.204M674.663 327.839L666.626 328.882L674.663 327.839ZM666.565 305.153L677.485 303.129L666.565 305.153Z" stroke="#0080E0" stroke-miterlimit="10"/>
<path d="M503.558 533.798V460.198" stroke="#0080E0" stroke-miterlimit="10"/>
<path d="M502.324 496.793V460.609M485.055 489.127V465.025V489.127Z" stroke="#0080E0" stroke-miterlimit="10"/>
<path d="M486.288 464.721V489.392M485.877 464.842V489.21V464.842Z" stroke="#0080E0" stroke-miterlimit="10"/>
<path d="M557.011 650.572L563.589 655.917" stroke="#0080E0" stroke-miterlimit="10"/>
<path d="M643.812 505.427V578.995M696.399 569.447V548.699V569.447ZM696.399 541.599V539.028V541.599ZM623.294 630.406L613.342 643.993L623.294 630.406ZM631.771 597.601L643.812 582.667L631.771 597.601Z" stroke="#0080E0" stroke-miterlimit="10"/>
<path d="M643.769 579.227L642.552 578.616M643.769 579.227L631.844 593.83L643.769 579.227Z" stroke="#0080E0" stroke-miterlimit="10"/>
<path d="M682.419 558.923V475.412M642.753 506.276V578.496V506.276ZM642.753 578.496L632.029 591.505L642.753 578.496ZM630.202 634.948L623.621 630.652L630.202 634.948Z" stroke="#0080E0" stroke-miterlimit="10"/>
<path d="M630.2 634.947V514.884" stroke="#0080E0" stroke-miterlimit="10"/>
<path d="M623.621 630.425V519.818" stroke="#0080E0" stroke-miterlimit="10"/>
<path d="M681.597 557.235L679.952 556.824" stroke="#0080E0" stroke-miterlimit="10"/>
<path d="M660.216 566.281V492.681" stroke="#0080E0" stroke-miterlimit="10"/>
<path d="M646.236 583.962V502.96" stroke="#0080E0" stroke-miterlimit="10"/>
<path d="M646.236 583.962L643.769 582.728" stroke="#0080E0" stroke-miterlimit="10"/>
<path d="M658.982 564.273L657.829 563.784M658.982 496.381V564.273V496.381ZM658.982 564.273L647.88 578.205L658.982 564.273Z" stroke="#0080E0" stroke-miterlimit="10"/>
<path d="M679.13 539.007L672.226 547.602M657.927 497.076V563.871V497.076ZM657.927 563.81L647.88 576.149L657.927 563.81ZM679.13 539.007V478.29V539.007Z" stroke="#0080E0" stroke-miterlimit="10"/>
<path d="M677.896 537.271L676.887 536.904M672.14 544.489L677.896 537.271L672.14 544.489ZM677.896 537.271V479.523V537.271Z" stroke="#0080E0" stroke-miterlimit="10"/>
<path d="M677.074 536.968V480.346M672.14 542.844L677.074 536.968L672.14 542.844Z" stroke="#0080E0" stroke-miterlimit="10"/>
<path d="M670.906 549.599L669.842 549.169M661.86 561.347L670.906 549.599L661.86 561.347ZM670.906 549.599V486.924V549.599Z" stroke="#0080E0" stroke-miterlimit="10"/>
<path d="M681.597 539.975L678.962 539.053M661.622 559.269L669.833 549.069L661.622 559.269ZM669.833 549.069V487.747V549.069ZM631.844 603.755V607.81V603.755ZM681.597 542.863V539.975V542.863Z" stroke="#0080E0" stroke-miterlimit="10"/>
<path d="M660.216 567.104L661.449 565.459" stroke="#0080E0" stroke-miterlimit="10"/>
<path d="M658.496 586.608L631.844 623.846M661.553 589.058L660.269 590.896L661.553 589.058ZM679.952 544.9V556.659V544.9ZM679.952 556.659L661.553 582.382L679.952 556.659Z" stroke="#0080E0" stroke-miterlimit="10"/>
<path d="M591.549 544.078V533.744M591.549 533.744L587.849 532.154L591.549 533.744Z" stroke="#0080E0" stroke-miterlimit="10"/>
<path d="M587.849 542.022V532.154" stroke="#0080E0" stroke-miterlimit="10"/>
<path d="M591.549 709.781V699.281M591.549 699.281L587.849 695.801L591.549 699.281Z" stroke="#0080E0" stroke-miterlimit="10"/>
<path d="M563.589 532.393V530.92M587.849 706.081V695.835V706.081Z" stroke="#0080E0" stroke-miterlimit="10"/>
<path d="M590.727 545.311V543.667" stroke="#0080E0" stroke-miterlimit="10"/>
<path d="M563.589 639.605V634.948M563.589 667.49L566.468 670.309L563.589 667.49Z" stroke="#0080E0" stroke-miterlimit="10"/>
<path d="M590.727 661.263V656.329" stroke="#0080E0" stroke-miterlimit="10"/>
<path d="M563.589 667.43V662.776M613.342 631.667V627.135V631.667Z" stroke="#0080E0" stroke-miterlimit="10"/>
<path d="M590.727 691.69V686.756" stroke="#0080E0" stroke-miterlimit="10"/>
<path d="M589.905 679.354L607.634 654.647M613.342 658.571V654.034V658.571ZM613.342 658.571L611.095 661.882L613.342 658.571ZM607.573 654.647V639.014V654.647ZM607.573 627.549V532.154V627.549Z" stroke="#0080E0" stroke-miterlimit="10"/>
<path d="M589.905 660.575V679.354M589.905 544.9V649.809V544.9Z" stroke="#0080E0" stroke-miterlimit="10"/>
<path d="M548.376 515.181L551.382 513.651M569.539 661.976V644.292V661.976ZM569.539 634.196V535.435V634.196ZM589.905 679.354L569.6 661.976L589.905 679.354Z" stroke="#0080E0" stroke-miterlimit="10"/>
<path d="M594.428 531.742L591.549 533.798" stroke="#0080E0" stroke-miterlimit="10"/>
<path d="M548.376 660.029L551.381 656.775M594.428 541.715L591.545 543.864L594.428 541.715ZM548.376 514.884V523.971V514.884ZM594.428 531.462V541.715V531.462Z" stroke="#0080E0" stroke-miterlimit="10"/>
<path d="M594.428 694.979L591.549 699.091" stroke="#0080E0" stroke-miterlimit="10"/>
<path d="M682.419 466.998L629.965 503.032M594.342 705.362L591.466 709.781L594.342 705.362ZM548.376 660.058V669.144V660.058ZM594.342 695.171V705.423V695.171ZM677.155 465.955L682.419 466.937L677.155 465.955Z" stroke="#0080E0" stroke-miterlimit="10"/>
<path d="M630.2 502.96L623.621 500.904" stroke="#0080E0" stroke-miterlimit="10"/>
<path d="M347.097 380.333V392.588M623.621 507.483V500.927V507.483ZM336.055 344.976V354.842V344.976ZM336.055 356.925V367.22V356.925ZM336.055 368.813V379.536V368.813ZM336.055 380.762V391.669V380.762ZM336.055 393.017V400.554V393.017ZM334.154 400.616L335.994 400.554L334.154 400.616ZM347.097 340.135V351.226V340.135ZM347.097 353.555V365.136V353.555ZM347.097 366.913V378.923V366.913Z" stroke="#0080E0" stroke-miterlimit="10"/>
<path d="M338.677 406.745V327.8" stroke="#0080E0" stroke-miterlimit="10"/>
<path d="M529.338 406.44L530.747 406.562M338.677 327.8L347.131 328.838L338.677 327.8ZM341.556 406.623L338.738 406.745L341.556 406.623ZM532.34 406.44V328.593V406.44ZM526.581 341.537V353.077V341.537ZM526.581 354.481V366.143V354.481ZM526.581 367.486V379.27V367.486ZM526.581 380.491V392.336V380.491Z" stroke="#0080E0" stroke-miterlimit="10"/>
<path d="M530.695 406.745V328.211" stroke="#0080E0" stroke-miterlimit="10"/>
<path d="M388.84 378.736V395.958M530.686 328.172L526.519 328.969L530.686 328.172ZM532.34 406.623L530.686 406.745L532.34 406.623ZM532.34 328.479L530.686 328.111L532.34 328.479ZM388.84 322.043V337.672V322.043ZM388.84 340.92V357.223V340.92ZM388.84 359.859V376.836V359.859Z" stroke="#0080E0" stroke-miterlimit="10"/>
<path d="M377.738 416.202V303.54" stroke="#0080E0" stroke-miterlimit="10"/>
<path d="M468.082 411.477L469.43 411.662M377.835 303.54L388.748 305.627L377.835 303.54ZM381.514 415.957L377.835 416.202L381.514 415.957ZM377.835 416.202L376.916 415.957L377.835 416.202ZM377.835 303.54L376.916 304.093L377.835 303.54ZM465.507 331.706V345.881V331.706ZM465.507 347.66V361.958V347.66ZM465.507 363.614V378.096V363.614ZM465.507 379.507V394.05V379.507Z" stroke="#0080E0" stroke-miterlimit="10"/>
<path d="M469.43 411.679V315.464" stroke="#0080E0" stroke-miterlimit="10"/>
<path d="M334.154 380.976V391.64M469.386 315.464L465.405 316.69L469.386 315.464ZM471.897 411.496L469.447 411.679L471.897 411.496ZM471.897 315.955L469.447 315.464L471.897 315.955ZM334.154 345.861V355.544V345.861ZM334.154 357.566V367.678V357.566ZM334.154 369.271V379.812V369.271Z" stroke="#0080E0" stroke-miterlimit="10"/>
<path d="M326.341 403.867V334.79" stroke="#0080E0" stroke-miterlimit="10"/>
<path d="M364.169 379.667V393.906M326.341 335.056L333.895 335.851L326.341 335.056ZM328.921 403.745L326.403 403.867L328.921 403.745ZM364.169 332.734V345.689V332.734ZM364.169 348.378V361.823V348.378ZM364.169 364.023V378.078V364.023Z" stroke="#0080E0" stroke-miterlimit="10"/>
<path d="M354.712 410.857V317.931" stroke="#0080E0" stroke-miterlimit="10"/>
<path d="M357.946 410.673L354.712 410.857M354.712 317.931L364.169 319.34L354.712 317.931Z" stroke="#0080E0" stroke-miterlimit="10"/>
<path d="M317.295 401.811V340.546" stroke="#0080E0" stroke-miterlimit="10"/>
<path d="M316.846 342.707L313.184 342.401M317.156 340.809L324.107 341.421L317.156 340.809ZM319.452 401.75L317.094 401.811L319.452 401.75ZM334.161 340.135L336.21 340.319L334.161 340.135ZM326.217 343.504L324.107 343.32L326.217 343.504Z" stroke="#0080E0" stroke-miterlimit="10"/>
<path d="M385.303 297.373L533.162 328.235M313.184 342.191L385.303 297.373L313.184 342.191Z" stroke="#0080E0" stroke-miterlimit="10"/>
<path d="M326.368 340.682L324.285 341.78M526.584 329.038L471.996 318.187L526.584 329.038ZM396.272 303.129L388.859 307.092L396.272 303.129ZM377.035 313.432L364.414 320.199L377.035 313.432Z" stroke="#0080E0" stroke-miterlimit="10"/>
<path d="M324.285 342.602H326.341" stroke="#0080E0" stroke-miterlimit="10"/>
<path d="M313.184 338.901V342.355M336.21 340.32V342.602V340.32Z" stroke="#0080E0" stroke-miterlimit="10"/>
<path d="M385.551 290.383V297.373" stroke="#0080E0" stroke-miterlimit="10"/>
<path d="M326.43 352.881L324.347 352.758M533.162 323.688V328.317V323.688ZM324.285 351.77L326.369 351.894L324.285 351.77Z" stroke="#0080E0" stroke-miterlimit="10"/>
<path d="M471.992 332.379L529.462 341.299M319.351 350.826L325.983 347.852L319.351 350.826ZM328.93 346.578L337.956 342.573L328.93 346.578ZM341.271 341.056L354.042 335.353L341.271 341.056ZM357.911 333.654L376.822 325.219L357.911 333.654ZM381.427 323.156L389.47 319.576L381.427 323.156ZM389.47 319.576L468.123 331.833L389.47 319.576Z" stroke="#0080E0" stroke-miterlimit="10"/>
<path d="M529.462 341.368L527.817 341.78" stroke="#0080E0" stroke-miterlimit="10"/>
<path d="M389.662 317.52V319.237M324.285 352.348L326.367 352.47L324.285 352.348Z" stroke="#0080E0" stroke-miterlimit="10"/>
<path d="M326.43 362.338L324.347 362.277M529.462 340.135V341.307V340.135ZM324.285 361.29L326.369 361.413L324.285 361.29Z" stroke="#0080E0" stroke-miterlimit="10"/>
<path d="M471.992 348.03L529.462 354.382M319.351 361.105L325.983 359.008L319.351 361.105ZM328.93 358.083L337.956 355.246L328.93 358.083ZM341.271 354.135L354.042 350.065L341.271 354.135ZM357.911 348.893L376.822 342.91L357.911 348.893ZM381.427 341.43L389.47 338.901L381.427 341.43ZM389.47 338.901L468.123 347.598L389.47 338.901Z" stroke="#0080E0" stroke-miterlimit="10"/>
<path d="M529.462 354.526H527.817" stroke="#0080E0" stroke-miterlimit="10"/>
<path d="M389.662 337.257V338.987M324.285 362.215L326.367 362.338L324.285 362.215Z" stroke="#0080E0" stroke-miterlimit="10"/>
<path d="M326.43 371.795L324.347 371.735M529.462 353.293V354.449V353.293ZM324.285 370.882L326.369 370.943L324.285 370.882Z" stroke="#0080E0" stroke-miterlimit="10"/>
<path d="M471.992 363.886L529.462 367.51M319.351 371.384L325.983 370.197L319.351 371.384ZM328.93 369.635L337.956 368.01L328.93 369.635ZM341.271 367.385L354.042 365.074L341.271 367.385ZM357.911 364.386L376.822 360.95L357.911 364.386ZM381.427 360.137L389.47 358.7L381.427 360.137ZM389.47 358.638L468.123 363.636L389.47 358.638Z" stroke="#0080E0" stroke-miterlimit="10"/>
<path d="M529.462 367.684H527.817" stroke="#0080E0" stroke-miterlimit="10"/>
<path d="M389.662 356.993V358.706M324.285 371.734L326.367 371.795L324.285 371.734Z" stroke="#0080E0" stroke-miterlimit="10"/>
<path d="M326.37 381.664H324.285M529.462 366.45V367.611V366.45Z" stroke="#0080E0" stroke-miterlimit="10"/>
<path d="M471.992 379.717L529.462 380.657M319.351 381.664L325.983 381.328L319.351 381.664ZM328.93 381.194L337.956 380.791L328.93 381.194ZM341.271 380.657L354.042 380.053L341.271 380.657ZM357.911 379.851L376.822 378.978L357.911 379.851ZM381.427 378.777L389.47 378.374L381.427 378.777ZM389.47 378.374L468.123 379.65L389.47 378.374Z" stroke="#0080E0" stroke-miterlimit="10"/>
<path d="M529.462 380.43H527.817" stroke="#0080E0" stroke-miterlimit="10"/>
<path d="M389.662 376.73V378.478M324.285 381.664H326.367H324.285Z" stroke="#0080E0" stroke-miterlimit="10"/>
<path d="M529.462 379.197V380.43" stroke="#0080E0" stroke-miterlimit="10"/>
<path d="M381.597 395.799L389.662 396.466M319.351 390.71L326.001 391.255L319.351 390.71ZM328.956 391.497L338.007 392.224L328.956 391.497ZM341.331 392.527L354.137 393.557L341.331 392.527ZM358.016 393.86L376.979 395.375L358.016 393.86Z" stroke="#0080E0" stroke-miterlimit="10"/>
<path d="M529.462 392.354H527.817" stroke="#0080E0" stroke-miterlimit="10"/>
<path d="M324.285 390.298H326.341" stroke="#0080E0" stroke-miterlimit="10"/>
<path d="M326.341 390.298H324.285" stroke="#0080E0" stroke-miterlimit="10"/>
<path d="M389.662 396.378V398.111M389.662 396.378L468.208 394.087L389.662 396.378ZM472.07 394.025L529.462 392.354L472.07 394.025Z" stroke="#0080E0" stroke-miterlimit="10"/>
<path d="M529.462 392.354V393.588" stroke="#0080E0" stroke-miterlimit="10"/>
<path d="M381.597 414.438L389.662 416.202M319.351 400.989L326.001 402.449L319.351 400.989ZM328.956 403.058L338.007 405.005L328.956 403.058ZM341.331 405.736L354.137 408.535L341.331 405.736ZM358.016 409.326L376.979 413.464L358.016 409.326Z" stroke="#0080E0" stroke-miterlimit="10"/>
<path d="M529.462 405.512H527.817" stroke="#0080E0" stroke-miterlimit="10"/>
<path d="M324.285 400.167H326.341" stroke="#0080E0" stroke-miterlimit="10"/>
<path d="M326.341 400.167H324.285" stroke="#0080E0" stroke-miterlimit="10"/>
<path d="M472.07 409.899L529.462 405.512M389.662 416.202L468.208 410.146L389.662 416.202Z" stroke="#0080E0" stroke-miterlimit="10"/>
<path d="M323.895 401.05L325.983 400.989M319.351 401.78L325.983 403.302L319.351 401.78ZM328.93 403.971L337.956 406.04L328.93 403.971ZM341.271 406.831L354.042 409.753L341.271 406.831ZM357.911 410.605L376.822 414.926L357.911 410.605ZM381.427 416.021L389.47 417.847L381.427 416.021ZM389.47 417.847L468.123 411.578L389.47 417.847ZM471.992 411.274L529.462 406.71L471.992 411.274Z" stroke="#0080E0" stroke-miterlimit="10"/>
<path d="M389.662 416.202V417.847" stroke="#0080E0" stroke-miterlimit="10"/>
<path d="M497.371 665.375L495.334 663.105M529.462 405.512V406.677V405.512ZM503.48 659.732L497.309 665.313L503.48 659.732Z" stroke="#0080E0" stroke-miterlimit="10"/>
<path d="M440.237 476.167V601.466M503.558 497.04L497.434 499.311L503.558 497.04ZM497.495 499.311L444.279 475L497.495 499.311ZM497.495 665.375V499.311V665.375Z" stroke="#0080E0" stroke-miterlimit="10"/>
<path d="M443.021 599.912L464.085 623.023M440.221 601.571L443.021 599.85L440.221 601.571ZM440.221 601.571L439.003 600.219L440.221 601.571ZM464.085 617.676L445.396 597.637L464.085 617.676ZM445.396 597.637V479.496V597.637ZM443.021 599.912V477.467V599.912Z" stroke="#0080E0" stroke-miterlimit="10"/>
<path d="M444.349 597.954L445.442 597.281M464.085 619.323L444.349 597.954L464.085 619.323ZM444.349 597.954V479.112V597.954Z" stroke="#0080E0" stroke-miterlimit="10"/>
<path d="M464.085 627.11L495.334 661.674M493.984 653.952L466.848 624.598L493.984 653.952ZM466.848 624.598V491.859V624.598Z" stroke="#0080E0" stroke-miterlimit="10"/>
<path d="M465.73 625.471L466.896 624.614M494.101 656.329L465.73 625.471L494.101 656.329ZM465.73 625.471V491.447V625.471Z" stroke="#0080E0" stroke-miterlimit="10"/>
<path d="M673.784 453.528V450.409M697.633 438.239V411.268V438.239ZM673.784 450.409V430.166V450.409ZM697.633 438.239L673.784 450.348L697.633 438.239ZM697.633 411.329L696.287 411.696L697.633 411.329ZM697.633 457.32V438.239V457.32Z" stroke="#0080E0" stroke-miterlimit="10"/>
<path d="M697.221 457.057V440.051M697.221 516.118V464.24V516.118Z" stroke="#0080E0" stroke-miterlimit="10"/>
<path d="M696.81 457.197V440.462M684.064 447.941V455.174V447.941ZM684.799 447.511V455.235V447.511ZM695.646 442.669V457.013V442.669ZM695.646 465.841V514.698V465.841ZM695.646 514.759L693.195 517.763L695.646 514.759ZM696.81 516.169V464.737V516.169Z" stroke="#0080E0" stroke-miterlimit="10"/>
<path d="M686.531 455.675V446.218" stroke="#0080E0" stroke-miterlimit="10"/>
<path d="M693.521 520.23L696.81 516.118" stroke="#0080E0" stroke-miterlimit="10"/>
<path d="M696.399 514.724L693.11 518.585M696.399 442.106V456.936V442.106ZM696.399 464.842V514.724V464.842Z" stroke="#0080E0" stroke-miterlimit="10"/>
<path d="M598.844 480.203V456.573M686.942 455.594V447.452V455.594ZM198.877 567.926L247.126 553.295L198.877 567.926ZM198.877 567.926L200.042 561.131L198.877 567.926ZM598.844 480.203L597.434 480.876L598.844 480.203ZM597.434 480.876L580.513 476.285L597.434 480.876ZM598.844 456.573L597.434 457.063L598.844 456.573Z" stroke="#0080E0" stroke-miterlimit="10"/>
<path d="M597.306 480.757V456.909" stroke="#0080E0" stroke-miterlimit="10"/>
<path d="M340.321 640.293L335.798 642.349" stroke="#0080E0" stroke-miterlimit="10"/>
<path d="M306.194 438.304V649.626M307.838 417.436V657.973V417.436Z" stroke="#0080E0" stroke-miterlimit="10"/>
<path d="M317.707 439.228V422.776M308.143 417.661L306.194 416.614L308.143 417.661ZM306.255 438.612V416.675V438.612Z" stroke="#0080E0" stroke-miterlimit="10"/>
<path d="M312.773 420.314V655.095" stroke="#0080E0" stroke-miterlimit="10"/>
<path d="M312.773 655.095L307.838 657.973" stroke="#0080E0" stroke-miterlimit="10"/>
<path d="M335.798 452.797V642.349" stroke="#0080E0" stroke-miterlimit="10"/>
<path d="M335.798 642.349L312.773 655.095" stroke="#0080E0" stroke-miterlimit="10"/>
<path d="M376.094 482.813V620.557" stroke="#0080E0" stroke-miterlimit="10"/>
<path d="M376.094 620.556L379.383 618.5" stroke="#0080E0" stroke-miterlimit="10"/>
<path d="M356.768 468.422V630.836" stroke="#0080E0" stroke-miterlimit="10"/>
<path d="M356.768 630.836L376.094 620.556" stroke="#0080E0" stroke-miterlimit="10"/>
<path d="M352.657 465.543V633.303" stroke="#0080E0" stroke-miterlimit="10"/>
<path d="M340.321 635.77L351.245 629.602M352.763 633.29L356.768 631.001L352.763 633.29Z" stroke="#0080E0" stroke-miterlimit="10"/>
<path d="M351.012 464.31V629.602" stroke="#0080E0" stroke-miterlimit="10"/>
<path d="M527.406 157.984V176.079M352.545 633.303L351.012 629.745L352.545 633.303ZM418.087 245.7L527.406 157.984L418.087 245.7ZM418.087 256.802V245.7V256.802Z" stroke="#0080E0" stroke-miterlimit="10"/>
<path d="M527.406 176.076L418.445 257.078" stroke="#0080E0" stroke-miterlimit="10"/>
<path d="M701.551 297.638L694.934 298.926M527.68 185.533L424.02 258.656L527.68 185.533ZM418.445 256.817L424.02 258.656L418.445 256.817ZM703.389 392.643L701.551 392.765L703.389 392.643ZM701.551 392.765L694.934 392.643L701.551 392.765ZM703.389 299.171L701.551 297.577L703.389 299.171Z" stroke="#0080E0" stroke-miterlimit="10"/>
<path d="M701.744 392.765V297.784" stroke="#0080E0" stroke-miterlimit="10"/>
<path d="M663.008 264.89L654.87 267.278M666.383 395.749L663.008 396.055L666.383 395.749ZM666.383 267.829L663.008 264.89L666.383 267.829Z" stroke="#0080E0" stroke-miterlimit="10"/>
<path d="M663.094 396.055V264.89" stroke="#0080E0" stroke-miterlimit="10"/>
<path d="M336.246 216.371L333.742 221.024M352.245 399.983L347.116 400.167L352.245 399.983ZM352.245 222.126L336.246 216.371L352.245 222.126Z" stroke="#0080E0" stroke-miterlimit="10"/>
<path d="M336.21 323.539V216.371M336.21 400.578V393.045V400.578ZM336.21 391.698V380.798V391.698ZM336.21 379.573V368.856V379.573ZM336.21 367.203V356.914V367.203ZM336.21 354.832V344.973V354.832Z" stroke="#0080E0" stroke-miterlimit="10"/>
<path d="M320.174 245.976L319.351 247.621" stroke="#0080E0" stroke-miterlimit="10"/>
<path d="M419.678 481.168V578.616" stroke="#0080E0" stroke-miterlimit="10"/>
<path d="M419.678 578.617L435.303 570.804" stroke="#0080E0" stroke-miterlimit="10"/>
<path d="M418.033 576.561L419.678 578.616" stroke="#0080E0" stroke-miterlimit="10"/>
<path d="M482.999 488.158V465.132" stroke="#0080E0" stroke-miterlimit="10"/>
<path d="M699.688 538.733L696.399 537.91" stroke="#0080E0" stroke-miterlimit="10"/>
<path d="M698.979 539.897L699.688 538.732M696.399 539.007L698.979 539.966L696.399 539.007Z" stroke="#0080E0" stroke-miterlimit="10"/>
<path d="M699.688 538.732V543.801M697.221 544.35L698.843 544.839L697.221 544.35ZM698.913 544.9L699.688 543.801L698.913 544.9Z" stroke="#0080E0" stroke-miterlimit="10"/>
<path d="M698.866 539.966V544.9" stroke="#0080E0" stroke-miterlimit="10"/>
<path d="M684.475 461.432L690.231 457.731" stroke="#0080E0" stroke-miterlimit="10"/>
<path d="M676.251 455.675L690.231 457.731" stroke="#0080E0" stroke-miterlimit="10"/>
<path d="M677.663 454.619L668.85 453.208M677.663 454.619L675.999 455.539L677.663 454.619ZM677.663 454.619L696.399 457.624L677.663 454.619ZM689.496 462.346L684.443 461.488L689.496 462.346ZM675.999 460.506V455.6V460.506ZM696.399 458.912V457.685V458.912ZM675.999 462.96V460.506V462.96ZM675.999 460.506L678.28 460.936L675.999 460.506ZM696.399 523.738V521.223V523.738ZM689.496 532.692V529.994V532.692ZM689.496 548.945V546.246V548.945ZM689.496 548.945L690.298 547.779L689.496 548.945ZM693.194 536.679L690.236 540.726L693.194 536.679ZM679.142 464.922V463.573V464.922ZM682.532 467.13L689.496 462.408L682.532 467.13ZM682.532 558.88L689.496 548.883L682.532 558.88Z" stroke="#0080E0" stroke-miterlimit="10"/>
<path d="M663.094 453.619L676.251 455.675" stroke="#0080E0" stroke-miterlimit="10"/>
<path d="M662.896 475.522V453.457M672.14 453.273V430.594V453.273ZM650.347 483.635V438.276V483.635Z" stroke="#0080E0" stroke-miterlimit="10"/>
<path d="M669.261 453.208L664.739 452.386" stroke="#0080E0" stroke-miterlimit="10"/>
<path d="M664.738 452.744V433.061M664.738 452.744L663.094 453.619L664.738 452.744Z" stroke="#0080E0" stroke-miterlimit="10"/>
<path d="M669.261 453.208V431.827" stroke="#0080E0" stroke-miterlimit="10"/>
<path d="M699.688 457.578V462.665M669.717 452.797L668.85 453.226L669.717 452.797Z" stroke="#0080E0" stroke-miterlimit="10"/>
<path d="M698.866 458.142V463.076" stroke="#0080E0" stroke-miterlimit="10"/>
<path d="M506.025 535.032L503.558 533.798" stroke="#0080E0" stroke-miterlimit="10"/>
<path d="M551.665 450.741L545.498 449.508" stroke="#0080E0" stroke-miterlimit="10"/>
<path d="M246.985 444.573V441.648M538.919 407.156L372.941 421.173L538.919 407.156Z" stroke="#0080E0" stroke-miterlimit="10"/>
<path d="M696.399 411.693V396.975M658.816 396.12L654.708 395.998L658.816 396.12ZM305.179 401.922L303.401 401.983L305.179 401.922ZM303.401 401.983L258.706 403.51L303.401 401.983ZM258.706 403.51L253.801 396.67L258.706 403.51ZM253.801 396.67L252.33 394.654L253.801 396.67ZM270.048 394.41V396.303V394.41ZM551.523 405.281L577.396 406.991L551.523 405.281ZM577.396 407.052L589.045 407.846L577.396 407.052ZM589.045 407.785L673.714 398.685L589.045 407.785ZM673.714 398.746L691.617 396.853L673.714 398.746ZM373.049 451.756L317.686 422.747L373.049 451.756ZM385.434 489.803L379.61 485.406L385.434 489.803ZM373.049 451.756L385.434 449.801L373.049 451.756ZM417.867 481.68L385.434 489.803L417.867 481.68ZM597.138 456.947L590.639 459.206L597.138 456.947ZM696.399 422.258V411.693V422.258Z" stroke="#0080E0" stroke-miterlimit="10"/>
<path d="M663.094 396.055L551.665 405.101" stroke="#0080E0" stroke-miterlimit="10"/>
<path d="M154.059 740.62L246.984 689.634" stroke="#0080E0" stroke-miterlimit="10"/>
<path d="M606.352 482.219V453.818M154.059 749.665L247.106 697.342L154.059 749.665ZM236.556 129.202L241.892 286.419L236.556 129.202ZM606.352 484.427V482.219V484.427Z" stroke="#0080E0" stroke-miterlimit="10"/>
<path d="M663.094 453.619V433.883" stroke="#0080E0" stroke-miterlimit="10"/>
<path d="M507.669 534.248V505.37M528.871 699.913V528.24V699.913ZM528.871 528.24V453.684V528.24ZM551.665 513.402V475.879V513.402ZM551.665 475.879V450.741V475.879Z" stroke="#0080E0" stroke-miterlimit="10"/>
<path d="M246.985 680.66V689.223M246.162 539.555V547.873V539.555ZM246.162 547.873V552.277V547.873Z" stroke="#0080E0" stroke-miterlimit="10"/>
<path d="M551.265 405.898V405.04M246.985 666.076V689.311V666.076ZM246.985 689.311V697.035V689.311ZM363.412 273.235V304.929V273.235ZM625.266 398.419V394.864V398.419ZM331.101 277.771V266.123V277.771Z" stroke="#0080E0" stroke-miterlimit="10"/>
<path d="M272.066 305.596V353.704" stroke="#0080E0" stroke-miterlimit="10"/>
<path d="M276.589 299.937V296.139M273.852 365.225L272.066 366.45L273.852 365.225ZM273.792 351.261V305.571V351.261ZM273.792 305.571V301.958V305.571ZM275.101 300.61V304.04V300.61ZM275.101 304.04V348.199V304.04ZM276.589 346.239V299.937V346.239Z" stroke="#0080E0" stroke-miterlimit="10"/>
<path d="M274.533 352.881L277.823 349.592" stroke="#0080E0" stroke-miterlimit="10"/>
<path d="M281.523 268.179L277.411 267.357" stroke="#0080E0" stroke-miterlimit="10"/>
<path d="M281.579 277.636L279.879 282.655M311.95 283.804L308.366 283.078L311.95 283.804ZM308.366 283.078L281.579 277.636L308.366 283.078Z" stroke="#0080E0" stroke-miterlimit="10"/>
<path d="M281.597 274.82L279.879 280.081M308.661 280.515L281.597 274.758L308.661 280.515Z" stroke="#0080E0" stroke-miterlimit="10"/>
<path d="M281.579 345.48L279.879 347.481M311.95 347.947L308.366 347.681L311.95 347.947ZM308.366 347.681L281.579 345.48L308.366 347.681Z" stroke="#0080E0" stroke-miterlimit="10"/>
<path d="M270.01 292.046V283.393M283.579 342.798L281.44 342.614L283.579 342.798ZM281.44 342.614L279.729 344.578L281.44 342.614ZM283.579 360.411L281.44 360.289L283.579 360.411ZM281.44 360.35L279.729 361.516L281.44 360.35ZM270.01 294.562V292.046V294.562Z" stroke="#0080E0" stroke-miterlimit="10"/>
<path d="M270.01 311.353L270.833 308.886" stroke="#0080E0" stroke-miterlimit="10"/>
<path d="M270.01 311.353V309.746M270.01 309.389L270.833 306.83L270.01 309.389Z" stroke="#0080E0" stroke-miterlimit="10"/>
<path d="M270.01 357.816L270.833 356.993" stroke="#0080E0" stroke-miterlimit="10"/>
<path d="M277.398 369.205L281.523 369.328M270.01 355.925L270.872 354.937L270.01 355.925ZM270.01 368.093L270.872 367.475L270.01 368.093Z" stroke="#0080E0" stroke-miterlimit="10"/>
<path d="M316.884 370.151L281.523 368.917" stroke="#0080E0" stroke-miterlimit="10"/>
<path d="M277.411 273.936L281.523 274.758" stroke="#0080E0" stroke-miterlimit="10"/>
<path d="M319.763 282.159L281.523 273.936" stroke="#0080E0" stroke-miterlimit="10"/>
<path d="M319.565 280.01L317.295 279.52V276.086M319.136 271.058L317.295 273.878M317.295 276.147V273.94M677.466 357.336L690.165 360.095M678.877 305.581L677.466 305.826L675.012 306.256V324.529M679.552 308.463V354.638M691.331 357.458L693.11 357.888M686.668 356.293V354.883M685.319 354.086L679.859 352.675V311.284M686.668 354.944L690.104 355.803M594.279 333.911L609.8 337.652M609.8 337.713L612.315 338.326M594.279 331.458L607.101 334.708L608.082 334.954M674.644 369.784V328.024M506.798 532.345V505.854M551.52 656.703L557.225 650.571M551.397 656.826L563.483 667.557M590.659 691.778L611.211 662.099M551.397 697.42V671.972M631.946 514.5L642.743 506.345L643.97 505.425M660.473 591.09L630.106 634.934" stroke="#0080E0" stroke-miterlimit="10"/>
<path d="M660.336 587.482L631.844 627.958M681.597 539.83V476.234V539.83Z" stroke="#0080E0" stroke-miterlimit="10"/>
<path d="M661.537 559.262V561.223M646.281 583.962L659.638 566.984L646.281 583.962ZM643.769 582.736V579.059V582.736ZM647.812 504.959L657.799 497.236L647.812 504.959ZM657.799 497.236L658.964 496.317L657.799 497.236ZM647.812 578.384V576.239V578.384ZM647.812 576.239V504.959V576.239ZM677.896 479.523L676.854 480.32L677.896 479.523ZM676.854 480.32L671.953 483.997L676.854 480.32ZM671.953 551.294V547.678V551.294ZM671.953 551.294L660.863 565.391L671.953 551.294ZM670.911 487.062L669.808 487.92L670.911 487.062ZM669.747 487.92L661.537 494.294L669.747 487.92ZM661.537 494.294V559.262V494.294Z" stroke="#0080E0" stroke-miterlimit="10"/>
<path d="M660.216 567.104L631.844 603.698" stroke="#0080E0" stroke-miterlimit="10"/>
<path d="M631.844 607.81L660.216 570.804" stroke="#0080E0" stroke-miterlimit="10"/>
<path d="M660.216 590.952V587.662" stroke="#0080E0" stroke-miterlimit="10"/>
<path d="M696.243 458.799L697.221 458.983M661.559 585.928V589.307V585.928ZM591.641 544.023L590.785 543.592L591.641 544.023ZM590.724 543.592L587.849 542.241L590.724 543.592ZM694.775 458.553L696.243 458.799L694.775 458.553Z" stroke="#0080E0" stroke-miterlimit="10"/>
<path d="M697.221 458.965L594.428 531.743" stroke="#0080E0" stroke-miterlimit="10"/>
<path d="M696.243 541.568L697.221 541.936M587.91 531.933L590.785 529.969L587.91 531.933ZM697.221 464.181V462.831V464.181ZM697.221 462.831V458.965V462.831ZM591.641 709.781L590.785 708.984L591.641 709.781ZM590.724 708.922L587.849 706.222L590.724 708.922ZM694.775 541.077L696.243 541.568L694.775 541.077Z" stroke="#0080E0" stroke-miterlimit="10"/>
<path d="M697.221 542.022L594.428 694.979" stroke="#0080E0" stroke-miterlimit="10"/>
<path d="M590.664 545.035L607.679 532.154M587.849 695.801L590.725 691.63L587.849 695.801ZM697.221 546.997V544.298V546.997ZM697.221 544.298V541.845V544.298Z" stroke="#0080E0" stroke-miterlimit="10"/>
<path d="M566.468 665.786V670.309" stroke="#0080E0" stroke-miterlimit="10"/>
<path d="M590.694 661.263L607.585 639.059M589.905 660.588L590.755 661.263L589.905 660.588Z" stroke="#0080E0" stroke-miterlimit="10"/>
<path d="M611.086 630.079L613.342 627.135M563.589 634.863L566.76 637.377L563.589 634.863ZM566.76 637.377L590.66 656.329L566.76 637.377ZM590.66 656.329L611.086 630.079L590.66 656.329Z" stroke="#0080E0" stroke-miterlimit="10"/>
<path d="M566.468 670.309L590.727 691.69" stroke="#0080E0" stroke-miterlimit="10"/>
<path d="M587.747 531.887L548.376 514.884M563.377 662.878L566.561 665.64L563.377 662.878ZM566.561 665.701L590.564 686.756L566.561 665.701ZM590.564 686.756L611.076 657.537L590.564 686.756ZM611.076 657.537L613.342 654.284L611.076 657.537Z" stroke="#0080E0" stroke-miterlimit="10"/>
<path d="M551.565 525.455L548.376 523.93M590.687 530.091L594.428 531.743L590.687 530.091Z" stroke="#0080E0" stroke-miterlimit="10"/>
<path d="M587.849 695.801L548.376 660.029" stroke="#0080E0" stroke-miterlimit="10"/>
<path d="M340.202 635.568V640.044M590.539 691.668L594.277 694.979L590.539 691.668ZM623.325 501.05L638.768 490.995L623.325 501.05ZM347.065 328.641V329.561V328.641ZM347.065 329.561V337.348V329.561ZM347.065 394.122V400.253V394.122ZM347.065 400.253V406.017V400.253ZM526.56 329.132V339.739V329.132ZM526.56 393.632V405.158V393.632ZM388.798 305.772V307.06V305.772ZM388.798 307.06V318.034V307.06ZM465.523 316.931V329.929V316.931ZM465.523 407.427V410.063V407.427ZM334.135 400.744V403.319V400.744ZM364.347 319.138V320.18V319.138ZM364.347 320.242V329.316V320.242ZM364.347 405.955V409.634V405.955ZM324.146 345.993V347.955V345.993ZM324.146 350.162V351.572V350.162ZM313.421 338.758L319.304 334.772L313.421 338.758ZM385.428 290.383L415.211 297.066L385.428 290.383ZM415.15 306.814L396.152 303.013L415.15 306.814ZM354.235 325.698L352.213 326.802L354.235 325.698ZM352.213 326.802L347.065 329.561L352.213 326.802ZM338.179 334.405L336.157 335.508L338.179 334.405ZM336.157 335.447L334.135 336.551L336.157 335.447ZM319.611 350.1L324.146 348.016L319.611 350.1ZM324.146 348.016L326.229 347.035L324.146 348.016ZM329.171 345.686L334.196 343.356L329.171 345.686ZM341.488 339.923L347.065 337.348L341.488 339.923ZM358.096 332.259L364.408 329.316L358.096 332.259ZM364.347 329.316L376.971 323.491L364.347 329.316ZM381.567 321.345L388.737 318.034L381.567 321.345ZM388.798 318.034L389.595 317.666L388.798 318.034ZM389.595 317.605L415.15 321.774L389.595 317.605ZM471.958 330.971L526.56 339.8L471.958 330.971ZM526.56 339.8L529.318 340.229L526.56 339.8ZM527.909 341.578L526.56 341.333L527.909 341.578ZM526.56 341.394L471.958 332.872L526.56 341.394ZM415.15 323.982L392.291 320.426L415.15 323.982ZM392.291 320.426L388.737 321.958L392.291 320.426ZM388.798 321.958L385.244 323.491L388.798 321.958ZM376.971 327.109L364.347 332.627L376.971 327.109ZM364.347 332.627L361.221 333.975L364.347 332.627ZM347.065 340.168L344.307 341.394L347.065 340.168ZM326.29 349.242L324.146 350.162L326.29 349.242ZM324.146 350.162L321.878 351.143L324.146 350.162ZM319.611 360.217L324.146 358.745L319.611 360.217ZM324.146 358.745L326.229 358.071L324.146 358.745ZM329.171 357.09L334.196 355.435L329.171 357.09ZM341.488 353.043L347.065 351.204L341.488 353.043ZM358.096 347.648L364.408 345.563L358.096 347.648ZM364.347 345.563L376.971 341.455L364.347 345.563ZM381.567 339.923L388.737 337.593L381.567 339.923ZM388.798 337.593L389.595 337.348L388.798 337.593ZM389.595 337.348L415.15 340.291L389.595 337.348ZM471.958 346.728L526.56 352.982L471.958 346.728ZM526.56 352.982L529.318 353.289L526.56 352.982ZM527.909 354.576L526.56 354.454L527.909 354.576ZM526.56 354.392L471.958 348.445L526.56 354.392ZM415.15 342.314L392.291 339.8L415.15 342.314ZM392.291 339.8L388.737 340.904L392.291 339.8ZM388.798 340.842L385.244 341.946L388.798 340.842ZM376.971 344.46L364.347 348.322L376.971 344.46ZM364.347 348.322L361.221 349.303L364.347 348.322ZM347.065 353.595L344.307 354.454L347.065 353.595ZM334.135 357.519L331.622 358.255L334.135 357.519ZM326.29 359.91L324.207 360.523L326.29 359.91ZM324.146 360.523L321.878 361.198L324.146 360.523ZM319.611 370.333L324.146 369.475L319.611 370.333ZM324.146 369.475L326.229 369.046L324.146 369.475ZM329.171 368.555L334.196 367.574L329.171 368.555ZM341.488 366.225L347.065 365.183L341.488 366.225ZM358.096 363.037L364.408 361.811L358.096 363.037ZM364.347 361.811L376.971 359.42L364.347 361.811ZM381.567 358.561L388.737 357.213L381.567 358.561ZM388.798 357.151L389.595 356.967L388.798 357.151ZM389.595 357.029L415.15 358.745L389.595 357.029ZM471.958 362.485L526.56 366.103L471.958 362.485ZM526.56 366.103L529.318 366.287L526.56 366.103ZM527.909 367.574L526.56 367.513L527.909 367.574ZM526.56 367.452L471.958 364.08L526.56 367.452ZM415.15 360.585L392.291 359.175L415.15 360.585ZM392.291 359.175L388.737 359.788L392.291 359.175ZM388.798 359.788L385.244 360.401L388.798 359.788ZM376.971 361.811L364.347 363.957L376.971 361.811ZM364.347 364.018L361.221 364.57L364.347 364.018ZM347.065 366.961L344.307 367.452L347.065 366.961ZM334.135 369.23L331.622 369.659L334.135 369.23ZM326.29 370.579L324.207 370.946L326.29 370.579ZM324.146 370.946L321.878 371.314L324.146 370.946ZM319.611 380.511L324.146 380.266L319.611 380.511ZM324.146 380.266L326.229 380.143L324.146 380.266ZM329.171 379.959L334.196 379.714L329.171 379.959ZM341.488 379.346L347.065 379.04L341.488 379.346ZM358.096 378.426L364.408 378.059L358.096 378.426ZM364.347 378.059L376.971 377.384L364.347 378.059ZM381.567 377.139L388.737 376.71L381.567 377.139ZM388.798 376.771L389.595 376.71L388.798 376.771ZM389.595 376.71L415.15 377.2L389.595 376.71ZM471.958 378.243L526.56 379.285L471.958 378.243ZM526.56 379.285L529.318 379.346L526.56 379.285ZM527.909 380.511H526.56H527.909ZM526.56 380.511L471.958 379.714L526.56 380.511ZM415.15 378.856L392.291 378.549L415.15 378.856ZM392.291 378.549L388.737 378.672L392.291 378.549ZM388.798 378.672L385.244 378.794L388.798 378.672ZM376.971 379.162L364.347 379.653L376.971 379.162ZM364.347 379.714L361.221 379.837L364.347 379.714ZM347.065 380.388L344.307 380.511L347.065 380.388ZM334.135 380.94L331.622 381.063L334.135 380.94ZM326.29 381.247L324.207 381.308L326.29 381.247ZM324.146 381.308L321.878 381.369L324.146 381.308ZM392.291 396.207L388.737 395.962L392.291 396.207ZM388.798 395.962L385.244 395.655L388.798 395.962ZM376.971 394.981L364.347 394L376.971 394.981ZM364.347 394L361.221 393.754L364.347 394ZM347.065 392.651L344.307 392.406L347.065 392.651ZM334.135 391.608L331.622 391.425L334.135 391.608ZM326.29 390.934L324.207 390.75L326.29 390.934ZM324.146 390.811L321.878 390.628L324.146 390.811ZM527.909 392.344L526.56 392.406L527.909 392.344ZM526.56 392.406L471.958 393.938L526.56 392.406ZM319.611 391.547L324.146 391.976L319.611 391.547ZM324.146 391.976L326.229 392.16L324.146 391.976ZM329.171 392.467L334.196 392.957L329.171 392.467ZM352.213 394.613L354.235 394.797L352.213 394.613ZM358.096 395.165L364.408 395.778L358.096 395.165ZM364.347 395.778L376.971 396.943L364.347 395.778ZM381.567 397.372L388.737 398.046L381.567 397.372ZM388.798 398.046L389.595 398.108L388.798 398.046ZM471.958 395.41L526.56 393.632L471.958 395.41ZM526.56 393.632L529.318 393.57L526.56 393.632ZM392.291 415.581L388.737 414.846L392.291 415.581ZM388.798 414.846L385.244 414.11L388.798 414.846ZM376.971 412.332L364.347 409.695L376.971 412.332ZM364.347 409.695L361.221 409.021L364.347 409.695ZM354.235 407.55L350.129 406.691L354.235 407.55ZM338.179 404.177L336.157 403.748L338.179 404.177ZM326.29 401.602L324.207 401.173L326.29 401.602ZM324.146 401.173L321.878 400.683L324.146 401.173ZM480.231 408.96L471.897 409.573L480.231 408.96ZM466.81 409.941L465.523 410.063L466.81 409.941ZM465.523 410.063L392.353 415.581L465.523 410.063ZM502.415 496.636L503.518 497.126L502.415 496.636ZM503.518 659.602V536.366V659.602ZM438.927 600.069V569.045V600.069ZM495.368 502.276L464.175 487.561L495.368 502.276ZM495.368 662.913V661.687V662.913ZM495.368 661.687V502.276V661.687ZM444.259 479.1L445.362 479.652L444.259 479.1ZM445.362 479.652L464.175 488.604L445.362 479.652ZM465.707 491.24L466.872 491.853L465.707 491.24ZM466.933 491.792L494.02 504.913L466.933 491.792ZM494.02 504.913V653.962V504.913ZM494.02 653.962V656.414V653.962ZM684.73 446.728L674.496 452.123L684.73 446.728ZM674.434 452.92L683.933 447.831L674.434 452.92ZM686.813 447.402L695.577 442.681L686.813 447.402ZM417.846 497.433L415.885 497.984L417.846 497.433ZM415.885 497.984L379.545 508.653L415.885 497.984ZM246.317 547.708L200.111 561.258L246.317 547.708ZM340.202 455.986V635.629V455.986Z" stroke="#0080E0" stroke-miterlimit="10"/>
<path d="M246.985 666.326V680.999M246.985 444.573V666.326V444.573Z" stroke="#0080E0" stroke-miterlimit="10"/>
<path d="M666.413 395.808V392.132M246.985 553.397V666.197V553.397ZM703.389 392.806V307.394V392.806ZM703.389 307.394V299.429V307.394ZM662.979 396.114L658.809 395.992L662.979 396.114Z" stroke="#0080E0" stroke-miterlimit="10"/>
<path d="M336.21 340.135V335.612" stroke="#0080E0" stroke-miterlimit="10"/>
<path d="M678.546 461.02L684.064 462M418.033 501.616V576.561V501.616ZM435.568 480.798V477.43V480.798ZM477.751 480.185V485.88V480.185Z" stroke="#0080E0" stroke-miterlimit="10"/>
<path d="M696.399 457.731L694.754 458.553" stroke="#0080E0" stroke-miterlimit="10"/>
<path d="M676.251 466.832V462.878M694.754 458.553L689.39 462.26L694.754 458.553ZM679.325 463.434L680.952 463.743L679.325 463.434ZM690.234 469.86L689.451 470.477L690.234 469.86Z" stroke="#0080E0" stroke-miterlimit="10"/>
<path d="M678.307 463.526V461.02M678.307 465.543V463.526V465.543Z" stroke="#0080E0" stroke-miterlimit="10"/>
<path d="M693.778 520.641L696.399 521.416M690.22 531.551L689.409 532.565L690.22 531.551Z" stroke="#0080E0" stroke-miterlimit="10"/>
<path d="M690.22 529.022L689.409 530.098M696.399 521.052L690.22 529.086L696.399 521.052Z" stroke="#0080E0" stroke-miterlimit="10"/>
<path d="M693.521 535.443L696.399 536.266" stroke="#0080E0" stroke-miterlimit="10"/>
<path d="M690.22 544.962L689.409 546.134M696.399 536.265L690.22 544.962L696.399 536.265Z" stroke="#0080E0" stroke-miterlimit="10"/>
<path d="M563.672 453.383L551.665 450.741M696.416 539.144V537.854V539.144ZM696.416 537.854V536.564V537.854ZM693.23 467.697V517.826V467.697ZM693.23 527.963V535.519V527.963ZM693.23 535.519V536.809V535.519ZM672.342 453.198L669.892 452.768L672.342 453.198ZM697.763 462.966L698.866 463.151L697.763 462.966Z" stroke="#0080E0" stroke-miterlimit="10"/>
<path d="M415.566 398.111L388.832 399.025M246.985 441.695V415.179V441.695ZM246.985 415.179V404.145V415.179Z" stroke="#0080E0" stroke-miterlimit="10"/>
<path d="M507.396 505.656V499.404M379.559 485.675L375.945 482.978L379.559 485.675ZM385.439 450.003L545.558 424.995L385.439 450.003ZM545.558 424.934L551.254 424.015L545.558 424.934ZM419.803 481.446L417.843 481.936L419.803 481.446ZM341.52 734.153L339.499 735.685L341.52 734.153ZM518.606 688.858L528.651 700.013L518.606 688.858Z" stroke="#0080E0" stroke-miterlimit="10"/>
<path d="M246.985 697.238V713.482M340.069 640.23L352.657 633.303L340.069 640.23ZM246.985 689.514V697.238V689.514Z" stroke="#0080E0" stroke-miterlimit="10"/>
<path d="M551.252 169.458V160.451M552.969 396.094V299.778V396.094ZM625.266 394.991V275.577V394.991ZM625.266 275.577V238.57V275.577ZM331.049 280.846V277.966V280.846ZM279.418 361.661V347.691V361.661ZM270.833 367.359V356.882V367.359ZM527.459 322.509V185.694V322.509ZM527.459 185.694V176.32V185.694ZM551.252 405.101V169.458V405.101Z" stroke="#0080E0" stroke-miterlimit="10"/>
<path d="M272.066 355.76V366.45" stroke="#0080E0" stroke-miterlimit="10"/>
<path d="M273.861 351.278L272.066 353.375M277.823 362.75V351.771V362.75ZM277.823 351.771V349.428V351.771ZM277.823 346.714L276.956 347.701L277.823 346.714ZM276.956 347.701L275.347 349.551L276.956 347.701Z" stroke="#0080E0" stroke-miterlimit="10"/>
<path d="M272.066 355.76L274.533 352.881" stroke="#0080E0" stroke-miterlimit="10"/>
<path d="M274.533 364.805V354.937" stroke="#0080E0" stroke-miterlimit="10"/>
<path d="M277.411 273.936L267.132 309.107M274.749 350.406V352.796V350.406ZM274.749 352.796V364.805V352.796Z" stroke="#0080E0" stroke-miterlimit="10"/>
<path d="M270.01 294.495L267.132 305.185" stroke="#0080E0" stroke-miterlimit="10"/>
<path d="M277.411 368.917L267.132 373.851" stroke="#0080E0" stroke-miterlimit="10"/>
<path d="M269.988 367.935L267.132 369.74M279.467 363.219L277.948 363.161L279.467 363.219Z" stroke="#0080E0" stroke-miterlimit="10"/>
<path d="M308.661 361.756V364.394M308.661 280.515V283.337V280.515ZM308.661 283.337V344.943V283.337Z" stroke="#0080E0" stroke-miterlimit="10"/>
<path d="M285.224 360.694L283.579 360.632M285.224 343.136L283.579 343.013L285.224 343.136Z" stroke="#0080E0" stroke-miterlimit="10"/>
<path d="M279.879 347.486V344.658M279.879 363.161V361.563V363.161ZM279.879 361.563V347.486V361.563Z" stroke="#0080E0" stroke-miterlimit="10"/>
<path d="M660.226 492.574L646.191 503.186M270.01 394.123V374.126V394.123ZM317.385 276.104L281.716 268.13L317.385 276.104ZM320.082 280.092L320.94 280.276L320.082 280.092ZM327.191 258.807L320.082 269.725L327.191 258.807ZM320.082 269.664L319.224 271.013L320.082 269.664ZM674.751 356.767L675.732 357.012L674.751 356.767ZM675.732 357.012L677.203 357.319L675.732 357.012ZM674.751 326.097V324.502V326.097ZM679.287 354.558L686.396 356.276L679.287 354.558ZM686.396 356.276L691.054 357.38L686.396 356.276ZM686.396 354.927V316.405V354.927ZM594.097 255.433V258.009V255.433ZM594.097 262.426V331.372V262.426ZM594.097 331.433V333.948V331.433ZM506.702 505.885V499.628V505.885ZM682.412 559.005L661.452 589.307L682.412 559.005ZM671.932 483.741L660.226 492.574L671.932 483.741Z" stroke="#0080E0" stroke-miterlimit="10"/>
<path d="M661.506 585.879L660.216 587.662M681.597 557.353V542.844V557.353ZM681.597 557.353L661.506 585.879L681.597 557.353Z" stroke="#0080E0" stroke-miterlimit="10"/>
<path d="M672.14 547.778V544.489" stroke="#0080E0" stroke-miterlimit="10"/>
<path d="M681.597 539.966L661.449 565.459" stroke="#0080E0" stroke-miterlimit="10"/>
<path d="M660.216 570.804L661.449 569.159" stroke="#0080E0" stroke-miterlimit="10"/>
<path d="M660.216 570.561V567.104M660.216 587.662V570.561V587.662Z" stroke="#0080E0" stroke-miterlimit="10"/>
<path d="M563.589 655.753V662.808M661.566 582.446V585.759V582.446ZM611.232 529.077L594.475 541.714L611.232 529.077ZM590.744 529.935L623.464 507.483L590.744 529.935ZM697.221 547.051L696.243 548.584L697.221 547.051ZM696.243 548.645L594.536 705.258L696.243 548.645ZM563.589 532.451L566.77 533.923L563.589 532.451ZM566.77 533.923L569.644 535.272L566.77 533.923ZM569.644 535.272L589.888 544.719L569.644 535.272ZM589.949 544.719L590.805 545.088L589.949 544.719ZM607.746 532.266L611.232 529.629L607.746 532.266ZM611.232 529.629L613.495 527.911L611.232 529.629Z" stroke="#0080E0" stroke-miterlimit="10"/>
<path d="M566.468 641.938V665.786" stroke="#0080E0" stroke-miterlimit="10"/>
<path d="M613.342 644.222V631.72M569.346 644.469L589.628 660.852L569.346 644.469ZM607.52 639.234L611.013 634.676L607.52 639.234ZM611.013 634.676L613.28 631.658L611.013 634.676ZM613.342 654.323V644.222V654.323Z" stroke="#0080E0" stroke-miterlimit="10"/>
<path d="M611.286 634.569V630.013M611.286 662.085V657.53V662.085ZM611.286 657.468V634.569V657.468Z" stroke="#0080E0" stroke-miterlimit="10"/>
<path d="M673.83 453.513L672.297 453.268M551.48 513.529L590.669 530.019L551.48 513.529ZM587.786 706.081L551.357 671.874L587.786 706.081ZM551.357 671.935L548.352 669.115L551.357 671.935ZM638.873 491.092L650.464 483.613L638.873 491.092ZM338.057 406.004V404.9V406.004ZM388.714 398.892V404.839V398.892ZM388.714 404.839V414.892V404.839ZM376.878 405.452V399.322V405.452ZM465.498 395.705V400.732V395.705ZM465.498 400.732V407.475V400.732ZM334.01 336.609V339.98V336.609ZM334.01 340.042V343.413V340.042ZM334.01 392.946V400.732V392.946ZM326.159 403.245V402.264V403.245ZM364.244 399.689V406.004V399.689ZM354.125 406.555V400.119V406.555ZM324.013 343.229V346.111V343.229ZM324.013 352.609V358.8V352.609ZM324.013 362.295V369.59V362.295ZM324.013 371.919V380.318V371.919ZM316.899 401.651V400.793V401.651ZM319.168 334.892L320.027 334.279L319.168 334.892ZM346.95 337.406L352.101 335.015L346.95 337.406ZM352.101 335.015L354.125 334.095L352.101 335.015ZM354.125 337.099L352.101 337.957L354.125 337.099ZM352.101 337.957L346.95 340.226L352.101 337.957ZM338.057 344.088L336.033 344.946L338.057 344.088ZM335.911 345.069L334.071 345.866L335.911 345.069ZM334.01 345.866L331.495 346.969L334.01 345.866ZM334.01 355.551L335.849 354.938L334.01 355.551ZM346.95 351.321L352.101 349.666L346.95 351.321ZM352.101 349.605L354.125 348.931L352.101 349.605ZM354.125 351.444L352.101 352.057L354.125 351.444ZM352.101 352.057L346.95 353.651L352.101 352.057ZM335.911 357.023L334.071 357.574L335.911 357.023ZM334.01 367.628L335.849 367.26L334.01 367.628ZM346.95 365.176L352.101 364.195L346.95 365.176ZM352.101 364.195L354.125 363.827L352.101 364.195ZM354.125 365.789L352.101 366.157L354.125 365.789ZM352.101 366.157L346.95 367.015L352.101 366.157ZM335.911 368.915L334.071 369.222L335.911 368.915ZM334.01 379.766L335.849 379.643L334.01 379.766ZM346.95 379.092L352.101 378.846L346.95 379.092ZM352.101 378.785L354.125 378.663L352.101 378.785ZM354.125 380.134L352.101 380.195L354.125 380.134ZM352.101 380.256L346.95 380.44L352.101 380.256ZM335.911 380.869L334.071 380.931L335.911 380.869ZM354.125 393.253L352.101 393.069L354.125 393.253ZM352.101 393.069L346.95 392.64L352.101 393.069ZM335.911 391.781L334.071 391.659L335.911 391.781ZM418.213 395.521L415.392 395.582L418.213 395.521ZM415.086 395.643L392.21 396.256L415.086 395.643ZM334.01 392.946L335.849 393.13L334.01 392.946ZM341.369 393.682L346.95 394.233L341.369 393.682ZM346.95 394.172L352.101 394.663L346.95 394.172ZM415.331 397.36L418.152 397.299L415.331 397.36ZM418.213 397.237L423.794 397.053L418.213 397.237ZM350.016 406.739L346.95 406.065L350.016 406.739ZM346.95 406.065L344.19 405.452L346.95 406.065ZM336.033 403.797L334.01 403.368L336.033 403.797ZM334.01 403.368L331.495 402.816L334.01 403.368ZM527.93 405.391L526.581 405.513L527.93 405.391ZM526.581 405.513L480.278 409.007L526.581 405.513ZM503.521 536.395V533.943V536.395ZM503.521 533.881V497.1V533.881ZM464.148 487.659L442.929 477.667L464.148 487.659ZM442.929 477.667L440.108 476.318L442.929 477.667ZM464.148 627.123V622.832V627.123ZM464.148 617.498V488.64V617.498ZM464.148 488.64V487.659V488.64ZM686.341 446.034L684.869 446.831L686.341 446.034ZM246.985 441.804V535.046V441.804ZM379.454 513.222V605.054V513.222ZM379.454 605.054V608.732V605.054ZM695.05 392.701V299.95V392.701ZM695.05 299.95V299.03V299.95ZM551.48 299.95V297.559V299.95ZM551.48 297.559V264.149V297.559ZM551.48 264.149V169.497V264.149ZM417.784 497.467V501.575V497.467ZM477.518 477.299V480.057V477.299ZM676.099 463.015L678.369 463.444L676.099 463.015ZM678.369 463.444L679.166 463.567L678.369 463.444ZM693.21 467.736L690.266 469.942L693.21 467.736ZM696.399 523.766L693.271 527.874L696.399 523.766ZM693.21 527.874L690.266 531.674L693.21 527.874ZM696.399 539.031L694.927 541.115L696.399 539.031ZM694.927 541.115L690.328 547.797L694.927 541.115ZM689.53 546.264V532.778V546.264ZM690.328 547.797V545.1V547.797ZM690.328 545.1V540.747V545.1ZM690.328 540.686V531.674V540.686ZM693.21 517.759V518.801V517.759ZM683.888 461.912L680.883 463.873L683.888 461.912ZM678.369 465.467L677.326 466.142L678.369 465.467Z" stroke="#0080E0" stroke-miterlimit="10"/>
<path d="M697.302 516.398L693.932 520.641M696.459 457.731L698.866 458.1L696.459 457.731Z" stroke="#0080E0" stroke-miterlimit="10"/>
<path d="M435.319 477.242L419.729 481.168M590.727 459.208L580.6 457L590.727 459.208ZM580.6 457L563.598 453.32L580.6 457ZM317.413 422.527L312.626 420.012L317.413 422.527ZM312.687 420.012L307.838 417.436L312.687 420.012Z" stroke="#0080E0" stroke-miterlimit="10"/>
<path d="M701.744 392.765L666.383 395.644" stroke="#0080E0" stroke-miterlimit="10"/>
<path d="M312.144 345.261V284.172M375.191 708.551L372.554 710.512L375.191 708.551ZM372.615 710.512L341.521 734.041L372.615 710.512ZM507.54 499.364V496.729V499.364ZM331.217 326.94V286.684V326.94ZM279.578 345.016V283.62V345.016ZM677.485 392.38V373.141V392.38ZM277.799 347.038V293.608V347.038ZM277.799 293.608V288.706V293.608ZM277.799 362.969L274.733 364.991L277.799 362.969ZM274.61 355.249V353.104V355.249ZM274.61 353.165V350.776V353.165ZM277.37 268.179L270.01 294.833L277.37 268.179ZM312.144 361.928V348.08V361.928Z" stroke="#0080E0" stroke-miterlimit="10"/>
<path d="M308.661 347.488V361.516M308.661 344.658V347.488V344.658Z" stroke="#0080E0" stroke-miterlimit="10"/>
<path d="M308.25 361.516L285.224 360.481M308.25 344.839L285.224 343.013L308.25 344.839Z" stroke="#0080E0" stroke-miterlimit="10"/>
<path d="M279.879 282.921V280.103M279.879 344.658V282.921V344.658Z" stroke="#0080E0" stroke-miterlimit="10"/>
<path d="M563.316 639.597V655.852M270.833 367.324V357.879V367.324ZM270.833 311.508V308.809V311.508ZM270.833 308.809V306.724V308.809ZM674.852 356.652V326.045V356.652ZM594.158 257.9V261.396V257.9ZM594.158 261.396V262.377V261.396ZM506.72 499.505V496.438V499.505ZM613.412 658.796L629.968 634.875L613.412 658.796ZM681.597 476.381L678.96 478.405L681.597 476.381ZM678.96 478.405L672.093 483.619L678.96 478.405ZM646.339 503.062L643.825 504.964L646.339 503.062ZM643.825 504.964L631.807 514.041L643.825 504.964ZM631.807 593.718V597.705V593.718ZM631.807 597.705V603.716V597.705ZM631.807 607.764V624.079V607.764ZM631.807 624.079V628.127V624.079ZM672.031 544.587V542.87V544.587ZM661.546 568.999L680.003 545.016L661.546 568.999ZM680.003 544.955L681.597 542.87L680.003 544.955ZM661.546 565.626V568.999V565.626ZM661.546 568.999V582.493V568.999ZM623.345 507.601L629.968 503.062L623.345 507.601Z" stroke="#0080E0" stroke-miterlimit="10"/>
<path d="M566.468 637.414V641.937" stroke="#0080E0" stroke-miterlimit="10"/>
<path d="M566.613 642.031L569.346 644.405M563.589 639.47L566.613 642.031L563.589 639.47Z" stroke="#0080E0" stroke-miterlimit="10"/>
<path d="M611.286 630.013V529.687" stroke="#0080E0" stroke-miterlimit="10"/>
<path d="M679.151 464.965L678.354 465.517M563.322 531.134L551.426 525.671L563.322 531.134ZM650.393 483.563L654.624 480.801L650.393 483.563ZM338.041 404.135V400.575V404.135ZM376.855 313.289V304.082V313.289ZM471.897 411.194V409.782V411.194ZM471.897 409.536V408.063V409.536ZM364.224 395.725V399.593V395.725ZM354.106 410.58V409.659V410.58ZM354.106 409.659V408.37V409.659ZM354.106 407.511V406.467V407.511ZM354.106 399.961V394.743V399.961ZM323.999 351.469V352.328V351.469ZM323.999 361.167V362.027V361.167ZM323.999 370.927V371.786V370.927ZM323.999 381.485V390.324V381.485ZM323.999 400.022V400.882V400.022ZM320.014 334.098L320.872 333.484L320.014 334.098ZM415.301 296.962L418.122 297.575L415.301 296.962ZM418.183 307.335L415.363 306.783L418.183 307.335ZM334.055 343.244L336.018 342.323L334.055 343.244ZM336.018 342.323L338.041 341.402L336.018 342.323ZM415.301 321.637L418.122 322.067L415.301 321.637ZM418.183 324.338L415.363 323.908L418.183 324.338ZM336.018 354.722L338.041 354.047L336.018 354.722ZM415.301 340.175L418.122 340.482L415.301 340.175ZM418.183 342.507L415.363 342.2L418.183 342.507ZM338.041 356.195L336.018 356.809L338.041 356.195ZM336.018 367.121L338.041 366.753L336.018 367.121ZM415.301 358.651L418.122 358.835L415.301 358.651ZM418.183 360.676L415.363 360.492L418.183 360.676ZM338.041 368.41L336.018 368.779L338.041 368.41ZM336.018 379.521L338.041 379.398L336.018 379.521ZM415.301 377.127L418.122 377.188L415.301 377.127ZM418.183 378.845L415.363 378.784L418.183 378.845ZM338.041 380.687L336.018 380.748L338.041 380.687ZM338.041 391.858L336.018 391.674L338.041 391.858ZM423.763 395.234L418.183 395.419L423.763 395.234ZM336.018 393.025L338.041 393.209L336.018 393.025ZM389.487 398.119L415.056 397.26L389.487 398.119ZM423.763 396.953L465.459 395.603L423.763 396.953ZM465.459 395.603L468.096 395.541L465.459 395.603ZM484.774 489.026L485.755 489.456L484.774 489.026ZM438.847 495.287V490.377V495.287ZM438.847 490.377V480.678V490.377ZM464.11 623.024V619.77V623.024ZM464.11 619.709V617.683V619.709ZM696.81 440.412L686.264 445.997L696.81 440.412ZM246.985 535.124V539.176V535.124ZM379.43 485.589V508.73V485.589ZM379.43 508.73V513.272V508.73ZM379.43 609.151V618.604V609.151ZM666.397 391.981V373.198V391.981ZM666.397 373.075V371.48V373.075ZM417.754 487.983V497.497V487.983ZM435.291 488.413V481.599V488.413ZM477.477 471.287V477.364V471.287ZM695.645 465.824L693.192 467.665L695.645 465.824ZM690.249 531.748V529.047V531.748ZM693.131 518.858V520.331V518.858ZM693.131 520.331V521.436V520.331ZM680.806 463.86L679.151 464.965L680.806 463.86Z" stroke="#0080E0" stroke-miterlimit="10"/>
<path d="M497.515 665.176L518.771 688.811M419.678 578.616L438.846 599.98L419.678 578.616Z" stroke="#0080E0" stroke-miterlimit="10"/>
<path d="M613.442 527.572L611.173 529.288M375.842 483.011L356.711 468.607L375.842 483.011ZM340.095 456.164L335.741 452.916L340.095 456.164ZM335.803 452.855L317.592 439.186L335.803 452.855ZM613.135 451.506L610.315 452.487L613.135 451.506ZM610.376 452.487L606.145 453.958L610.376 452.487ZM507.426 460.884V459.352V460.884ZM331.142 281.968V280.926V281.968ZM270.93 354.907V308.753V354.907ZM281.415 363.304L279.698 363.243L281.415 363.304ZM271.911 366.921L270.991 367.534L271.911 366.921ZM270.869 367.656L270.01 368.269L270.869 367.656ZM312.073 345.284L308.456 344.978L312.073 345.284ZM312.073 361.956L308.456 361.772L312.073 361.956ZM270.869 358.156V357.175V358.156ZM686.531 316.047V314.086V316.047ZM686.531 314.086V312.982V314.086ZM631.837 514.577V591.562V514.577ZM631.837 591.562V593.83V591.562ZM672.06 543.018V484.114V543.018ZM629.997 515.129L623.375 520.094L629.997 515.129ZM623.375 520.094L613.442 527.572L623.375 520.094Z" stroke="#0080E0" stroke-miterlimit="10"/>
<path d="M566.468 534.096V637.415M566.468 532.565V534.035V532.565Z" stroke="#0080E0" stroke-miterlimit="10"/>
<path d="M684.038 455.103L674.535 453.57M613.404 627.135V527.876V627.135ZM587.712 542.161L566.497 532.413L587.712 542.161ZM566.497 532.413L563.309 530.942L566.497 532.413ZM654.607 480.73L662.885 475.334L654.607 480.73ZM338.037 400.538V393.242V400.538ZM376.85 415.987V414.884V415.987ZM376.85 414.884V413.29V414.884ZM376.85 413.29V412.309V413.29ZM376.85 412.309V405.32V412.309ZM376.85 323.472V313.418V323.472ZM471.888 408.079V401.151V408.079ZM326.142 400.844V399.986V400.844ZM354.102 394.775V393.487V394.775ZM316.884 400.415V397.656V400.415ZM320.931 333.588L327.982 328.868L320.931 333.588ZM418.176 297.784L423.756 299.01L418.176 297.784ZM465.45 316.912L423.756 308.574L465.45 316.912ZM423.756 308.574L418.176 307.471L423.756 308.574ZM418.176 322.246L423.756 323.166L418.176 322.246ZM423.756 325.312L418.176 324.453L423.756 325.312ZM418.176 340.578L423.756 341.191L418.176 340.578ZM423.756 343.214L418.176 342.601L423.756 343.214ZM418.176 358.909L423.756 359.277L418.176 358.909ZM423.756 361.116L418.176 360.748L423.756 361.116ZM418.176 377.24L423.756 377.363L418.176 377.24ZM423.756 378.957L418.176 378.896L423.756 378.957ZM466.738 394.1L465.45 394.162L466.738 394.1ZM465.45 394.1L423.756 395.265L465.45 394.1ZM449.754 473.679L464.224 479.994L449.754 473.679ZM464.224 479.994L470.417 482.692L464.224 479.994ZM470.417 482.692L477.468 485.757L470.417 482.692ZM486.113 489.497L502.362 496.547L486.113 489.497ZM438.839 569.014V504.334V569.014ZM438.839 504.334V495.199V504.334ZM438.839 479.749V476.438V479.749ZM246.985 539.096V551.848V539.096ZM246.985 551.848V553.381V551.848ZM666.38 371.539V369.944V371.539ZM551.414 405.074V396.001V405.074ZM551.414 396.001V300.114V396.001ZM417.747 481.772V485.267V481.772ZM417.747 485.267V487.903V485.267ZM435.283 570.854V502.065V570.854ZM477.468 466.69V468.774V466.69ZM477.468 468.774V471.227V468.774ZM689.434 529.961V470.491V529.961ZM690.231 528.918V469.878V528.918Z" stroke="#0080E0" stroke-miterlimit="10"/>
<path d="M440.237 601.231L495.334 662.907" stroke="#0080E0" stroke-miterlimit="10"/>
<path d="M957.657 257.859L958.7 262.089M416.103 397.889L418.372 397.828L416.103 397.889ZM432.537 399.422L414.324 397.95L432.537 399.422ZM591.858 401.567L593.943 401.69L591.858 401.567ZM594.004 401.69L592.41 401.813L594.004 401.69ZM592.349 401.813L587.136 401.567L592.349 401.813ZM587.197 401.567L589.221 401.384L587.197 401.567ZM589.16 401.384L591.735 401.506L589.16 401.384ZM594.004 401.69L595.844 401.751L594.004 401.69ZM595.844 401.751L597.806 401.813L595.844 401.751ZM597.806 401.813L599.83 401.874L597.806 401.813ZM599.83 401.935L601.976 401.997L599.83 401.935ZM601.976 401.997L604.184 402.058L601.976 401.997ZM604.123 402.058L606.392 402.119L604.123 402.058ZM606.392 402.058L608.661 402.119L606.392 402.058ZM608.661 402.119H610.991H608.661ZM610.991 402.119H613.321H610.991ZM613.321 402.181H615.652H613.321ZM615.652 402.181H617.982H615.652ZM617.982 402.181H620.251H617.982ZM620.251 402.119H622.52H620.251ZM622.52 402.119L624.728 402.058L622.52 402.119ZM624.666 402.119L626.813 402.058L624.666 402.119ZM626.813 402.058L628.836 401.997L626.813 402.058ZM628.836 401.997L630.799 401.935L628.836 401.997ZM630.799 401.935L632.639 401.874L630.799 401.935ZM632.639 401.874L634.356 401.813L632.639 401.874ZM634.417 401.813L636.011 401.751L634.417 401.813ZM636.011 401.751L637.483 401.69L636.011 401.751ZM637.544 401.629L638.894 401.567L637.544 401.629ZM638.894 401.567L640.12 401.445L638.894 401.567ZM641.101 401.322L640.181 401.384L641.101 401.322ZM611.727 400.219L612.708 400.157L611.727 400.219ZM612.708 400.157L641.04 401.384L612.708 400.157ZM612.708 400.157L613.996 400.035L612.708 400.157ZM614.057 400.035L609.09 399.851L614.057 400.035ZM609.029 399.851L607.373 399.973L609.029 399.851ZM607.373 399.973L610.378 400.096L607.373 399.973ZM610.684 400.096L612.708 400.157L610.684 400.096ZM640.12 401.445L611.727 400.219L640.12 401.445ZM684.642 394.088L678.386 394.578L684.642 394.088ZM685.561 394.088L679.368 394.578L685.561 394.088ZM685.071 394.088L678.877 394.578L685.071 394.088ZM684.642 394.456L682.618 394.64L684.642 394.456ZM675.749 394.578L689.609 393.475L675.749 394.578ZM689.609 393.536H690.467H689.609ZM693.166 393.597L679.613 394.701L693.166 393.597ZM679.613 394.701H678.632H679.613ZM690.222 393.475L693.779 393.536L690.222 393.475ZM686.175 394.088H685.255H686.175ZM684.642 394.088H683.722H684.642ZM690.406 393.597L684.825 394.026L690.406 393.597ZM690.835 393.597L685.255 394.026L690.835 393.597ZM689.977 393.536L684.335 393.965L689.977 393.536ZM675.075 394.64L678.938 394.701L675.075 394.64ZM690.529 393.536H691.387H690.529ZM677.712 394.64L675.811 394.578L677.712 394.64ZM678.632 394.64H677.651H678.632ZM691.387 393.536L693.166 393.597L691.387 393.536ZM695.189 392.739L698.501 392.8L695.189 392.739ZM663.178 396.05L666.612 395.743L663.178 396.05ZM701.751 392.862L702.671 392.8L701.751 392.862ZM654.838 395.804L658.947 395.927L654.838 395.804ZM336.197 400.648L338.221 400.587L336.197 400.648ZM347.113 400.28L352.264 400.096L347.113 400.28ZM676.056 392.31L666.612 392.126L676.056 392.31ZM666.612 392.065L677.099 392.248L666.612 392.065ZM677.528 392.371H676.056H677.528ZM675.136 392.248L666.612 392.126L675.136 392.248ZM676.608 392.31H675.136H676.608ZM675.381 392.248L676.853 392.31L675.381 392.248ZM675.381 392.248L666.612 392.126L675.381 392.248ZM680.533 392.371L695.189 392.616L680.533 392.371ZM677.528 392.371L680.533 392.432L677.528 392.371ZM675.259 392.248L666.612 392.126L675.259 392.248ZM423.952 397.644L465.653 400.709L423.952 397.644ZM472.092 401.138L526.732 405.123L472.092 401.138ZM557.332 405.491L551.506 405.982L557.332 405.491ZM538.935 407.085L545.374 406.534L538.935 407.085ZM551.629 405.123L557.332 405.491L551.629 405.123ZM312.219 397.889L317.064 397.766L312.219 397.889ZM247.093 402.794L184.787 404.817L247.093 402.794ZM206.006 395.498L169.272 405.736L206.006 395.498ZM184.849 404.878L212.813 395.498L184.849 404.878ZM169.272 405.675L247.154 403.1L169.272 405.675ZM308.601 397.95L281.557 398.686L308.601 397.95ZM281.557 398.686L279.84 398.012L281.557 398.686ZM212.813 395.437L246.357 394.823L212.813 395.437ZM246.296 394.762L206.006 395.498L246.296 394.762ZM312.219 397.889L308.601 398.012L312.219 397.889ZM277.878 397.276L272.113 395.069L277.878 397.276ZM270.089 394.21L270.948 394.578L270.089 394.21ZM278.43 397.521L279.227 397.828L278.43 397.521ZM625.525 398.563L622.765 398.809L625.525 398.563ZM354.288 400.035L352.264 400.096L354.288 400.035ZM654.838 395.804L625.525 395.007L654.838 395.804ZM558.007 396.295L554.757 396.172L558.007 396.295ZM622.765 398.747L558.007 396.295L622.765 398.747ZM637.667 397.582L649.809 396.663L637.667 397.582ZM638.648 398.012L634.049 397.828L638.648 398.012ZM657.168 396.54L663.178 396.05L657.168 396.54ZM649.809 396.663L651.956 396.724L649.809 396.663ZM655.206 396.663L650.852 396.54L655.206 396.663ZM639.936 397.644L651.956 396.663L639.936 397.644ZM638.648 398.012L641.04 397.828L638.648 398.012ZM634.049 397.889L625.525 398.563L634.049 397.889ZM627.549 398.931L630.308 398.686L627.549 398.931ZM642.266 397.705L639.997 397.644L642.266 397.705ZM630.308 398.686L638.648 398.012L630.308 398.686ZM641.101 397.828L636.502 397.644L641.101 397.828ZM655.206 396.663L657.168 396.479L655.206 396.663ZM642.266 397.705L654.225 396.724L642.266 397.705ZM641.101 397.828L642.266 397.705L641.101 397.828ZM650.852 396.54L649.809 396.601L650.852 396.54ZM652.876 396.418L650.852 396.601L652.876 396.418ZM636.502 397.705L634.049 397.889L636.502 397.705ZM658.947 395.927L652.814 396.418L658.947 395.927ZM654.225 396.785L655.206 396.724L654.225 396.785ZM625.525 398.563L630.308 398.747L625.525 398.563ZM657.168 396.54L652.876 396.418L657.168 396.54ZM637.667 397.582L636.441 397.644L637.667 397.582ZM622.765 398.747L627.549 398.931L622.765 398.747ZM583.027 401.874L551.629 404.326L583.027 401.874ZM551.629 405.123L588.301 402.119L551.629 405.123ZM592.349 401.813L587.136 401.567L592.349 401.813ZM588.301 402.119L583.027 401.874L588.301 402.119ZM677.528 394.885L678.938 394.762L677.528 394.885ZM588.301 402.119L592.41 401.751L588.301 402.119ZM607.373 399.973L589.16 401.384L607.373 399.973ZM609.029 399.851L613.996 400.035L609.029 399.851ZM617.185 399.79L627.549 398.931L617.185 399.79ZM622.765 398.747L612.279 399.544L622.765 398.747ZM852.731 402.794L700.463 398.257L852.731 402.794ZM611.727 400.219L594.004 401.69L611.727 400.219ZM666.612 395.743L677.528 394.885L666.612 395.743ZM677.528 394.885L673.603 394.823L677.528 394.885ZM673.603 394.762L666.612 395.314L673.603 394.762ZM675.075 394.64L673.603 394.762L675.075 394.64ZM666.612 390.532L677.528 390.654L666.612 390.532ZM703.591 391.084L812.135 392.616L703.591 391.084ZM610.378 400.096L592.287 401.567L610.378 400.096ZM587.197 401.567L583.027 401.874L587.197 401.567ZM812.196 392.616L825.749 392.8L812.196 392.616ZM614.057 400.035L617.246 399.79L614.057 400.035ZM612.279 399.606L609.029 399.851L612.279 399.606ZM825.749 392.8L852.731 402.794L825.749 392.8ZM678.938 394.762L675.075 394.701L678.938 394.762ZM612.279 399.606L617.185 399.79L612.279 399.606ZM738.852 393.107L700.463 398.195L738.852 393.107ZM590.754 408.802L687.156 397.828L590.754 408.802ZM727.998 393.168L738.913 393.107L727.998 393.168ZM666.612 391.881L677.528 392.065L666.612 391.881ZM703.591 392.494L738.852 393.107L703.591 392.494ZM727.998 393.168L703.652 392.739L727.998 393.168ZM693.717 393.536L694.76 393.475L693.717 393.536ZM691.326 393.352L690.222 393.413L691.326 393.352ZM698.439 392.8L691.264 393.352L698.439 392.8ZM551.506 406.043L590.815 408.802L551.506 406.043ZM691.326 393.352L694.821 393.413L691.326 393.352ZM694.821 393.413L701.812 392.862L694.821 393.413ZM723.582 393.168L589.16 407.637L723.582 393.168ZM690.222 393.475L693.779 393.536L690.222 393.475ZM702.671 392.8L723.582 393.168L702.671 392.8ZM589.16 407.637L557.332 405.491L589.16 407.637ZM416.103 397.889L388.875 398.809L416.103 397.889ZM377.039 399.238L364.406 399.667L377.039 399.238ZM423.952 397.644L418.372 397.828L423.952 397.644ZM306.148 401.997L247.277 404.081L306.148 401.997ZM246.296 394.456L270.089 394.026L246.296 394.456ZM247.277 404.081L247.154 403.1L247.277 404.081ZM270.089 394.149L252.367 394.456L270.089 394.149ZM538.935 407.085L373.114 421.186L538.935 407.085ZM373.114 421.186L306.148 401.997L373.114 421.186ZM317.064 401.077L313.446 401.2L317.064 401.077ZM258.744 403.345L305.228 401.751L258.744 403.345ZM313.446 401.138L385.502 418.734L313.446 401.138ZM252.367 394.456L258.683 403.345L252.367 394.456ZM385.502 418.734L533.232 406.656L385.502 418.734ZM303.45 401.261L317.064 400.832L303.45 401.261ZM305.228 401.751L303.45 401.261L305.228 401.751ZM658.947 395.927L663.117 396.05L658.947 395.927ZM702.671 392.8L703.591 392.739L702.671 392.8ZM698.439 392.8L701.751 392.862L698.439 392.8ZM551.506 406.043L545.374 406.534L551.506 406.043ZM533.232 406.656L538.996 407.085L533.232 406.656ZM700.463 398.195L687.156 397.766L700.463 398.195ZM687.156 397.828L727.998 393.168L687.156 397.828ZM639.936 397.644L637.667 397.582L639.936 397.644ZM652.017 396.663L654.225 396.724L652.017 396.663ZM738.852 393.107L825.687 392.8L738.852 393.107ZM247.093 402.794L246.296 394.823L247.093 402.794ZM1127.4 529.949L1344 627.185L1127.4 529.949ZM1127.4 701.676V691.56V701.676ZM978.139 248.172V397.582V248.172ZM1127.4 691.56L1208.6 768.503L1127.4 691.56ZM1215.46 768.625L1278.93 827.789L1215.46 768.625ZM1215.46 588.744V768.564V588.744ZM1208.6 579.057V768.503V579.057ZM1299.79 630.557V638.282V630.557ZM959.19 256.02L1081.47 3.79363L959.19 256.02Z" stroke="#0080E0" stroke-miterlimit="10"/>
<path d="M511.237 456.32L473.953 449.453M1150.46 630.315V824.91V630.315ZM838.761 394.704L1038 409.602L838.761 394.704ZM1083.19 595.921L1150.4 630.315L1083.19 595.921ZM817.36 254.122L938.594 0.915405L817.36 254.122ZM817.36 254.122L817.789 255.9L817.36 254.122ZM820.119 259.824L824.841 256.145L820.119 259.824ZM1076.08 585.866L1160.4 627.679L1076.08 585.866ZM1204.61 658.027L1160.4 635.404L1204.61 658.027ZM1160.4 627.679L1204.61 649.566L1160.4 627.679ZM818.709 254.061L819.812 253.141L818.709 254.061ZM817.789 255.9L818.218 254.981L817.789 255.9ZM1147.64 824.91L1083.19 765.808L1147.64 824.91ZM819.874 258.782L820.119 259.824L819.874 258.782ZM1083.19 765.808V595.921V765.808ZM1118.51 196.001V118.077V196.001ZM869.852 265.526V336.093V265.526ZM1118.51 118.077L1029.47 169.7L1118.51 118.077ZM871.63 332.475V267.794V332.475ZM919.707 225.43V233.4V225.43ZM1110.17 129.849L1035.12 172.213L1110.17 129.849ZM1035.12 172.213V224.265V172.213ZM1035.12 224.326L1110.17 192.507L1035.12 224.326ZM1110.17 192.445V129.849V192.445ZM1029.54 169.7V232.357V169.7ZM914.495 322.298V244.251V322.298ZM1102.14 141.252L1040.88 174.849L1102.14 141.252ZM889.965 328.122L871.63 332.475L889.965 328.122ZM868.135 339.649V263.319V339.649ZM919.707 233.4V329.042V233.4ZM917.07 325.67V238.856V325.67ZM892.112 327.632L914.495 322.359L892.112 327.632ZM871.63 267.794L889.965 257.739L871.63 267.794ZM914.495 244.251L892.112 256.513L914.495 244.251ZM868.135 263.319V256.942V263.319ZM919.707 329.042L868.073 339.649L919.707 329.042ZM889.965 254.184V257.678V254.184ZM1029.54 232.357L1118.58 196.001L1029.54 232.357ZM868.135 256.942L919.768 225.368L868.135 256.942ZM868.135 263.319L919.768 233.4L868.135 263.319ZM892.112 256.513V327.632V256.513ZM917.07 238.856L889.965 254.122L917.07 238.856ZM869.852 336.093L889.965 331.617L869.852 336.093ZM1102.14 189.012V141.191V189.012ZM988.02 764.46L838.7 588.073L988.02 764.46ZM1029.54 169.7V158.296V169.7ZM1029.54 158.296L1118.58 103.915L1029.54 158.296ZM838.761 394.704L836.308 394.52L838.761 394.704ZM988.02 749.316L979.558 739.752L988.02 749.316ZM988.02 779.603L838.761 596.227L988.02 779.603ZM1118.51 103.915V118.077V103.915ZM1040.88 215.988L1102.14 189.073L1040.88 215.988ZM1040.88 174.849V215.988V174.849ZM824.841 256.145V409.173V256.145ZM836.247 399.915L838.7 400.161L836.247 399.915ZM1054.68 824.91L988.082 749.316L1054.68 824.91ZM836.247 394.52V399.915V394.52ZM1038 485.38L1204.61 531.607L1038 485.38ZM836.247 579.735V464.351V579.735ZM1016.23 432.777V435.536V432.777ZM794.854 425.604L797.307 426.401L794.854 425.604ZM803.562 540.007L811.902 549.51L803.562 540.007ZM835.02 575.689V466.436V575.689ZM838.761 401.571L1038 424.255L838.761 401.571ZM835.02 466.436L822.879 460.428L835.02 466.436ZM838.761 408.376V407.027V408.376ZM797.307 426.462L838.7 404.452L797.307 426.462ZM802.765 448.288V541.233V448.288ZM838.761 408.376L1016.29 435.536L838.761 408.376ZM802.765 541.233L836.247 579.735L802.765 541.233ZM822.94 460.428V462.88V460.428ZM798.166 428.731V554.782V428.731ZM836.247 464.351L802.765 448.288L836.247 464.351ZM1038 409.602V424.255V409.602ZM797.675 426.585L838.7 404.881L797.675 426.585ZM794.854 425.604L824.841 409.173L794.854 425.604ZM794.854 425.604L795.038 427.627L794.854 425.604ZM1038 512.847V507.268V512.847ZM838.761 407.027L1016.29 432.777L838.761 407.027ZM803.562 450.802V539.946V450.802ZM852.313 472.015L886.899 488.63L852.313 472.015ZM868.993 550.307L882.852 561.71L868.993 550.307ZM853.785 540.743L867.276 552.085L853.785 540.743ZM882.852 561.71V493.534V561.71ZM833.855 571.704V468.459V571.704ZM812.822 457.73V548.161V457.73ZM884.814 491.082L867.215 482.376L884.814 491.082ZM823.982 560.607L833.855 571.704L823.982 560.607ZM811.963 454.971V457.301V454.971ZM852.313 542.459V472.015V542.459ZM833.855 468.459L823.982 463.37L833.855 468.459ZM823.982 463.432V560.668V463.432ZM812.822 548.161L822.879 559.442L812.822 548.161ZM804.42 453.438V538.719V453.438ZM886.838 488.63V571.949V488.63ZM822.94 462.88L812.883 457.73L822.94 462.88ZM884.814 566.799V491.082V566.799ZM804.42 538.719L811.963 547.18L804.42 538.719ZM886.838 571.949L852.252 542.398L886.838 571.949ZM853.785 475.694V540.743V475.694ZM867.276 482.376V485.564V482.376ZM882.852 493.534L868.993 486.423L882.852 493.534ZM868.993 486.423V550.307V486.423ZM811.963 457.301L804.42 453.438L811.963 457.301ZM899.838 575.75V502.24V575.75ZM795.283 427.688V550.981V427.688ZM852.313 466.191L886.899 481.702L852.313 466.191ZM838.761 442.954V588.073V442.954ZM852.313 472.015V466.129V472.015ZM802.765 443.935L836.247 458.956L802.765 443.935ZM895.362 492.676L949.878 518.855L895.362 492.676ZM897.569 497.397V577.467V497.397ZM855.257 539.026V479.433V539.026ZM899.838 502.24L918.358 511.743L899.838 502.24ZM895.362 485.503L949.878 509.965L895.362 485.503ZM918.419 591.016L899.9 575.75L918.419 591.016ZM886.838 481.702V488.63V481.702ZM921.117 513.092V593.223V513.092ZM895.362 579.245V492.676V579.245ZM949.878 518.855V625.778V518.855ZM949.878 625.778L895.362 579.245L949.878 625.778ZM943.316 524.434L921.117 513.092L943.316 524.434ZM946.566 521.675L918.419 507.697L946.566 521.675ZM921.117 593.223L943.316 611.493L921.117 593.223ZM855.257 479.433L867.276 485.564L855.257 479.433ZM897.569 577.528L918.358 595.001L897.569 577.528ZM946.566 618.544V521.675V618.544ZM943.316 611.493V524.434V611.493ZM867.276 548.897L855.257 539.026L867.276 548.897ZM918.419 507.758V511.743V507.758ZM949.878 509.965V518.855V509.965ZM895.362 492.676V485.442V492.676ZM988.02 495.312V527.071V495.312ZM836.247 458.956V464.351V458.956ZM802.765 448.288V443.935V448.288ZM1116.86 824.91L988.02 698.798L1116.86 824.91ZM1069.21 765.625L1131.76 824.91L1069.21 765.625ZM889.965 254.184L869.852 265.526L889.965 254.184ZM819.812 253.141L1125.38 0.915405L819.812 253.141ZM979.619 739.752L939.514 694.199L979.619 739.752ZM838.761 245.294L1151.63 0.915405L838.761 245.294ZM819.874 258.782L1146.78 0.915405L819.874 258.782ZM889.965 331.617L917.07 325.609L889.965 331.617ZM889.965 328.122V331.617V328.122ZM1160.4 635.404V824.91V635.404ZM818.279 254.981L818.709 254.061L818.279 254.981ZM1038 409.602L1204.61 422.048L1038 409.602ZM824.841 256.145L838.761 245.294L824.841 256.145ZM889.965 257.678V328.122V257.678ZM1038 485.38V502.853V485.38ZM795.283 427.688L798.166 428.731L795.283 427.688ZM822.94 460.428L811.963 454.971L822.94 460.428ZM838.761 442.954L988.082 495.312L838.761 442.954ZM1016.23 499.972L1037.94 507.268L1016.23 499.972ZM798.166 428.731L838.7 442.954L798.166 428.731ZM822.94 561.956L835.082 575.75L822.94 561.956ZM1038 424.255V485.38V424.255ZM822.94 559.442V561.894V559.442ZM988.02 764.46V779.603V764.46ZM988.02 495.312L1037.94 512.847L988.02 495.312ZM1204.61 556.867L1038 502.853L1204.61 556.867ZM838.761 404.452V401.632V404.452ZM838.761 407.027V404.82V407.027ZM1016.23 435.536V499.972V435.536ZM824.841 409.173L838.761 401.571L824.841 409.173ZM811.963 549.448L822.94 561.894L811.963 549.448ZM822.94 462.88V559.442V462.88ZM1038 502.853V507.268V502.853ZM811.963 547.18V549.51V547.18ZM867.276 485.564V548.897V485.564ZM838.761 588.073V596.227V588.073ZM867.276 552.085L884.876 566.799L867.276 552.085ZM867.276 548.897V552.085V548.897ZM988.02 537.187V698.798V537.187ZM918.419 591.016V595.001V591.016ZM988.02 698.798V749.316V698.798ZM918.419 507.758L897.631 497.458L918.419 507.758ZM867.276 482.376L853.785 475.694L867.276 482.376ZM811.963 457.301V547.18V457.301ZM918.419 594.94L946.566 618.544L918.419 594.94ZM988.02 527.071V537.187V527.071ZM918.419 511.682V590.955V511.682ZM818.709 254.061L940.925 0.915405L818.709 254.061ZM939.514 694.199L835.082 575.689L939.514 694.199ZM988.02 749.316V764.46V749.316ZM838.761 401.571V394.704V401.571ZM1204.61 641.167L1069.21 576.179L1204.61 641.167ZM1007.46 824.91L988.02 799.835L1007.46 824.91ZM835.02 575.689L829.195 569.067L835.02 575.689ZM797.675 426.585L1016.23 499.972L797.675 426.585ZM811.963 454.971L803.623 450.802L811.963 454.971ZM838.761 596.227V607.14V596.227ZM1204.61 649.566L1076.08 585.866L1204.61 649.566ZM988.02 799.835L838.7 607.14L988.02 799.835ZM1069.21 576.179L988.02 537.187L1069.21 576.179ZM988.02 779.603V799.774V779.603ZM798.166 554.782L795.283 551.042L798.166 554.782ZM838.761 607.14L798.227 554.782L838.761 607.14ZM795.283 551.042L777.868 528.481L795.283 551.042ZM591.999 471.218L564.281 466.129L591.999 471.218Z" stroke="#0080E0" stroke-miterlimit="10"/>
<path d="M677.234 375.634L670.121 375.756V373.181M701.744 476.028L795.586 486.719V416.036M778.232 527.631L703.296 480.595M650.314 469.498L613.03 461.712M606.04 460.179L598.742 458.646M669.201 373.181V376.799M669.201 376.86L677.234 376.737M703.296 376.185L711.575 376.063V340.626M711.575 340.626L703.296 341.423M711.575 340.626V338.296L703.296 339.093M710.471 374.898V341.914L703.358 342.588M677.234 374.53L671.102 374.653V373.181M703.296 373.917L709.244 373.794M709.306 373.733V343.201L703.358 343.753M703.358 421.432L710.471 421.983V447.917M718.627 304.699L753.396 316.47L754.929 316.286M722.674 303.963L756.83 315.428L756.156 316.654M703.296 420.328L711.575 420.941V449.266L703.296 448.101M755.604 316.47L754.132 319.413L753.335 319.475M703.296 417.937L711.575 418.55V420.88M795.586 416.036L821.586 417.385M795.586 416.036L703.296 410.641M822.077 416.036L821.525 417.385M822.077 416.036L816.067 415.73M822.077 416.036L749.41 393.904M816.067 415.73L749.472 395.253M816.067 415.73L815.209 415.669M703.296 395.375L749.41 396.479V395.437M749.41 397.092L703.296 395.927M733.589 390.532V322.663L752.967 320.21M815.209 415.669L749.472 395.437M815.209 415.669L703.358 409.599M703.358 422.597L709.306 423.087V446.568M749.41 393.904L703.296 393.046M749.41 393.904V395.253M749.41 393.904V390.654L733.589 390.471H731.014M703.296 445.771L709.244 446.568M738.74 424.313V451.78L752.17 453.619M766.335 427.808L778.232 428.789M795.586 460.915V427.44L737.453 422.903M740.089 450.676V425.601M752.17 452.331L763.453 453.864M752.17 452.331V426.643M752.17 452.331V453.619M750.821 452.148L740.089 450.737M737.453 422.903V452.822L795.586 460.853M737.453 422.903V420.389M763.453 453.803V427.563L752.17 426.643M752.17 453.619L764.863 455.336M752.17 426.643V425.355L738.74 424.252M793.93 459.259V428.727L778.293 427.44M740.089 425.662L750.821 426.582M778.293 427.44V428.789V455.765M778.293 427.44L764.925 426.336M750.821 426.52V452.086M779.826 456.01L792.397 457.665M792.336 457.665V429.954L779.765 428.911M779.826 428.911V455.949M766.396 454.232L778.293 455.826V457.175M766.335 454.232V427.869M795.586 427.501V424.681L737.453 420.451M703.358 390.103L731.075 390.471V322.969L733.651 322.663M677.234 389.796L666.319 389.674M754.929 316.225L719.976 304.392M703.296 326.464L731.014 322.969M703.296 325.912L753.274 319.475M703.296 323.153L753.396 316.409M752.231 425.355L764.925 426.398V455.336L778.293 457.175M778.293 457.175L793.991 459.321M703.296 375.021L710.41 374.898M703.296 446.936L710.41 447.917M53.5908 548.158L245.774 506.222M270.732 313.528L247 310.339M267.666 302.615L246.816 306.906L244.425 306.6M269.812 310.156L246.755 306.967M268.34 300.04L241.42 305.496L242.401 306.967L243.382 306.784M243.382 306.784L245.712 310.217L246.939 310.401M243.382 306.784L244.363 306.6L267.849 301.756M270.732 314.263L262.576 313.16M246.877 505.977L245.712 506.222V391.635L262.515 391.39V313.16L247.491 311.198M269.812 391.329H268.585L265.029 391.39H262.576M96.9454 827.789L191.626 544.418M71.1289 318.739V132.788L89.9547 160.009M89.8934 332.166L108.351 338.419V181.1M68.4307 121.691V324.992M89.8934 325.851L71.0676 318.739M89.8934 153.633V160.009M114.79 827.789L201.928 531.175M-3.86781 3.79363L110.007 177.973M-4.48103 300.346V13.1739L40.0387 79.4491V87.9098M191.626 395.069V400.587M190.645 405.369V406.472M-10 3.79363V308.991L109.946 344.55V177.973V166.876L8.7645 3.79363M91.9783 326.586L106.696 332.166M106.696 332.227V184.349L91.9783 163.014V326.648M36.3594 82.5146V305.557L0.853973 292.131V31.0762L36.3594 82.4533M126.686 140.82V420.144M40.0387 87.8485L65.6712 124.941V316.654L40.0387 306.967M148.578 240.937V276.619L138.767 265.645M138.706 265.645V226.346L148.517 240.999M147.72 243.696V271.715L139.687 262.396V232.109L147.72 243.758M137.724 220.46V268.956L149.376 281.463V238.179M149.376 238.179L137.724 220.399V211.57L149.376 230.331V238.179ZM189.051 395.62V269.201L193.221 277.846M193.65 273.186L193.405 277.171M193.282 276.865L193.221 277.784M193.711 273.922L193.834 272.266L154.895 3.79363M184.268 351.601V291.64M184.268 291.64L175.437 278.152M184.268 291.64V286.613L175.437 272.389V278.091V346.757L184.268 351.539M179.975 290.353L176.296 285.019V341.546L179.975 343.876V290.414M180.343 290.904V288.268L175.867 281.585V344.182M183.961 293.663V348.903L180.343 346.818M180.343 344.121L183.655 346.205V295.687L180.343 290.966M193.282 271.899L153.975 3.79363M40.0387 652.445V660.844" stroke="#0080E0" stroke-miterlimit="10"/>
</g>
</svg>
