<svg width="192" height="32" viewBox="0 0 192 32" fill="none" xmlns="http://www.w3.org/2000/svg">
<g clip-path="url(#clip0)">
<path d="M15.6445 0C12.5503 0 9.52558 0.938384 6.95286 2.69649C4.38015 4.45459 2.37496 6.95345 1.19087 9.87706C0.00677855 12.8007 -0.303034 16.0177 0.300611 19.1214C0.904255 22.2251 2.39424 25.0761 4.58216 27.3137C6.77007 29.5514 9.55765 31.0752 12.5924 31.6926C15.6271 32.3099 18.7727 31.9931 21.6313 30.7821C24.49 29.5711 26.9333 27.5203 28.6523 24.8891C30.3714 22.2579 31.2889 19.1645 31.2889 16C31.2889 11.7565 29.6406 7.68687 26.7067 4.68629C23.7728 1.68571 19.7936 0 15.6445 0V0ZM15.6445 30.5455C12.8316 30.5455 10.0818 29.6924 7.74301 28.0941C5.40418 26.4958 3.58128 24.2241 2.50483 21.5663C1.42839 18.9085 1.14674 15.9839 1.69551 13.1623C2.24427 10.3408 3.59881 7.74903 5.58782 5.71481C7.57684 3.68059 10.111 2.29527 12.8698 1.73403C15.6287 1.17279 18.4883 1.46084 21.0871 2.56175C23.6858 3.66266 25.907 5.52699 27.4698 7.91898C29.0326 10.311 29.8667 13.1232 29.8667 16C29.8667 19.8577 28.3683 23.5574 25.7011 26.2852C23.0339 29.013 19.4164 30.5455 15.6445 30.5455ZM22.7556 18.1818H24.8889V22.5455H6.40001V18.1818H8.53334V19.6364H10.6667V18.1818H20.6222V19.6364H22.7556V18.1818ZM24.8889 9.45455V17.4545H6.40001V9.45455H12.0889V8C12.0889 7.61423 12.2387 7.24426 12.5055 6.97148C12.7722 6.6987 13.1339 6.54545 13.5111 6.54545H17.7778C18.155 6.54545 18.5167 6.6987 18.7834 6.97148C19.0502 7.24426 19.2 7.61423 19.2 8V9.45455H24.8889ZM17.7778 8H13.5111V9.45455H17.7778V8Z" fill="#0080E0"/>
<path d="M99.6338 12.1163C99.4536 11.9272 99.2385 11.7764 99.0009 11.6727C98.7321 11.5522 98.441 11.4927 98.1476 11.4982H95.7938V15.3891H98.1334C98.426 15.3938 98.7165 15.3368 98.9867 15.2218C99.227 15.1232 99.443 14.9718 99.6196 14.7782C99.7887 14.5978 99.9215 14.3853 100.011 14.1527C100.106 13.9226 100.154 13.6752 100.153 13.4254C100.153 13.1758 100.104 12.9287 100.011 12.6982C99.9232 12.4811 99.7952 12.2835 99.6338 12.1163Z" fill="#0080E0"/>
<path d="M114.681 15.8109C114.451 15.5804 114.181 15.3954 113.884 15.2655C113.594 15.1416 113.282 15.0773 112.967 15.0764C112.65 15.0773 112.336 15.1415 112.043 15.2655C111.738 15.3962 111.461 15.5877 111.229 15.8286C110.998 16.0696 110.815 16.3553 110.692 16.6691C110.426 17.4211 110.426 18.2444 110.692 18.9964C110.815 19.3102 110.998 19.5959 111.229 19.8368C111.461 20.0778 111.738 20.2692 112.043 20.4C112.336 20.5239 112.65 20.5882 112.967 20.5891C113.282 20.5881 113.594 20.5239 113.884 20.4C114.181 20.27 114.451 20.0851 114.681 19.8546C114.923 19.6117 115.112 19.3192 115.236 18.9964C115.51 18.2461 115.51 17.4194 115.236 16.6691C115.112 16.3462 114.923 16.0538 114.681 15.8109Z" fill="#0080E0"/>
<path d="M89.6 7.27272V24.7273H120.889V7.27272H89.6ZM101.774 14.9964C101.573 15.458 101.28 15.8716 100.914 16.2109C100.541 16.5511 100.109 16.8175 99.6409 16.9964C99.1466 17.1815 98.6241 17.2751 98.0978 17.2727H95.7938V22.1091H93.8666V9.61454H98.1333C98.6599 9.60847 99.1831 9.70217 99.6764 9.8909C100.145 10.0698 100.576 10.3361 100.949 10.6764C101.316 11.0157 101.609 11.4293 101.81 11.8909C102.021 12.3801 102.13 12.9089 102.13 13.4436C102.13 13.9783 102.021 14.5071 101.81 14.9964H101.774ZM107.705 15.2073C107.522 15.1754 107.336 15.1607 107.15 15.1636C106.86 15.1615 106.573 15.2261 106.311 15.3527C105.783 15.6266 105.378 16.098 105.18 16.6691C105.071 16.9794 105.016 17.3067 105.017 17.6364V22.1091H103.111V13.5564H104.903V14.8509H105.003C105.111 14.622 105.252 14.4111 105.422 14.2254C105.6 14.0375 105.801 13.8737 106.02 13.7382C106.245 13.603 106.483 13.4909 106.731 13.4036C106.96 13.3243 107.2 13.2825 107.442 13.28C107.681 13.2742 107.92 13.2986 108.153 13.3527C108.335 13.4064 108.512 13.4795 108.679 13.5709L108.132 15.3382C107.995 15.2757 107.852 15.2317 107.705 15.2073ZM117.006 19.6364C116.805 20.1788 116.497 20.6736 116.103 21.0909C115.711 21.5006 115.242 21.8247 114.724 22.0436C113.58 22.499 112.311 22.499 111.168 22.0436C110.663 21.8205 110.206 21.4966 109.824 21.0909C109.432 20.6717 109.125 20.1773 108.921 19.6364C108.483 18.4656 108.483 17.1708 108.921 16C109.125 15.459 109.432 14.9647 109.824 14.5454C110.216 14.1357 110.685 13.8116 111.204 13.5927C112.347 13.1374 113.616 13.1374 114.759 13.5927C115.264 13.8159 115.721 14.1398 116.103 14.5454C116.497 14.9627 116.805 15.4576 117.006 16C117.444 17.1708 117.444 18.4656 117.006 19.6364Z" fill="#0080E0"/>
<path d="M125.156 9.68001H130.133C130.654 9.67516 131.171 9.76378 131.662 9.94183C132.109 10.1076 132.523 10.354 132.885 10.6691C133.212 10.9349 133.485 11.2635 133.689 11.6364C133.876 12.0099 133.974 12.4238 133.973 12.8436C133.998 13.4542 133.828 14.0565 133.49 14.56C133.19 14.986 132.795 15.3326 132.338 15.5709V15.7455C132.942 15.9568 133.473 16.3435 133.867 16.8582C134.247 17.3964 134.443 18.0488 134.421 18.7127C134.431 19.2168 134.321 19.7158 134.101 20.1673C133.894 20.5898 133.598 20.96 133.234 21.2509C132.84 21.5573 132.394 21.7866 131.918 21.9273C131.386 22.0914 130.832 22.1723 130.276 22.1673H125.156V9.68001ZM129.863 14.64C130.26 14.669 130.654 14.5502 130.972 14.3055C131.106 14.1915 131.211 14.0474 131.28 13.8845C131.349 13.7217 131.38 13.5446 131.371 13.3673C131.38 13.1889 131.349 13.0108 131.28 12.8467C131.211 12.6827 131.106 12.5373 130.972 12.4218C130.676 12.188 130.308 12.0694 129.934 12.0873H127.801V14.64H129.863ZM130.091 19.7309C131.193 19.7309 131.74 19.2655 131.74 18.3346C131.74 17.4036 131.172 16.9382 130.02 16.9382H127.815V19.7309H130.091ZM141.39 21.0909H141.22C140.95 21.5305 140.571 21.8883 140.121 22.1274C139.67 22.3666 139.166 22.4783 138.66 22.4509C138.217 22.4844 137.773 22.408 137.366 22.2282C136.958 22.0484 136.6 21.7705 136.32 21.4182C135.779 20.628 135.508 19.6766 135.552 18.7127V13.6218H138.112V18.4218C138.098 18.8286 138.212 19.2292 138.439 19.5636C138.559 19.7163 138.714 19.8365 138.89 19.9139C139.066 19.9912 139.258 20.0233 139.449 20.0073C139.708 20.0202 139.967 19.964 140.198 19.8441C140.43 19.7243 140.628 19.5449 140.772 19.3236C141.091 18.7913 141.247 18.1731 141.22 17.5491V13.6218H143.78V22.1818H141.39V21.0909ZM148.679 22.4509C148.16 22.4577 147.642 22.3866 147.143 22.24C146.735 22.1174 146.347 21.9335 145.991 21.6946C145.685 21.4749 145.411 21.2103 145.18 20.9091C144.978 20.6323 144.813 20.329 144.69 20.0073L146.994 19.0109C147.116 19.3652 147.349 19.669 147.655 19.8764C147.964 20.0638 148.32 20.1571 148.679 20.1455C148.954 20.1632 149.229 20.1054 149.476 19.9782C149.557 19.9418 149.626 19.8831 149.676 19.8086C149.727 19.7341 149.756 19.6468 149.76 19.5564C149.762 19.4599 149.736 19.3649 149.687 19.2825C149.638 19.2001 149.567 19.1336 149.483 19.0909C149.209 18.9473 148.917 18.8444 148.615 18.7855L147.47 18.5382C147.182 18.4772 146.9 18.3846 146.631 18.2618C146.348 18.1313 146.084 17.9599 145.849 17.7527C145.609 17.5524 145.411 17.3052 145.266 17.0255C145.116 16.721 145.041 16.3843 145.045 16.0436C145.043 15.6563 145.133 15.2743 145.308 14.9309C145.484 14.6013 145.727 14.3137 146.02 14.0873C146.351 13.8436 146.722 13.6614 147.115 13.5491C147.562 13.4143 148.027 13.3481 148.494 13.3527C149.273 13.3276 150.047 13.4869 150.756 13.8182C151.397 14.1383 151.903 14.6864 152.178 15.36L149.973 16.2836C149.842 16.0007 149.625 15.7686 149.355 15.6218C149.104 15.4876 148.827 15.4154 148.544 15.4109C148.298 15.4034 148.053 15.4584 147.833 15.5709C147.756 15.6017 147.69 15.6544 147.642 15.7228C147.594 15.7912 147.567 15.8723 147.563 15.9564C147.568 16.042 147.596 16.1245 147.645 16.1941C147.694 16.2636 147.762 16.3174 147.84 16.3491C148.068 16.4576 148.306 16.5429 148.551 16.6036L149.852 16.9164C150.573 17.0551 151.238 17.4065 151.765 17.9273C152.094 18.2907 152.305 18.7489 152.37 19.2396C152.435 19.7302 152.351 20.2294 152.128 20.6691C151.943 21.0257 151.689 21.34 151.381 21.5927C151.032 21.8741 150.637 22.0907 150.215 22.2327C149.719 22.3944 149.2 22.4706 148.679 22.4582V22.4509ZM154.844 12.8146C154.627 12.8168 154.411 12.7722 154.212 12.6836C154.024 12.6001 153.852 12.4817 153.707 12.3346C153.561 12.1867 153.445 12.0114 153.365 11.8182C153.279 11.6166 153.235 11.3984 153.237 11.1782C153.236 10.9581 153.28 10.7403 153.365 10.5382C153.445 10.3429 153.561 10.1651 153.707 10.0146C153.852 9.8674 154.024 9.74905 154.212 9.66546C154.409 9.57904 154.622 9.53448 154.837 9.53448C155.052 9.53448 155.265 9.57904 155.463 9.66546C155.655 9.74625 155.828 9.86495 155.975 10.0147C156.121 10.1645 156.237 10.3424 156.316 10.5382C156.402 10.7403 156.445 10.9581 156.444 11.1782C156.447 11.3984 156.403 11.6166 156.316 11.8182C156.236 12.0114 156.121 12.1867 155.975 12.3346C155.828 12.4834 155.654 12.6019 155.463 12.6836C155.268 12.7726 155.058 12.8196 154.844 12.8218V12.8146ZM153.6 22.1818V13.6291H156.16V22.1818H153.6ZM160.114 14.7055H160.284C160.554 14.2659 160.933 13.9081 161.383 13.6689C161.833 13.4298 162.338 13.3181 162.844 13.3455C163.286 13.3119 163.729 13.3884 164.135 13.5682C164.541 13.7481 164.899 14.026 165.177 14.3782C165.718 15.1684 165.988 16.1198 165.945 17.0836V22.1746H163.385V17.3818C163.401 16.9736 163.289 16.5708 163.065 16.2327C162.943 16.082 162.788 15.9631 162.612 15.886C162.437 15.8088 162.246 15.7756 162.055 15.7891C161.796 15.7762 161.537 15.8324 161.305 15.9523C161.074 16.0721 160.876 16.2514 160.732 16.4727C160.412 17.0073 160.256 17.6281 160.284 18.2546V22.1818H157.724V13.6291H160.114V14.7055ZM175.424 20.1018C175.026 20.8085 174.458 21.3994 173.774 21.8182C173.043 22.2519 172.208 22.4685 171.363 22.4436C170.746 22.449 170.132 22.3329 169.557 22.1018C169.027 21.883 168.543 21.5592 168.135 21.1491C167.721 20.7369 167.394 20.2418 167.175 19.6946C166.943 19.1182 166.827 18.4997 166.834 17.8764C166.831 17.2722 166.947 16.6736 167.175 16.1164C167.397 15.5742 167.718 15.0804 168.121 14.6618C168.53 14.2456 169.013 13.9124 169.543 13.68C170.098 13.4295 170.7 13.303 171.307 13.3091C171.935 13.2957 172.56 13.4145 173.141 13.6582C173.644 13.8751 174.095 14.2 174.464 14.6109C174.822 15.0209 175.096 15.5009 175.267 16.0218C175.449 16.5824 175.54 17.1695 175.538 17.76C175.538 17.8546 175.538 17.9491 175.538 18.0436C175.542 18.1236 175.542 18.2037 175.538 18.2836C175.538 18.3636 175.538 18.4436 175.538 18.5091H169.316C169.356 18.7554 169.445 18.9907 169.577 19.2008C169.709 19.4108 169.881 19.5912 170.083 19.7309C170.467 19.9897 170.918 20.1241 171.378 20.1164C171.795 20.1332 172.208 20.0245 172.565 19.8036C172.86 19.5976 173.104 19.3235 173.276 19.0036L175.424 20.1018ZM173.155 16.7709C173.127 16.6099 173.071 16.455 172.992 16.3127C172.901 16.1442 172.78 15.9939 172.636 15.8691C172.466 15.7262 172.274 15.6131 172.068 15.5346C171.84 15.448 171.599 15.4037 171.356 15.4036C170.961 15.403 170.574 15.5247 170.247 15.7527C169.896 16.0011 169.632 16.3579 169.493 16.7709H173.155ZM180.131 22.4582C179.612 22.466 179.094 22.3949 178.595 22.2473C178.186 22.1276 177.798 21.9436 177.443 21.7018C177.134 21.4861 176.86 21.2209 176.633 20.9164C176.426 20.6416 176.258 20.3379 176.135 20.0146L178.439 19.0182C178.565 19.373 178.799 19.6766 179.107 19.8836C179.417 20.0711 179.772 20.1644 180.131 20.1527C180.405 20.1706 180.677 20.1128 180.921 19.9855C181.003 19.9506 181.073 19.8922 181.124 19.8174C181.174 19.7426 181.203 19.6545 181.205 19.5636C181.207 19.4672 181.182 19.3722 181.133 19.2898C181.084 19.2074 181.013 19.1409 180.928 19.0982C180.654 18.9546 180.362 18.8517 180.06 18.7927L178.916 18.5455C178.629 18.4844 178.35 18.3918 178.083 18.2691C177.798 18.1388 177.532 17.9673 177.294 17.76C177.057 17.5594 176.861 17.3121 176.718 17.0327C176.563 16.7301 176.485 16.3925 176.491 16.0509C176.487 15.6626 176.58 15.2797 176.761 14.9382C176.932 14.6055 177.175 14.317 177.472 14.0946C177.8 13.8496 178.169 13.6673 178.56 13.5564C179.022 13.4174 179.501 13.3512 179.982 13.36C180.751 13.3391 181.515 13.4983 182.215 13.8255C182.857 14.1456 183.362 14.6937 183.637 15.3673L181.44 16.2909C181.307 16.0068 181.087 15.7746 180.814 15.6291C180.564 15.4949 180.286 15.4227 180.003 15.4182C179.757 15.4107 179.513 15.4657 179.292 15.5782C179.211 15.6039 179.14 15.6555 179.09 15.7256C179.039 15.7956 179.012 15.8803 179.012 15.9673C179.012 16.0543 179.039 16.139 179.09 16.209C179.14 16.279 179.211 16.3307 179.292 16.3564C179.52 16.4656 179.759 16.5509 180.003 16.6109L181.298 16.9236C182.019 17.0608 182.684 17.4124 183.211 17.9346C183.543 18.2958 183.757 18.7543 183.822 19.246C183.887 19.7376 183.8 20.2378 183.573 20.6764C183.369 21.0366 183.089 21.3468 182.755 21.5855C182.408 21.8654 182.016 22.0819 181.596 22.2255C181.112 22.3845 180.605 22.4631 180.096 22.4582H180.131ZM188.366 22.4582C187.847 22.466 187.329 22.3949 186.83 22.2473C186.422 22.1246 186.034 21.9408 185.678 21.7018C185.369 21.4861 185.095 21.2209 184.867 20.9164C184.663 20.6398 184.496 20.3365 184.37 20.0146L186.674 19.0182C186.801 19.3717 187.035 19.6747 187.342 19.8836C187.652 20.0711 188.007 20.1644 188.366 20.1527C188.641 20.1697 188.916 20.112 189.163 19.9855C189.243 19.9488 189.311 19.8898 189.36 19.8152C189.409 19.7406 189.437 19.6535 189.44 19.5636C189.441 19.4681 189.417 19.374 189.369 19.2918C189.322 19.2096 189.252 19.1426 189.17 19.0982C188.893 18.956 188.599 18.8532 188.295 18.7927L187.157 18.5455C186.868 18.4856 186.587 18.3929 186.318 18.2691C186.034 18.1404 185.77 17.9688 185.536 17.76C185.296 17.5597 185.098 17.3124 184.953 17.0327C184.8 16.7295 184.724 16.3919 184.732 16.0509C184.727 15.6632 184.817 15.2804 184.995 14.9382C185.171 14.6086 185.414 14.321 185.707 14.0946C186.036 13.8481 186.408 13.6657 186.802 13.5564C187.25 13.4215 187.714 13.3554 188.181 13.36C188.951 13.3383 189.715 13.4976 190.414 13.8255C191.055 14.1466 191.56 14.6944 191.836 15.3673L189.632 16.2909C189.499 16.0068 189.279 15.7746 189.006 15.6291C188.756 15.4931 188.478 15.4207 188.195 15.4182C187.949 15.4095 187.704 15.4645 187.484 15.5782C187.403 15.6039 187.332 15.6555 187.282 15.7256C187.231 15.7956 187.204 15.8803 187.204 15.9673C187.204 16.0543 187.231 16.139 187.282 16.209C187.332 16.279 187.403 16.3307 187.484 16.3564C187.712 16.4661 187.95 16.5514 188.195 16.6109L189.49 16.9236C190.211 17.0608 190.876 17.4124 191.403 17.9346C191.733 18.2966 191.947 18.7545 192.013 19.2455C192.079 19.7364 191.995 20.2362 191.772 20.6764C191.587 21.0346 191.33 21.3492 191.019 21.6C190.672 21.8814 190.28 22.0981 189.859 22.24C189.365 22.3984 188.849 22.4721 188.331 22.4582H188.366Z" fill="#0080E0"/>
<path d="M38.4 9.75271H41.2445L43.5698 16.6254L44.0249 18.3709H44.1956L44.6934 16.6254L47.1182 9.75271H49.9627L45.5111 22.2473H42.7378L38.4 9.75271ZM51.3565 9.75271H54.0445V22.2473H51.3565V9.75271ZM59.4774 16.4363L55.3671 9.75271H58.5742L60.7076 13.3891H60.8782L62.9262 9.75271H66.1689L62.1369 16.4363V22.2545H59.4774V16.4363ZM68.7218 9.75271H71.7938L76.3662 22.2473H73.4294L72.4907 19.4545H67.9965L67.0578 22.2473H64.128L68.7218 9.75271ZM71.6374 16.9745L70.7485 14.3563L70.3431 12.8218H70.1725L69.76 14.3563L68.8711 16.9745H71.6374ZM77.2338 9.75271H81.8418C82.4476 9.74303 83.0501 9.84654 83.6196 10.0582C84.1061 10.2469 84.5492 10.5366 84.9209 10.9091C85.28 11.2738 85.5588 11.7126 85.7387 12.1963C85.9406 12.7121 86.0444 13.2626 86.0445 13.8182C86.0491 14.2058 85.9815 14.5909 85.8454 14.9527C85.7167 15.2995 85.5395 15.6254 85.3191 15.92C85.0924 16.2263 84.8242 16.4981 84.5227 16.7273C84.2243 16.9523 83.9023 17.1426 83.5627 17.2945V17.4473L86.7556 22.0727V22.2473H83.7191L80.6258 17.7454H79.9147V22.2473H77.248L77.2338 9.75271ZM81.8418 15.2291C82.0484 15.2415 82.2554 15.2105 82.4499 15.138C82.6443 15.0654 82.8222 14.9529 82.9725 14.8073C83.1065 14.6673 83.2114 14.5011 83.2811 14.3186C83.3507 14.1362 83.3836 13.9412 83.3778 13.7454C83.3879 13.3564 83.2503 12.9784 82.9938 12.6909C82.8424 12.5401 82.6614 12.4238 82.4628 12.3499C82.2643 12.2759 82.0526 12.2459 81.8418 12.2618H79.9005V15.2291H81.8418Z" fill="#0080E0"/>
</g>
<defs>
<clipPath id="clip0">
<rect width="192" height="32" fill="white"/>
</clipPath>
</defs>
</svg>
