<svg width="86" height="69" viewBox="0 0 86 69" fill="none" xmlns="http://www.w3.org/2000/svg">
<path d="M43 0C39.7741 0 36.6207 0.938334 33.9385 2.69634C31.2562 4.45435 29.1657 6.95308 27.9312 9.87654C26.6967 12.8 26.3737 16.0169 27.0031 19.1204C27.6324 22.224 29.1858 25.0747 31.4668 27.3123C33.7479 29.5498 36.6541 31.0736 39.818 31.6909C42.9819 32.3082 46.2614 31.9914 49.2417 30.7805C52.222 29.5695 54.7694 27.5189 56.5616 24.8878C58.3538 22.2568 59.3103 19.1635 59.3103 15.9992C59.3103 13.8981 58.8885 11.8177 58.0688 9.87654C57.2491 7.93544 56.0477 6.1717 54.5332 4.68604C53.0186 3.20039 51.2206 2.0219 49.2417 1.21786C47.2628 0.41383 45.1419 0 43 0V0ZM43 30.5438C40.0674 30.5438 37.2006 29.6908 34.7622 28.0926C32.3239 26.4944 30.4234 24.2229 29.3011 21.5652C28.1788 18.9075 27.8852 15.983 28.4573 13.1616C29.0294 10.3402 30.4416 7.74862 32.5153 5.71451C34.589 3.6804 37.231 2.29515 40.1073 1.73394C42.9836 1.17273 45.9649 1.46076 48.6743 2.56162C51.3837 3.66247 53.6994 5.5267 55.3287 7.91856C56.958 10.3104 57.8276 13.1225 57.8276 15.9992C57.8276 19.8566 56.2654 23.5561 53.4847 26.2838C50.704 29.0115 46.9325 30.5438 43 30.5438ZM50.4138 18.1809H52.6379V22.5443H33.3621V18.1809H35.5862V19.6353H37.8103V18.1809H48.1897V19.6353H50.4138V18.1809ZM52.6379 9.45405V17.4536H33.3621V9.45405H39.2931V7.99958C39.2931 7.61383 39.4493 7.24388 39.7274 6.97111C40.0055 6.69835 40.3826 6.54511 40.7759 6.54511H45.2241C45.6174 6.54511 45.9945 6.69835 46.2726 6.97111C46.5507 7.24388 46.7069 7.61383 46.7069 7.99958V9.45405H52.6379ZM45.2241 7.99958H40.7759V9.45405H45.2241V7.99958Z" fill="white"/>
<path d="M8.15517 56.2225H13.3448C13.8877 56.2177 14.4272 56.3063 14.9388 56.4843C15.4047 56.6501 15.8366 56.8964 16.214 57.2116C16.5547 57.4774 16.8393 57.8059 17.0517 58.1788C17.247 58.5523 17.3487 58.9662 17.3483 59.386C17.3741 59.9965 17.1972 60.5988 16.8441 61.1023C16.5316 61.5282 16.1198 61.8748 15.6431 62.1131V62.2876C16.2732 62.499 16.827 62.8856 17.2371 63.4003C17.6325 63.9492 17.8284 64.6126 17.7931 65.2839C17.8028 65.7879 17.6883 66.2869 17.4595 66.7383C17.2437 67.1609 16.9347 67.531 16.555 67.8219C16.1442 68.1283 15.6792 68.3576 15.1834 68.4982C14.6281 68.6623 14.0508 68.7432 13.4709 68.7382H8.15517V56.2225ZM13.0631 61.1823C13.4771 61.2113 13.8879 61.0925 14.2196 60.8477C14.3584 60.7338 14.4682 60.5897 14.5403 60.4268C14.6124 60.264 14.6447 60.0869 14.6348 59.9096C14.6448 59.7313 14.6124 59.5531 14.5404 59.3891C14.4684 59.225 14.3586 59.0796 14.2196 58.9642C13.9107 58.7303 13.5271 58.6118 13.1372 58.6297H10.9131V61.1823H13.0631ZM13.3003 66.2729C14.4495 66.2729 15.0203 65.8075 15.0203 64.8766C15.0203 63.9457 14.4272 63.4803 13.2262 63.4803H10.9279V66.2729H13.3003ZM25.0809 67.6328H24.9029C24.6236 68.0726 24.2296 68.4312 23.7617 68.6715C23.2938 68.9119 22.7689 69.0253 22.2414 69C21.7801 69.0335 21.3173 68.9571 20.8926 68.7773C20.4679 68.5975 20.0938 68.3196 19.8022 67.9673C19.2378 67.1772 18.9562 66.2258 19.0015 65.262V60.1714H21.6705V64.9711C21.6554 65.3779 21.7751 65.7785 22.0115 66.1129C22.1368 66.2655 22.2982 66.3858 22.4817 66.4631C22.6652 66.5404 22.8652 66.5725 23.0643 66.5565C23.3385 66.5733 23.6123 66.5189 23.8583 66.3989C24.1043 66.2789 24.3137 66.0975 24.4655 65.8729C24.7988 65.3406 24.9615 64.7225 24.9326 64.0985V60.1714H27.6015V68.7237H25.0809V67.6328ZM32.68 68.9928C32.1386 68.9995 31.599 68.9285 31.0786 68.7819C30.653 68.6592 30.2483 68.4754 29.8776 68.2364C29.558 68.0168 29.2732 67.7522 29.0324 67.451C28.8215 67.1743 28.6494 66.871 28.5209 66.5492L30.9229 65.5529C31.0509 65.9072 31.2929 66.2109 31.6124 66.4183C31.935 66.6057 32.3053 66.6991 32.68 66.6874C32.967 66.7051 33.2537 66.6474 33.5103 66.5202C33.5948 66.4838 33.6673 66.4251 33.7197 66.3506C33.7721 66.2761 33.8023 66.1887 33.8069 66.0984C33.8086 66.0019 33.7824 65.9069 33.7312 65.8245C33.68 65.7421 33.606 65.6756 33.5177 65.6329C33.2346 65.4925 32.9326 65.3921 32.6207 65.3348L31.4271 65.0875C31.1262 65.0265 30.8329 64.9339 30.5522 64.8112C30.2569 64.6807 29.9823 64.5092 29.7367 64.3021C29.4867 64.1018 29.2801 63.8545 29.1288 63.5749C28.9758 63.2648 28.902 62.9228 28.9138 62.5785C28.9112 62.1912 29.0054 61.8092 29.1881 61.4659C29.3714 61.1363 29.6242 60.8487 29.9295 60.6223C30.2749 60.3786 30.6614 60.1964 31.0712 60.0841C31.5381 59.9493 32.0228 59.8831 32.5095 59.8878C33.3145 59.8683 34.1134 60.03 34.8448 60.3605C35.5137 60.6806 36.0408 61.2286 36.3276 61.9022L34.0293 62.8258C33.8925 62.5428 33.6663 62.3108 33.3843 62.164C33.1233 62.0298 32.8338 61.9576 32.5391 61.9531C32.2823 61.9456 32.0276 62.0006 31.7978 62.1131C31.7179 62.1439 31.6488 62.1966 31.5988 62.265C31.5489 62.3334 31.5201 62.4145 31.516 62.4985C31.5211 62.5842 31.5511 62.6667 31.6023 62.7362C31.6535 62.8058 31.7239 62.8596 31.8052 62.8913C32.0432 62.9998 32.2915 63.085 32.5465 63.1458L33.9033 63.4585C34.6544 63.5972 35.3477 63.9486 35.8976 64.4694C36.2404 64.8327 36.4606 65.291 36.5283 65.7816C36.596 66.2722 36.5077 66.7714 36.2757 67.211C36.0938 67.5643 35.8418 67.8783 35.5343 68.1346C35.1702 68.416 34.7587 68.6326 34.3184 68.7746C33.7893 68.9403 33.2352 69.0165 32.68 69V68.9928ZM39.1077 59.3569C38.8809 59.3592 38.6561 59.3146 38.4479 59.226C38.2521 59.1424 38.0736 59.0241 37.9215 58.8769C37.7699 58.7291 37.649 58.5537 37.5657 58.3606C37.4753 58.159 37.4298 57.9408 37.4322 57.7206C37.4314 57.5006 37.4768 57.2827 37.5657 57.0806C37.649 56.8853 37.7698 56.7076 37.9215 56.557C38.0736 56.4099 38.2521 56.2915 38.4479 56.208C38.6542 56.1216 38.8761 56.077 39.1003 56.077C39.3246 56.077 39.5465 56.1216 39.7528 56.208C39.9523 56.2888 40.1337 56.4074 40.2864 56.5572C40.4391 56.707 40.5601 56.8849 40.6424 57.0806C40.7313 57.2827 40.7767 57.5006 40.7759 57.7206C40.7783 57.9408 40.7328 58.159 40.6424 58.3606C40.5591 58.5537 40.4382 58.7291 40.2865 58.8769C40.1331 59.0258 39.9519 59.1443 39.7528 59.226C39.5497 59.3149 39.3301 59.3619 39.1077 59.3642V59.3569ZM37.8103 68.7237V60.1714H40.4793V68.7237H37.8103ZM44.6014 61.2477H44.7793C45.0602 60.8082 45.4557 60.4503 45.925 60.2112C46.3943 59.9721 46.9202 59.8604 47.4483 59.8878C47.9085 59.8542 48.3702 59.9307 48.7937 60.1105C49.2172 60.2904 49.59 60.5683 49.88 60.9204C50.4445 61.7106 50.726 62.662 50.6807 63.6258V68.7164H48.0117V63.9239C48.029 63.5157 47.912 63.1129 47.6781 62.7749C47.5512 62.6242 47.3895 62.5053 47.2064 62.4281C47.0233 62.351 46.8241 62.3178 46.6253 62.3313C46.3548 62.3184 46.0855 62.3746 45.8438 62.4944C45.6021 62.6143 45.3962 62.7936 45.2464 63.0149C44.9121 63.5494 44.7493 64.1702 44.7793 64.7966V68.7237H42.1103V60.1714H44.6014V61.2477ZM60.5633 66.6438C60.1486 67.3505 59.5565 67.9413 58.8433 68.3601C58.0811 68.7937 57.2107 69.0103 56.33 68.9855C55.6858 68.9908 55.0465 68.8748 54.4469 68.6437C53.8936 68.4248 53.3897 68.1011 52.9641 67.691C52.5321 67.2789 52.1914 66.7837 51.9633 66.2365C51.7211 65.6602 51.6001 65.0418 51.6074 64.4184C51.6042 63.8143 51.7253 63.2158 51.9633 62.6585C52.1941 62.1163 52.5289 61.6226 52.9493 61.2041C53.3759 60.7878 53.879 60.4547 54.4321 60.2223C55.0111 59.9718 55.6379 59.8454 56.2707 59.8514C56.9259 59.838 57.577 59.9568 58.1834 60.2005C58.7074 60.4174 59.1777 60.7423 59.5624 61.1532C59.9359 61.5631 60.2209 62.0431 60.4002 62.564C60.5896 63.1245 60.6848 63.7116 60.6819 64.3021C60.6819 64.3966 60.6819 64.4912 60.6819 64.5857C60.6869 64.6656 60.6869 64.7458 60.6819 64.8257C60.6819 64.9057 60.6819 64.9857 60.6819 65.0511H54.1948C54.2368 65.2974 54.3294 65.5328 54.4671 65.7428C54.6047 65.9528 54.7845 66.1332 54.9955 66.2729C55.3955 66.5317 55.8657 66.666 56.3448 66.6583C56.7798 66.6752 57.2103 66.5665 57.5829 66.3456C57.8905 66.1395 58.1444 65.8655 58.3243 65.5457L60.5633 66.6438ZM58.1983 63.313C58.1681 63.152 58.1105 62.9971 58.0277 62.8549C57.9324 62.6863 57.8069 62.536 57.6571 62.4113C57.4796 62.2684 57.2792 62.1553 57.064 62.0768C56.8267 61.9902 56.5757 61.9459 56.3226 61.9458C55.91 61.9452 55.5069 62.0669 55.166 62.2949C54.7999 62.5432 54.5245 62.9 54.3802 63.313H58.1983ZM65.4712 69C64.9297 69.0078 64.39 68.9368 63.8698 68.7891C63.4431 68.6694 63.0379 68.4854 62.6688 68.2437C62.346 68.028 62.0606 67.7628 61.8236 67.4583C61.6077 67.1835 61.4329 66.8798 61.3046 66.5565L63.7067 65.5602C63.8376 65.915 64.0821 66.2186 64.4036 66.4256C64.7262 66.613 65.0965 66.7064 65.4712 66.6947C65.7558 66.7125 66.0401 66.6547 66.2941 66.5274C66.3797 66.4925 66.4531 66.4342 66.5057 66.3594C66.5583 66.2845 66.5878 66.1965 66.5907 66.1056C66.5924 66.0091 66.5662 65.9142 66.515 65.8318C66.4638 65.7494 66.3898 65.6829 66.3015 65.6402C66.0164 65.4966 65.7119 65.3937 65.3971 65.3348L64.2034 65.0875C63.905 65.0265 63.6141 64.9338 63.336 64.8112C63.0384 64.6808 62.7613 64.5094 62.5131 64.3021C62.2654 64.1015 62.0612 63.8542 61.9126 63.5749C61.7511 63.2722 61.6695 62.9346 61.6753 62.5931C61.6716 62.2048 61.7685 61.8219 61.9571 61.4804C62.1358 61.1477 62.3893 60.8592 62.6984 60.6368C63.0404 60.3919 63.4247 60.2096 63.8327 60.0987C64.314 59.9597 64.814 59.8935 65.3155 59.9023C66.1175 59.8814 66.9138 60.0406 67.6434 60.3678C68.3123 60.6878 68.8394 61.2359 69.1262 61.9095L66.8353 62.8331C66.6966 62.549 66.4677 62.3168 66.1829 62.1713C65.8945 62.0168 65.5699 61.9391 65.2414 61.9458C64.9846 61.9384 64.7299 61.9933 64.5 62.1058C64.4153 62.1315 64.3412 62.1832 64.2885 62.2532C64.2359 62.3232 64.2075 62.4079 64.2075 62.4949C64.2075 62.5819 64.2359 62.6666 64.2885 62.7366C64.3412 62.8066 64.4153 62.8583 64.5 62.884C64.7377 62.9932 64.9861 63.0785 65.2414 63.1385L66.5907 63.4512C67.3424 63.5883 68.0361 63.94 68.585 64.4621C68.9293 64.8249 69.1494 65.2842 69.2145 65.7758C69.2797 66.2674 69.1866 66.7666 68.9483 67.2038C68.7689 67.5586 68.5164 67.873 68.2069 68.1273C67.8446 68.4072 67.4358 68.6237 66.9984 68.7673C66.493 68.9264 65.9649 69.0049 65.4341 69H65.4712ZM74.0564 69C73.5149 69.0078 72.9752 68.9368 72.455 68.7891C72.0294 68.6665 71.6247 68.4827 71.254 68.2437C70.9312 68.028 70.6458 67.7628 70.4088 67.4583C70.1956 67.1817 70.0211 66.8784 69.8898 66.5565L72.2919 65.5602C72.425 65.9137 72.669 66.2167 72.9888 66.4256C73.3113 66.613 73.6817 66.7064 74.0564 66.6947C74.3433 66.7117 74.6298 66.654 74.8867 66.5274C74.9703 66.4907 75.0418 66.4317 75.0929 66.3572C75.144 66.2826 75.1727 66.1954 75.1758 66.1056C75.1774 66.0101 75.1519 65.916 75.1021 65.8338C75.0524 65.7516 74.9804 65.6846 74.8941 65.6402C74.6058 65.498 74.299 65.3952 73.9822 65.3348L72.796 65.0875C72.4923 65.0281 72.1964 64.9354 71.9138 64.8112C71.6175 64.6824 71.3426 64.5108 71.0983 64.3021C70.8483 64.1018 70.6416 63.8545 70.4903 63.5749C70.3311 63.2716 70.2521 62.9341 70.2605 62.5931C70.2545 62.2054 70.3489 61.8226 70.5348 61.4804C70.7182 61.1508 70.9709 60.8633 71.2762 60.6368C71.62 60.3904 72.007 60.208 72.4179 60.0987C72.8848 59.9638 73.3695 59.8977 73.8562 59.9023C74.6583 59.8806 75.4547 60.0399 76.1841 60.3678C76.8521 60.6889 77.3789 61.2366 77.6669 61.9095L75.3686 62.8331C75.2299 62.549 75.001 62.3168 74.7162 62.1713C74.4559 62.0353 74.166 61.9629 73.871 61.9604C73.6141 61.9517 73.3591 62.0067 73.1296 62.1204C73.0449 62.1461 72.9708 62.1977 72.9182 62.2677C72.8655 62.3378 72.8371 62.4225 72.8371 62.5095C72.8371 62.5964 72.8655 62.6812 72.9182 62.7512C72.9708 62.8212 73.0449 62.8728 73.1296 62.8985C73.3671 63.0082 73.6156 63.0935 73.871 63.1531L75.2203 63.4658C75.972 63.6029 76.6658 63.9545 77.2146 64.4766C77.5596 64.8387 77.7819 65.2966 77.8509 65.7875C77.9199 66.2784 77.8323 66.7782 77.6002 67.2183C77.4067 67.5765 77.139 67.8911 76.8143 68.1419C76.453 68.4233 76.0439 68.6399 75.6059 68.7819C75.0928 68.9395 74.5568 69.0132 74.0193 69H74.0564Z" fill="white"/>
<path d="M63.8402 41.2051C63.6522 41.0159 63.428 40.8652 63.1803 40.7615C62.9001 40.641 62.5966 40.5815 62.2907 40.587H59.8367V44.4777H62.2759C62.581 44.4824 62.8838 44.4254 63.1655 44.3104C63.416 44.2118 63.6412 44.0604 63.8253 43.8668C64.0016 43.6864 64.1401 43.474 64.2331 43.2414C64.3321 43.0113 64.3826 42.7639 64.3814 42.5141C64.3812 42.2645 64.3308 42.0174 64.2331 41.7869C64.1418 41.5698 64.0084 41.3722 63.8402 41.2051Z" fill="white"/>
<path d="M79.5278 44.8995C79.2877 44.6689 79.0062 44.484 78.6974 44.354C78.3943 44.2301 78.0694 44.1659 77.741 44.1649C77.4103 44.1659 77.0829 44.2301 76.7773 44.354C76.4594 44.4848 76.1712 44.6762 75.9294 44.9172C75.6876 45.1581 75.497 45.4438 75.3686 45.7576C75.0918 46.5095 75.0918 47.3328 75.3686 48.0847C75.497 48.3985 75.6876 48.6842 75.9294 48.9252C76.1712 49.1661 76.4594 49.3575 76.7773 49.4883C77.0829 49.6122 77.4103 49.6764 77.741 49.6774C78.0694 49.6764 78.3943 49.6122 78.6974 49.4883C79.0062 49.3583 79.2877 49.1734 79.5278 48.9429C79.7801 48.7 79.9772 48.4076 80.1061 48.0847C80.3926 47.3345 80.3926 46.5078 80.1061 45.7576C79.9772 45.4347 79.7801 45.1423 79.5278 44.8995Z" fill="white"/>
<path d="M53.3793 36.3617V53.8153H86V36.3617H53.3793ZM66.0717 44.085C65.862 44.5465 65.5565 44.9602 65.1747 45.2994C64.7857 45.6397 64.3357 45.906 63.8476 46.0848C63.3323 46.27 62.7875 46.3636 62.2388 46.3612H59.8367V51.1973H57.8276V38.7034H62.2759C62.8249 38.6973 63.3704 38.791 63.8846 38.9798C64.3728 39.1586 64.8228 39.425 65.2117 39.7652C65.5935 40.1045 65.899 40.5181 66.1088 40.9797C66.3288 41.4688 66.4424 41.9976 66.4424 42.5323C66.4424 43.067 66.3288 43.5958 66.1088 44.085H66.0717ZM72.2548 44.2959C72.0638 44.2639 71.8703 44.2493 71.6765 44.2522C71.3742 44.2501 71.0752 44.3147 70.8017 44.4413C70.2509 44.7151 69.8288 45.1865 69.6229 45.7576C69.5094 46.0679 69.4517 46.3951 69.4524 46.7248V51.1973H67.4655V42.645H69.3338V43.9395H69.4376C69.5504 43.7106 69.6979 43.4998 69.875 43.3141C70.0604 43.1261 70.2697 42.9624 70.4977 42.8268C70.7331 42.6917 70.9814 42.5796 71.2391 42.4923C71.478 42.4129 71.7283 42.3712 71.9805 42.3687C72.2297 42.3629 72.4788 42.3873 72.7219 42.4414C72.912 42.4951 73.0959 42.5682 73.2705 42.6596L72.6996 44.4268C72.5578 44.3643 72.4083 44.3203 72.2548 44.2959ZM81.9521 48.7247C81.7419 49.2671 81.4215 49.7619 81.0105 50.1792C80.6017 50.5889 80.1124 50.9129 79.5722 51.1319C78.3802 51.5872 77.0574 51.5872 75.8653 51.1319C75.3384 50.9087 74.8621 50.5848 74.4641 50.1792C74.0556 49.76 73.7356 49.2657 73.5226 48.7247C73.0662 47.554 73.0662 46.2593 73.5226 45.0885C73.7356 44.5476 74.0556 44.0533 74.4641 43.6341C74.873 43.2244 75.3622 42.9003 75.9024 42.6814C77.0944 42.2261 78.4173 42.2261 79.6093 42.6814C80.1362 42.9045 80.6126 43.2284 81.0105 43.6341C81.4215 44.0513 81.7419 44.5462 81.9521 45.0885C82.4084 46.2593 82.4084 47.554 81.9521 48.7247Z" fill="white"/>
<path d="M0 38.8416H2.96552L5.41207 45.7139L5.88655 47.4593H6.06448L6.58345 45.7139L9.11155 38.8416H12.0771L7.41379 51.3354H4.52241L0 38.8416ZM13.5079 38.8416H16.3103V51.3354H13.5079V38.8416ZM21.9745 45.5248L17.6893 38.8416H21.0329L23.2571 42.4777H23.435L25.5702 38.8416H28.9509L24.7472 45.5248V51.3427H21.9745V45.5248ZM31.6124 38.8416H34.8152L39.5822 51.3354H36.4981L35.5195 48.5429H30.8562L29.8776 51.3354H26.8231L31.6124 38.8416ZM34.6521 46.063L33.7253 43.445L33.3028 41.9105H33.1248L32.6948 43.445L31.7681 46.063H34.6521ZM40.4867 38.8416H45.2909C45.9225 38.8319 46.5506 38.9354 47.1443 39.147C47.6516 39.3357 48.1135 39.6254 48.501 39.9979C48.8754 40.3625 49.166 40.8014 49.3536 41.2851C49.5642 41.8008 49.6724 42.3512 49.6724 42.9068C49.6772 43.2945 49.6068 43.6795 49.4648 44.0413C49.334 44.3822 49.1543 44.703 48.931 44.994C48.6912 45.3064 48.4065 45.5832 48.0859 45.8157C47.7748 46.0408 47.4391 46.231 47.085 46.383V46.5357L50.4138 51.1609V51.3354H47.2481L44.0231 46.8339H43.2447V51.3354H40.4645L40.4867 38.8416ZM45.2909 44.3176C45.5063 44.3301 45.7221 44.2991 45.9248 44.2265C46.1275 44.154 46.313 44.0414 46.4697 43.8958C46.6093 43.7559 46.7188 43.5897 46.7914 43.4073C46.864 43.2248 46.8983 43.0299 46.8922 42.8341C46.9028 42.445 46.7593 42.0671 46.4919 41.7796C46.3341 41.6288 46.1454 41.5125 45.9383 41.4386C45.7313 41.3646 45.5106 41.3346 45.2909 41.3505H43.2447V44.3176H45.2909Z" fill="white"/>
</svg>
