<svg width="270" height="44" viewBox="0 0 270 44" fill="none" xmlns="http://www.w3.org/2000/svg">
<path d="M22 0C17.6488 0 13.3953 1.29028 9.77746 3.70767C6.15958 6.12506 3.33979 9.56099 1.67466 13.581C0.00953233 17.6009 -0.426141 22.0244 0.422734 26.292C1.27161 30.5596 3.36691 34.4796 6.44366 37.5564C9.52042 40.6331 13.4404 42.7284 17.708 43.5773C21.9756 44.4261 26.3991 43.9905 30.419 42.3253C34.439 40.6602 37.875 37.8404 40.2923 34.2225C42.7097 30.6047 44 26.3512 44 22C44 16.1652 41.6822 10.5695 37.5564 6.44365C33.4306 2.31785 27.8348 0 22 0V0ZM22 42C18.0444 42 14.1776 40.827 10.8886 38.6294C7.59962 36.4318 5.03617 33.3082 3.52242 29.6537C2.00867 25.9991 1.6126 21.9778 2.3843 18.0982C3.15601 14.2186 5.06082 10.6549 7.85787 7.85786C10.6549 5.06081 14.2186 3.156 18.0982 2.38429C21.9778 1.61259 25.9992 2.00866 29.6537 3.52241C33.3082 5.03616 36.4318 7.59961 38.6294 10.8886C40.827 14.1776 42 18.0444 42 22C42 27.3043 39.8929 32.3914 36.1421 36.1421C32.3914 39.8929 27.3043 42 22 42ZM32 25H35V31H9.00001V25H12V27H15V25H29V27H32V25ZM35 13V24H9.00001V13H17V11C17 10.4696 17.2107 9.96086 17.5858 9.58579C17.9609 9.21071 18.4696 9 19 9H25C25.5304 9 26.0392 9.21071 26.4142 9.58579C26.7893 9.96086 27 10.4696 27 11V13H35ZM25 11H19V13H25V11Z" fill="#0080E0"/>
<path d="M140.11 16.66C139.857 16.3999 139.554 16.1926 139.22 16.05C138.842 15.8844 138.433 15.8025 138.02 15.81H134.71V21.16H138C138.412 21.1665 138.82 21.0882 139.2 20.93C139.538 20.7945 139.842 20.5862 140.09 20.32C140.328 20.072 140.515 19.7799 140.64 19.46C140.774 19.1436 140.842 18.8034 140.84 18.46C140.84 18.1168 140.772 17.777 140.64 17.46C140.517 17.1615 140.337 16.8898 140.11 16.66Z" fill="#0080E0"/>
<path d="M161.27 21.74C160.946 21.423 160.566 21.1687 160.15 20.99C159.741 20.8197 159.303 20.7313 158.86 20.73C158.414 20.7313 157.972 20.8196 157.56 20.99C157.131 21.1698 156.743 21.4331 156.416 21.7644C156.09 22.0957 155.833 22.4885 155.66 22.92C155.287 23.954 155.287 25.086 155.66 26.12C155.833 26.5515 156.09 26.9443 156.416 27.2756C156.743 27.607 157.131 27.8702 157.56 28.05C157.972 28.2204 158.414 28.3087 158.86 28.31C159.303 28.3087 159.741 28.2204 160.15 28.05C160.566 27.8713 160.946 27.617 161.27 27.3C161.61 26.9661 161.876 26.564 162.05 26.12C162.437 25.0884 162.437 23.9517 162.05 22.92C161.876 22.4761 161.61 22.0739 161.27 21.74Z" fill="#0080E0"/>
<path d="M126 10V34H170V10H126ZM143.12 20.62C142.837 21.2547 142.425 21.8235 141.91 22.29C141.385 22.7578 140.778 23.1241 140.12 23.37C139.425 23.6246 138.69 23.7532 137.95 23.75H134.71V30.4H132V13.22H138C138.741 13.2116 139.476 13.3405 140.17 13.6C140.828 13.8459 141.435 14.2122 141.96 14.68C142.475 15.1465 142.887 15.7153 143.17 16.35C143.467 17.0227 143.62 17.7498 143.62 18.485C143.62 19.2202 143.467 19.9473 143.17 20.62H143.12ZM151.46 20.91C151.202 20.8661 150.941 20.846 150.68 20.85C150.272 20.8471 149.869 20.936 149.5 21.11C148.757 21.4865 148.188 22.1347 147.91 22.92C147.757 23.3466 147.679 23.7967 147.68 24.25V30.4H145V18.64H147.52V20.42H147.66C147.812 20.1052 148.011 19.8153 148.25 19.56C148.5 19.3015 148.782 19.0764 149.09 18.89C149.407 18.7041 149.742 18.5501 150.09 18.43C150.412 18.3209 150.75 18.2635 151.09 18.26C151.426 18.252 151.762 18.2856 152.09 18.36C152.346 18.4338 152.595 18.5344 152.83 18.66L152.06 21.09C151.869 21.0042 151.667 20.9436 151.46 20.91ZM164.54 27C164.256 27.7458 163.824 28.4262 163.27 29C162.719 29.5633 162.059 30.009 161.33 30.31C159.722 30.9361 157.938 30.9361 156.33 30.31C155.619 30.0031 154.977 29.5578 154.44 29C153.889 28.4235 153.457 27.7438 153.17 27C152.554 25.3902 152.554 23.6098 153.17 22C153.457 21.2562 153.889 20.5765 154.44 20C154.991 19.4367 155.651 18.991 156.38 18.69C157.988 18.0639 159.772 18.0639 161.38 18.69C162.091 18.9969 162.733 19.4422 163.27 20C163.824 20.5738 164.256 21.2542 164.54 22C165.156 23.6098 165.156 25.3902 164.54 27Z" fill="#0080E0"/>
<path d="M176 13.31H183C183.732 13.3033 184.46 13.4252 185.15 13.67C185.778 13.898 186.361 14.2367 186.87 14.67C187.33 15.0355 187.714 15.4873 188 16C188.263 16.5136 188.401 17.0827 188.4 17.66C188.435 18.4995 188.196 19.3277 187.72 20.02C187.298 20.6058 186.743 21.0823 186.1 21.41V21.65C186.95 21.9406 187.697 22.4722 188.25 23.18C188.785 23.92 189.06 24.817 189.03 25.73C189.043 26.4231 188.889 27.1092 188.58 27.73C188.289 28.311 187.872 28.82 187.36 29.22C186.806 29.6413 186.179 29.9566 185.51 30.15C184.761 30.3756 183.982 30.4869 183.2 30.48H176V13.31ZM182.62 20.13C183.178 20.1699 183.733 20.0065 184.18 19.67C184.367 19.5133 184.515 19.3151 184.613 19.0912C184.71 18.8673 184.753 18.6237 184.74 18.38C184.753 18.1348 184.71 17.8898 184.613 17.6642C184.515 17.4387 184.367 17.2387 184.18 17.08C183.763 16.7584 183.246 16.5954 182.72 16.62H179.72V20.13H182.62ZM182.94 27.13C184.49 27.13 185.26 26.49 185.26 25.21C185.26 23.93 184.46 23.29 182.84 23.29H179.74V27.13H182.94ZM198.83 29H198.59C198.211 29.6044 197.678 30.0964 197.045 30.4252C196.412 30.754 195.702 30.9076 194.99 30.87C194.368 30.916 193.744 30.811 193.171 30.5637C192.598 30.3165 192.093 29.9344 191.7 29.45C190.939 28.3635 190.559 27.0553 190.62 25.73V18.73H194.22V25.33C194.2 25.8893 194.361 26.4401 194.68 26.9C194.849 27.1099 195.067 27.2752 195.314 27.3815C195.562 27.4879 195.832 27.532 196.1 27.51C196.465 27.5277 196.828 27.4504 197.154 27.2857C197.48 27.1209 197.758 26.8743 197.96 26.57C198.41 25.8381 198.629 24.9881 198.59 24.13V18.73H202.19V30.5H198.83V29ZM209.08 30.87C208.35 30.8793 207.622 30.7816 206.92 30.58C206.346 30.4113 205.8 30.1586 205.3 29.83C204.869 29.528 204.485 29.1641 204.16 28.75C203.875 28.3695 203.643 27.9524 203.47 27.51L206.71 26.14C206.883 26.6271 207.209 27.0448 207.64 27.33C208.075 27.5877 208.575 27.716 209.08 27.7C209.467 27.7243 209.854 27.6449 210.2 27.47C210.314 27.42 210.412 27.3393 210.482 27.2368C210.553 27.1344 210.594 27.0143 210.6 26.89C210.602 26.7573 210.567 26.6267 210.498 26.5134C210.429 26.4001 210.329 26.3087 210.21 26.25C209.825 26.0525 209.415 25.9111 208.99 25.83L207.38 25.49C206.974 25.4061 206.579 25.2787 206.2 25.11C205.802 24.9306 205.431 24.6948 205.1 24.41C204.763 24.1346 204.484 23.7946 204.28 23.41C204.07 22.9914 203.964 22.5283 203.97 22.06C203.967 21.5274 204.094 21.0021 204.34 20.53C204.587 20.0768 204.928 19.6814 205.34 19.37C205.806 19.0349 206.327 18.7844 206.88 18.63C207.51 18.4446 208.164 18.3536 208.82 18.36C209.915 18.3254 211.003 18.5445 212 19C212.902 19.4401 213.613 20.1938 214 21.12L210.9 22.39C210.716 22.0009 210.41 21.6818 210.03 21.48C209.678 21.2955 209.287 21.1961 208.89 21.19C208.544 21.1797 208.2 21.2553 207.89 21.41C207.782 21.4523 207.689 21.5248 207.622 21.6189C207.554 21.7129 207.515 21.8244 207.51 21.94C207.517 22.0578 207.557 22.1712 207.626 22.2668C207.695 22.3625 207.79 22.4364 207.9 22.48C208.221 22.6292 208.556 22.7464 208.9 22.83L210.73 23.26C211.743 23.4508 212.678 23.934 213.42 24.65C213.882 25.1497 214.179 25.7798 214.271 26.4544C214.362 27.129 214.243 27.8154 213.93 28.42C213.67 28.9103 213.313 29.3425 212.88 29.69C212.389 30.0769 211.834 30.3747 211.24 30.57C210.542 30.7923 209.812 30.897 209.08 30.88V30.87ZM217.75 17.62C217.444 17.6231 217.141 17.5618 216.86 17.44C216.596 17.3251 216.355 17.1623 216.15 16.96C215.945 16.7567 215.782 16.5156 215.67 16.25C215.548 15.9728 215.487 15.6728 215.49 15.37C215.489 15.0674 215.55 14.7678 215.67 14.49C215.782 14.2214 215.945 13.977 216.15 13.77C216.355 13.5676 216.596 13.4049 216.86 13.29C217.138 13.1712 217.438 13.1099 217.74 13.1099C218.042 13.1099 218.342 13.1712 218.62 13.29C218.889 13.4011 219.134 13.5643 219.34 13.7702C219.546 13.9762 219.709 14.2208 219.82 14.49C219.94 14.7678 220.001 15.0674 220 15.37C220.003 15.6728 219.942 15.9728 219.82 16.25C219.708 16.5156 219.545 16.7567 219.34 16.96C219.133 17.1647 218.889 17.3276 218.62 17.44C218.346 17.5622 218.05 17.6269 217.75 17.63V17.62ZM216 30.5V18.74H219.6V30.5H216ZM225.16 20.22H225.4C225.779 19.6156 226.312 19.1236 226.945 18.7948C227.578 18.466 228.288 18.3124 229 18.35C229.621 18.3039 230.244 18.409 230.815 18.6563C231.386 18.9036 231.889 19.2858 232.28 19.77C233.041 20.8565 233.421 22.1647 233.36 23.49V30.49H229.76V23.9C229.783 23.3387 229.626 22.7848 229.31 22.32C229.139 22.1127 228.921 21.9493 228.674 21.8432C228.427 21.7371 228.158 21.6914 227.89 21.71C227.525 21.6923 227.162 21.7696 226.836 21.9343C226.51 22.0991 226.232 22.3457 226.03 22.65C225.579 23.385 225.36 24.2386 225.4 25.1V30.5H221.8V18.74H225.16V20.22ZM246.69 27.64C246.131 28.6117 245.332 29.4242 244.37 30C243.342 30.5963 242.168 30.8942 240.98 30.86C240.111 30.8673 239.249 30.7077 238.44 30.39C237.694 30.0891 237.014 29.6439 236.44 29.08C235.857 28.5133 235.398 27.8324 235.09 27.08C234.763 26.2874 234.6 25.4371 234.61 24.58C234.606 23.7493 234.769 22.9262 235.09 22.16C235.401 21.4144 235.853 20.7355 236.42 20.16C236.995 19.5876 237.674 19.1295 238.42 18.81C239.201 18.4655 240.046 18.2916 240.9 18.3C241.784 18.2815 242.662 18.4449 243.48 18.78C244.187 19.0783 244.821 19.525 245.34 20.09C245.844 20.6537 246.228 21.3137 246.47 22.03C246.726 22.8008 246.854 23.608 246.85 24.42C246.85 24.55 246.85 24.68 246.85 24.81C246.857 24.9199 246.857 25.0301 246.85 25.14C246.85 25.25 246.85 25.36 246.85 25.45H238.1C238.157 25.7887 238.282 26.1122 238.467 26.4011C238.653 26.6899 238.895 26.9379 239.18 27.13C239.719 27.4858 240.354 27.6706 241 27.66C241.587 27.6832 242.167 27.5337 242.67 27.23C243.085 26.9466 243.427 26.5699 243.67 26.13L246.69 27.64ZM243.5 23.06C243.459 22.8385 243.382 22.6255 243.27 22.43C243.141 22.1982 242.972 21.9915 242.77 21.82C242.531 21.6235 242.26 21.468 241.97 21.36C241.65 21.241 241.311 21.18 240.97 21.18C240.413 21.1791 239.87 21.3464 239.41 21.66C238.916 22.0014 238.545 22.4921 238.35 23.06H243.5ZM253.31 30.88C252.58 30.8908 251.852 30.793 251.15 30.59C250.574 30.4254 250.028 30.1724 249.53 29.84C249.095 29.5433 248.71 29.1787 248.39 28.76C248.099 28.3822 247.863 27.9646 247.69 27.52L250.93 26.15C251.106 26.6378 251.436 27.0553 251.87 27.34C252.305 27.5977 252.805 27.726 253.31 27.71C253.694 27.7345 254.077 27.655 254.42 27.48C254.535 27.432 254.634 27.3518 254.705 27.2489C254.776 27.146 254.816 27.0249 254.82 26.9C254.822 26.7673 254.787 26.6367 254.718 26.5234C254.649 26.4101 254.549 26.3187 254.43 26.26C254.045 26.0625 253.635 25.9211 253.21 25.84L251.6 25.5C251.197 25.4161 250.805 25.2886 250.43 25.12C250.029 24.9408 249.655 24.7051 249.32 24.42C248.986 24.1442 248.71 23.8041 248.51 23.42C248.292 23.0038 248.182 22.5397 248.19 22.07C248.185 21.536 248.316 21.0095 248.57 20.54C248.811 20.0825 249.153 19.6858 249.57 19.38C250.031 19.0432 250.55 18.7925 251.1 18.64C251.749 18.4489 252.423 18.3579 253.1 18.37C254.182 18.3412 255.256 18.5602 256.24 19.01C257.142 19.4501 257.853 20.2038 258.24 21.13L255.15 22.4C254.963 22.0094 254.654 21.69 254.27 21.49C253.918 21.3055 253.527 21.2061 253.13 21.2C252.784 21.1897 252.44 21.2653 252.13 21.42C252.016 21.4553 251.916 21.5263 251.845 21.6226C251.774 21.7189 251.735 21.8354 251.735 21.955C251.735 22.0746 251.774 22.1911 251.845 22.2874C251.916 22.3836 252.016 22.4546 252.13 22.49C252.451 22.6401 252.786 22.7574 253.13 22.84L254.95 23.27C255.964 23.4585 256.9 23.942 257.64 24.66C258.108 25.1567 258.408 25.7872 258.5 26.4632C258.591 27.1392 258.469 27.8269 258.15 28.43C257.862 28.9253 257.47 29.3519 257 29.68C256.511 30.0649 255.96 30.3625 255.37 30.56C254.688 30.7787 253.976 30.8867 253.26 30.88H253.31ZM264.89 30.88C264.16 30.8908 263.432 30.793 262.73 30.59C262.156 30.4213 261.61 30.1686 261.11 29.84C260.675 29.5433 260.29 29.1787 259.97 28.76C259.682 28.3797 259.447 27.9627 259.27 27.52L262.51 26.15C262.69 26.6361 263.019 27.0527 263.45 27.34C263.885 27.5977 264.385 27.726 264.89 27.71C265.277 27.7334 265.663 27.654 266.01 27.48C266.123 27.4295 266.219 27.3484 266.288 27.2459C266.357 27.1433 266.396 27.0235 266.4 26.9C266.402 26.7686 266.368 26.6392 266.301 26.5262C266.234 26.4132 266.136 26.3211 266.02 26.26C265.631 26.0644 265.217 25.9231 264.79 25.84L263.19 25.5C262.784 25.4176 262.388 25.2902 262.01 25.12C261.61 24.943 261.24 24.707 260.91 24.42C260.573 24.1446 260.294 23.8046 260.09 23.42C259.875 23.0031 259.769 22.5389 259.78 22.07C259.772 21.5369 259.899 21.0105 260.15 20.54C260.397 20.0868 260.738 19.6914 261.15 19.38C261.614 19.0411 262.136 18.7903 262.69 18.64C263.32 18.4546 263.974 18.3636 264.63 18.37C265.712 18.3402 266.786 18.5591 267.77 19.01C268.671 19.4516 269.382 20.2048 269.77 21.13L266.67 22.4C266.483 22.0094 266.174 21.69 265.79 21.49C265.439 21.3029 265.048 21.2034 264.65 21.2C264.303 21.188 263.96 21.2637 263.65 21.42C263.536 21.4553 263.436 21.5263 263.365 21.6226C263.294 21.7189 263.255 21.8354 263.255 21.955C263.255 22.0746 263.294 22.1911 263.365 22.2874C263.436 22.3836 263.536 22.4546 263.65 22.49C263.97 22.6409 264.305 22.7582 264.65 22.84L266.47 23.27C267.484 23.4585 268.42 23.942 269.16 24.66C269.625 25.1578 269.925 25.7875 270.018 26.4625C270.111 27.1375 269.993 27.8248 269.68 28.43C269.419 28.9226 269.058 29.3551 268.62 29.7C268.133 30.0869 267.581 30.3848 266.99 30.58C266.295 30.7978 265.568 30.8992 264.84 30.88H264.89Z" fill="#0080E0"/>
<path d="M54 13.41H58L61.27 22.86L61.91 25.26H62.15L62.85 22.86L66.26 13.41H70.26L64 30.59H60.1L54 13.41ZM72.22 13.41H76V30.59H72.22V13.41ZM83.64 22.6L77.86 13.41H82.37L85.37 18.41H85.61L88.49 13.41H93.05L87.38 22.6V30.6H83.64V22.6ZM96.64 13.41H100.96L107.39 30.59H103.26L101.94 26.75H95.62L94.3 30.59H90.18L96.64 13.41ZM100.74 23.34L99.49 19.74L98.92 17.63H98.68L98.1 19.74L96.85 23.34H100.74ZM108.61 13.41H115.09C115.942 13.3967 116.789 13.539 117.59 13.83C118.274 14.0895 118.897 14.4879 119.42 15C119.925 15.5014 120.317 16.1049 120.57 16.77C120.854 17.4792 121 18.2361 121 19C121.007 19.5331 120.911 20.0625 120.72 20.56C120.539 21.0369 120.29 21.4849 119.98 21.89C119.661 22.3112 119.284 22.6849 118.86 23C118.44 23.3095 117.988 23.5711 117.51 23.78V23.99L122 30.35V30.59H117.73L113.38 24.4H112.38V30.59H108.63L108.61 13.41ZM115.09 20.94C115.381 20.9571 115.672 20.9145 115.945 20.8147C116.219 20.715 116.469 20.5602 116.68 20.36C116.868 20.1676 117.016 19.939 117.114 19.6882C117.212 19.4373 117.258 19.1692 117.25 18.9C117.264 18.365 117.071 17.8454 116.71 17.45C116.497 17.2426 116.243 17.0828 115.963 16.9811C115.684 16.8794 115.386 16.8381 115.09 16.86H112.36V20.94H115.09Z" fill="#0080E0"/>
</svg>
