<svg width="228" height="38" viewBox="0 0 228 38" fill="none" xmlns="http://www.w3.org/2000/svg">
<g clip-path="url(#clip0)">
<path d="M18.5778 0C14.9034 0 11.3116 1.11433 8.25653 3.20208C5.20143 5.28982 2.82027 8.25722 1.41416 11.729C0.00804952 15.2008 -0.359852 19.0211 0.356975 22.7067C1.0738 26.3924 2.84316 29.7778 5.44131 32.435C8.03946 35.0922 11.3497 36.9018 14.9534 37.6349C18.5572 38.368 22.2925 37.9918 25.6872 36.5537C29.0818 35.1156 31.9833 32.6804 34.0246 29.5558C36.066 26.4313 37.1556 22.7578 37.1556 19C37.1556 13.9609 35.1983 9.12816 31.7143 5.56497C28.2303 2.00178 23.5049 0 18.5778 0V0ZM18.5778 36.2727C15.2375 36.2727 11.9722 35.2597 9.19482 33.3617C6.41746 31.4638 4.25277 28.7662 2.97449 25.61C1.69621 22.4538 1.36175 18.9808 2.01341 15.6303C2.66507 12.2797 4.27358 9.20197 6.63554 6.78634C8.99749 4.3707 12.0068 2.72564 15.2829 2.05916C18.5591 1.39269 21.9548 1.73475 25.0409 3.04208C28.1269 4.34941 30.7646 6.5633 32.6204 9.40379C34.4762 12.2443 35.4667 15.5838 35.4667 19C35.4667 23.581 33.6873 27.9744 30.52 31.2137C27.3528 34.4529 23.057 36.2727 18.5778 36.2727ZM27.0222 21.5909H29.5556V26.7727H7.60001V21.5909H10.1333V23.3182H12.6667V21.5909H24.4889V23.3182H27.0222V21.5909ZM29.5556 11.2273V20.7273H7.60001V11.2273H14.3556V9.5C14.3556 9.0419 14.5335 8.60256 14.8502 8.27863C15.167 7.95471 15.5965 7.77273 16.0445 7.77273H21.1111C21.559 7.77273 21.9886 7.95471 22.3053 8.27863C22.6221 8.60256 22.8 9.0419 22.8 9.5V11.2273H29.5556ZM21.1111 9.5H16.0445V11.2273H21.1111V9.5Z" fill="white"/>
<path d="M118.315 14.3882C118.101 14.1635 117.846 13.9845 117.564 13.8614C117.244 13.7183 116.899 13.6476 116.55 13.6541H113.755V18.2745H116.533C116.881 18.2801 117.226 18.2125 117.547 18.0759C117.832 17.9588 118.089 17.779 118.298 17.5491C118.499 17.3349 118.657 17.0826 118.763 16.8064C118.875 16.5331 118.933 16.2393 118.932 15.9427C118.931 15.6463 118.874 15.3528 118.763 15.0791C118.659 14.8213 118.507 14.5866 118.315 14.3882V14.3882Z" fill="white"/>
<path d="M136.184 18.7755C135.91 18.5017 135.589 18.2821 135.238 18.1277C134.893 17.9806 134.522 17.9043 134.148 17.9032C133.772 17.9043 133.399 17.9806 133.051 18.1277C132.689 18.283 132.36 18.5104 132.085 18.7965C131.81 19.0826 131.592 19.4219 131.446 19.7945C131.131 20.6875 131.131 21.6652 131.446 22.5582C131.592 22.9308 131.81 23.2701 132.085 23.5562C132.36 23.8424 132.689 24.0697 133.051 24.225C133.399 24.3722 133.772 24.4484 134.148 24.4495C134.522 24.4484 134.893 24.3721 135.238 24.225C135.589 24.0707 135.91 23.8511 136.184 23.5773C136.471 23.2889 136.695 22.9416 136.842 22.5582C137.169 21.6672 137.169 20.6855 136.842 19.7945C136.695 19.4111 136.471 19.0638 136.184 18.7755V18.7755Z" fill="white"/>
<path d="M106.4 8.63637V29.3636H143.556V8.63637H106.4ZM120.857 17.8082C120.618 18.3563 120.27 18.8475 119.835 19.2505C119.392 19.6545 118.88 19.9708 118.324 20.1832C117.737 20.403 117.116 20.5142 116.491 20.5114H113.755V26.2545H111.467V11.4173H116.533C117.159 11.4101 117.78 11.5213 118.366 11.7455C118.922 11.9579 119.434 12.2741 119.877 12.6782C120.312 13.0811 120.66 13.5723 120.899 14.1205C121.15 14.7014 121.279 15.3294 121.279 15.9643C121.279 16.5993 121.15 17.2272 120.899 17.8082H120.857ZM127.9 18.0586C127.682 18.0207 127.462 18.0034 127.241 18.0068C126.896 18.0043 126.556 18.0811 126.244 18.2314C125.617 18.5566 125.136 19.1164 124.902 19.7945C124.772 20.163 124.707 20.5517 124.708 20.9432V26.2545H122.444V16.0982H124.572V17.6355H124.691C124.819 17.3636 124.987 17.1132 125.189 16.8927C125.4 16.6695 125.638 16.475 125.898 16.3141C126.166 16.1536 126.449 16.0205 126.743 15.9168C127.015 15.8226 127.3 15.773 127.587 15.77C127.871 15.7631 128.155 15.7921 128.432 15.8564C128.648 15.9201 128.858 16.0069 129.056 16.1155L128.406 18.2141C128.245 18.14 128.074 18.0877 127.9 18.0586V18.0586ZM138.945 23.3182C138.705 23.9623 138.341 24.5499 137.872 25.0455C137.407 25.532 136.849 25.9169 136.234 26.1768C134.876 26.7175 133.37 26.7175 132.012 26.1768C131.412 25.9118 130.869 25.5272 130.416 25.0455C129.951 24.5476 129.586 23.9606 129.344 23.3182C128.824 21.9279 128.824 20.3903 129.344 19C129.586 18.3576 129.951 17.7706 130.416 17.2727C130.882 16.7862 131.439 16.4013 132.054 16.1414C133.412 15.6007 134.919 15.6007 136.276 16.1414C136.877 16.4064 137.419 16.791 137.872 17.2727C138.341 17.7683 138.705 18.3559 138.945 19C139.465 20.3903 139.465 21.9279 138.945 23.3182V23.3182Z" fill="white"/>
<path d="M148.622 11.495H154.533C155.152 11.4892 155.766 11.5945 156.349 11.8059C156.88 12.0028 157.371 12.2953 157.801 12.6695C158.189 12.9852 158.514 13.3754 158.756 13.8182C158.978 14.2618 159.094 14.7533 159.093 15.2518C159.123 15.9769 158.921 16.6921 158.519 17.29C158.163 17.7959 157.694 18.2075 157.151 18.4905V18.6977C157.869 18.9487 158.5 19.4078 158.967 20.0191C159.419 20.6582 159.651 21.4329 159.625 22.2214C159.636 22.82 159.506 23.4125 159.245 23.9486C159 24.4504 158.648 24.89 158.215 25.2355C157.747 25.5993 157.218 25.8716 156.653 26.0386C156.02 26.2335 155.363 26.3296 154.702 26.3236H148.622V11.495ZM154.212 17.385C154.684 17.4195 155.152 17.2784 155.53 16.9877C155.688 16.8524 155.813 16.6813 155.895 16.4879C155.977 16.2945 156.014 16.0842 156.003 15.8736C156.014 15.6619 155.977 15.4503 155.895 15.2555C155.813 15.0607 155.688 14.888 155.53 14.7509C155.178 14.4732 154.741 14.3324 154.297 14.3536H151.764V17.385H154.212ZM154.483 23.4305C155.792 23.4305 156.442 22.8777 156.442 21.7723C156.442 20.6668 155.766 20.1141 154.398 20.1141H151.78V23.4305H154.483ZM167.901 25.0455H167.698C167.378 25.5674 166.928 25.9924 166.393 26.2763C165.859 26.5603 165.26 26.6929 164.658 26.6605C164.133 26.7002 163.606 26.6095 163.122 26.3959C162.638 26.1824 162.212 25.8524 161.88 25.4341C161.237 24.4958 160.916 23.3659 160.968 22.2214V16.1759H164.008V21.8759C163.991 22.3589 164.127 22.8346 164.396 23.2318C164.539 23.4131 164.723 23.5559 164.932 23.6477C165.141 23.7395 165.369 23.7776 165.596 23.7586C165.904 23.774 166.21 23.7072 166.486 23.5649C166.761 23.4226 166.996 23.2096 167.166 22.9468C167.546 22.3147 167.731 21.5806 167.698 20.8395V16.1759H170.738V26.3409H167.901V25.0455ZM176.556 26.6605C175.94 26.6685 175.325 26.5841 174.732 26.41C174.248 26.2643 173.787 26.0461 173.364 25.7623C173 25.5015 172.676 25.1872 172.402 24.8295C172.161 24.5009 171.966 24.1407 171.819 23.7586L174.555 22.5755C174.701 22.9961 174.977 23.3569 175.34 23.6032C175.708 23.8257 176.13 23.9366 176.556 23.9227C176.883 23.9438 177.21 23.8752 177.502 23.7241C177.598 23.6809 177.681 23.6112 177.741 23.5227C177.8 23.4342 177.835 23.3305 177.84 23.2232C177.842 23.1086 177.812 22.9958 177.754 22.8979C177.695 22.8001 177.611 22.7212 177.511 22.6705C177.186 22.4999 176.839 22.3777 176.48 22.3077L175.121 22.0141C174.778 21.9417 174.444 21.8316 174.124 21.6859C173.788 21.5309 173.475 21.3273 173.196 21.0814C172.911 20.8435 172.675 20.5499 172.503 20.2177C172.326 19.8562 172.236 19.4563 172.241 19.0518C172.238 18.5919 172.346 18.1382 172.554 17.7305C172.763 17.339 173.05 16.9975 173.398 16.7286C173.792 16.4392 174.232 16.2229 174.699 16.0895C175.23 15.9294 175.783 15.8508 176.337 15.8564C177.262 15.8265 178.181 16.0157 179.022 16.4091C179.784 16.7892 180.384 17.4401 180.711 18.24L178.093 19.3368C177.938 19.0008 177.68 18.7252 177.359 18.5509C177.061 18.3915 176.732 18.3058 176.396 18.3005C176.103 18.2916 175.813 18.3568 175.552 18.4905C175.461 18.527 175.382 18.5896 175.325 18.6708C175.268 18.752 175.235 18.8484 175.231 18.9482C175.236 19.0499 175.271 19.1478 175.329 19.2304C175.387 19.313 175.467 19.3769 175.56 19.4145C175.831 19.5434 176.114 19.6447 176.404 19.7168L177.95 20.0882C178.805 20.2529 179.595 20.6703 180.221 21.2886C180.612 21.7202 180.863 22.2643 180.94 22.847C181.017 23.4296 180.916 24.0224 180.652 24.5445C180.432 24.968 180.131 25.3412 179.765 25.6414C179.351 25.9755 178.882 26.2327 178.38 26.4014C177.791 26.5933 177.175 26.6838 176.556 26.6691V26.6605ZM183.878 15.2173C183.619 15.22 183.363 15.167 183.126 15.0618C182.903 14.9626 182.7 14.822 182.527 14.6473C182.354 14.4717 182.216 14.2635 182.121 14.0341C182.018 13.7947 181.967 13.5356 181.969 13.2741C181.968 13.0128 182.02 12.754 182.121 12.5141C182.216 12.2822 182.354 12.071 182.527 11.8923C182.7 11.7175 182.903 11.577 183.126 11.4777C183.361 11.3751 183.614 11.3222 183.869 11.3222C184.125 11.3222 184.378 11.3751 184.612 11.4777C184.84 11.5737 185.046 11.7146 185.22 11.8925C185.394 12.0703 185.532 12.2816 185.626 12.5141C185.727 12.754 185.779 13.0128 185.778 13.2741C185.78 13.5356 185.729 13.7947 185.626 14.0341C185.531 14.2635 185.393 14.4717 185.22 14.6473C185.046 14.824 184.839 14.9648 184.612 15.0618C184.381 15.1674 184.131 15.2232 183.878 15.2259V15.2173ZM182.4 26.3409V16.1845H185.44V26.3409H182.4ZM190.135 17.4627H190.338C190.658 16.9408 191.108 16.5158 191.643 16.2318C192.177 15.9479 192.776 15.8153 193.378 15.8477C193.902 15.8079 194.428 15.8987 194.91 16.1123C195.393 16.3259 195.817 16.6559 196.148 17.0741C196.79 18.0124 197.111 19.1422 197.06 20.2868V26.3323H194.02V20.6409C194.039 20.1562 193.906 19.6778 193.64 19.2764C193.495 19.0974 193.311 18.9562 193.102 18.8646C192.894 18.7729 192.667 18.7335 192.44 18.7495C192.132 18.7342 191.826 18.801 191.55 18.9433C191.275 19.0856 191.04 19.2986 190.87 19.5614C190.489 20.1962 190.304 20.9334 190.338 21.6773V26.3409H187.298V16.1845H190.135V17.4627ZM208.316 23.8709C207.844 24.7101 207.169 25.4118 206.357 25.9091C205.489 26.4241 204.497 26.6813 203.494 26.6518C202.76 26.6581 202.032 26.5203 201.349 26.2459C200.719 25.986 200.145 25.6016 199.66 25.1145C199.168 24.6251 198.78 24.0371 198.52 23.3873C198.245 22.7028 198.107 21.9684 198.115 21.2282C198.111 20.5107 198.249 19.7999 198.52 19.1382C198.783 18.4943 199.165 17.9079 199.644 17.4109C200.129 16.9166 200.702 16.521 201.332 16.245C201.992 15.9475 202.706 15.7973 203.427 15.8045C204.173 15.7886 204.915 15.9297 205.605 16.2191C206.202 16.4767 206.738 16.8625 207.176 17.3505C207.601 17.8373 207.926 18.4073 208.13 19.0259C208.346 19.6916 208.454 20.3887 208.451 21.09C208.451 21.2023 208.451 21.3145 208.451 21.4268C208.457 21.5217 208.457 21.6169 208.451 21.7118C208.451 21.8068 208.451 21.9018 208.451 21.9795H201.062C201.11 22.272 201.216 22.5515 201.372 22.8009C201.529 23.0504 201.734 23.2646 201.974 23.4305C202.43 23.7378 202.965 23.8973 203.511 23.8882C204.007 23.9082 204.497 23.7791 204.921 23.5168C205.272 23.2721 205.561 22.9467 205.766 22.5668L208.316 23.8709ZM205.622 19.9155C205.588 19.7242 205.522 19.5403 205.428 19.3714C205.319 19.1712 205.176 18.9927 205.006 18.8445C204.804 18.6748 204.575 18.5406 204.33 18.4473C204.06 18.3445 203.774 18.2919 203.486 18.2918C203.016 18.291 202.557 18.4355 202.168 18.7064C201.751 19.0012 201.438 19.425 201.273 19.9155H205.622ZM213.906 26.6691C213.289 26.6784 212.675 26.594 212.082 26.4186C211.596 26.2765 211.135 26.058 210.714 25.7709C210.347 25.5147 210.022 25.1998 209.752 24.8382C209.506 24.5119 209.307 24.1513 209.16 23.7673L211.896 22.5841C212.045 23.0054 212.324 23.366 212.69 23.6118C213.058 23.8344 213.479 23.9452 213.906 23.9314C214.23 23.9525 214.554 23.8839 214.844 23.7327C214.941 23.6913 215.025 23.622 215.085 23.5331C215.144 23.4443 215.178 23.3397 215.181 23.2318C215.183 23.1172 215.153 23.0044 215.095 22.9066C215.037 22.8087 214.952 22.7298 214.852 22.6791C214.527 22.5085 214.18 22.3864 213.822 22.3164L212.462 22.0227C212.122 21.9502 211.791 21.8402 211.474 21.6945C211.135 21.5398 210.82 21.3362 210.537 21.09C210.255 20.8518 210.022 20.5581 209.853 20.2264C209.669 19.8669 209.576 19.4661 209.583 19.0605C209.578 18.5993 209.689 18.1446 209.904 17.7391C210.107 17.344 210.396 17.0014 210.748 16.7373C211.137 16.4464 211.575 16.2299 212.04 16.0982C212.588 15.9332 213.158 15.8545 213.729 15.865C214.642 15.8402 215.549 16.0292 216.38 16.4177C217.142 16.7978 217.743 17.4487 218.069 18.2486L215.46 19.3455C215.302 19.0081 215.041 18.7323 214.717 18.5595C214.42 18.4002 214.09 18.3144 213.754 18.3091C213.462 18.3002 213.172 18.3655 212.91 18.4991C212.813 18.5296 212.729 18.5909 212.669 18.6741C212.609 18.7572 212.577 18.8578 212.577 18.9611C212.577 19.0644 212.609 19.165 212.669 19.2482C212.729 19.3313 212.813 19.3927 212.91 19.4232C213.181 19.5529 213.463 19.6541 213.754 19.7255L215.291 20.0968C216.147 20.2596 216.937 20.6772 217.563 21.2973C217.958 21.7262 218.211 22.2707 218.289 22.8546C218.366 23.4384 218.263 24.0323 217.993 24.5532C217.75 24.981 217.419 25.3494 217.022 25.6327C216.61 25.9651 216.144 26.2222 215.646 26.3927C215.07 26.5816 214.469 26.6749 213.864 26.6691H213.906ZM223.685 26.6691C223.068 26.6784 222.453 26.594 221.861 26.4186C221.376 26.273 220.915 26.0547 220.493 25.7709C220.125 25.5147 219.8 25.1998 219.53 24.8382C219.287 24.5097 219.089 24.1496 218.939 23.7673L221.675 22.5841C221.827 23.0039 222.105 23.3637 222.469 23.6118C222.836 23.8344 223.258 23.9452 223.685 23.9314C224.012 23.9516 224.338 23.883 224.631 23.7327C224.726 23.6891 224.807 23.6191 224.865 23.5305C224.924 23.442 224.956 23.3385 224.96 23.2318C224.962 23.1183 224.933 23.0066 224.876 22.909C224.819 22.8114 224.737 22.7318 224.639 22.6791C224.311 22.5102 223.961 22.3881 223.6 22.3164L222.249 22.0227C221.906 21.9516 221.572 21.8415 221.253 21.6945C220.915 21.5417 220.602 21.3379 220.324 21.09C220.039 20.8521 219.804 20.5585 219.632 20.2264C219.45 19.8663 219.36 19.4654 219.37 19.0605C219.363 18.6001 219.47 18.1454 219.682 17.7391C219.891 17.3477 220.179 17.0062 220.527 16.7373C220.918 16.4446 221.359 16.228 221.827 16.0982C222.359 15.9381 222.911 15.8595 223.465 15.865C224.379 15.8393 225.286 16.0284 226.117 16.4177C226.878 16.7991 227.478 17.4496 227.806 18.2486L225.188 19.3455C225.03 19.0081 224.769 18.7323 224.445 18.5595C224.148 18.398 223.818 18.3121 223.482 18.3091C223.19 18.2987 222.899 18.3641 222.638 18.4991C222.541 18.5296 222.457 18.5909 222.397 18.6741C222.337 18.7572 222.305 18.8578 222.305 18.9611C222.305 19.0644 222.337 19.165 222.397 19.2482C222.457 19.3313 222.541 19.3927 222.638 19.4232C222.908 19.5535 223.191 19.6548 223.482 19.7255L225.019 20.0968C225.875 20.2596 226.665 20.6772 227.291 21.2973C227.684 21.7272 227.937 22.271 228.015 22.854C228.094 23.4369 227.994 24.0305 227.73 24.5532C227.509 24.9786 227.204 25.3522 226.835 25.65C226.423 25.9842 225.957 26.2414 225.458 26.41C224.871 26.5981 224.258 26.6856 223.643 26.6691H223.685Z" fill="white"/>
<path d="M45.6 11.5814H48.9778L51.7391 19.7427L52.2795 21.8155H52.4822L53.0733 19.7427L55.9529 11.5814H59.3306L54.0444 26.4186H50.7511L45.6 11.5814ZM60.9858 11.5814H64.1778V26.4186H60.9858V11.5814ZM70.6293 19.5182L65.7484 11.5814H69.5569L72.0902 15.8995H72.2929L74.7249 11.5814H78.5755L73.7875 19.5182V26.4273H70.6293V19.5182ZM81.6071 11.5814H85.2551L90.6849 26.4186H87.1973L86.0826 23.1023H80.7458L79.6311 26.4186H76.152L81.6071 11.5814ZM85.0693 20.1573L84.0137 17.0482L83.5324 15.2259H83.3297L82.84 17.0482L81.7844 20.1573H85.0693ZM91.7151 11.5814H97.1871C97.9065 11.5699 98.6219 11.6928 99.2982 11.9441C99.876 12.1682 100.402 12.5122 100.844 12.9545C101.27 13.3876 101.601 13.9088 101.815 14.4832C102.054 15.0957 102.178 15.7493 102.178 16.4091C102.183 16.8695 102.103 17.3267 101.941 17.7564C101.789 18.1682 101.578 18.5551 101.316 18.905C101.047 19.2687 100.729 19.5915 100.371 19.8636C100.016 20.1309 99.634 20.3568 99.2306 20.5373V20.7186L103.022 26.2114V26.4186H99.4164L95.7431 21.0727H94.8986V26.4186H91.732L91.7151 11.5814ZM97.1871 18.0845C97.4325 18.0993 97.6782 18.0625 97.9092 17.9763C98.1401 17.8902 98.3513 17.7565 98.5297 17.5836C98.6889 17.4174 98.8135 17.2201 98.8962 17.0034C98.9789 16.7867 99.018 16.5552 99.0111 16.3227C99.0231 15.8607 98.8596 15.4119 98.5551 15.0705C98.3753 14.8914 98.1604 14.7533 97.9246 14.6655C97.6887 14.5776 97.4374 14.542 97.1871 14.5609H94.8817V18.0845H97.1871Z" fill="white"/>
</g>
<defs>
<clipPath id="clip0">
<rect width="228" height="38" fill="white"/>
</clipPath>
</defs>
</svg>
