<svg width="123" height="32" viewBox="0 0 123 32" fill="none" xmlns="http://www.w3.org/2000/svg">
<path d="M15.9176 1.39136C7.09059 1.39136 0 8.20875 0 16.6957C0 25.1827 7.09059 32.0001 15.9176 32.0001C24.7447 32.0001 31.8353 25.1827 31.8353 16.6957C31.8353 8.20875 24.7447 1.39136 15.9176 1.39136ZM15.9176 30.6087C7.95882 30.6087 1.44706 24.3479 1.44706 16.6957C1.44706 9.04353 7.95882 2.78266 15.9176 2.78266C23.8765 2.78266 30.3882 9.04353 30.3882 16.6957C30.3882 24.3479 23.8765 30.6087 15.9176 30.6087ZM23.1529 18.7827H25.3235V22.9566H6.51176V18.7827H8.68235V20.174H10.8529V18.7827H20.9824V20.174H23.1529V18.7827ZM25.3235 10.4348V18.087H6.51176V10.4348H12.3V9.04353C12.3 8.27831 12.9512 7.65223 13.7471 7.65223H18.0882C18.8841 7.65223 19.5353 8.27831 19.5353 9.04353V10.4348H25.3235ZM18.0882 9.04353H13.7471V10.4348H18.0882V9.04353Z" fill="white"/>
<path d="M101.366 4.66089C101.222 4.52176 101.005 4.31307 100.715 4.2435C100.426 4.10437 100.136 4.10437 99.8471 4.10437H97.4594V7.86089H99.8471C100.136 7.86089 100.426 7.79133 100.715 7.72176C101.005 7.58263 101.149 7.4435 101.366 7.30437C101.511 7.09567 101.656 6.95654 101.801 6.67828C101.873 6.46959 101.945 6.26089 101.945 5.98263C101.945 5.77394 101.873 5.49567 101.801 5.28698C101.656 5.00872 101.584 4.80002 101.366 4.66089Z" fill="white"/>
<path d="M116.705 8.13913C116.488 7.93044 116.199 7.72174 115.909 7.65218C115.62 7.51305 115.331 7.44348 114.969 7.44348C114.679 7.44348 114.318 7.51305 114.028 7.65218C113.739 7.79131 113.449 7.93044 113.232 8.13913C113.015 8.34783 112.798 8.62609 112.654 8.97392C112.509 9.32174 112.436 9.66957 112.436 10.087C112.436 10.5044 112.509 10.8522 112.654 11.2C112.798 11.5478 113.015 11.8261 113.232 12.0348C113.449 12.2435 113.739 12.4522 114.028 12.5217C114.318 12.6609 114.607 12.7304 114.969 12.7304C115.258 12.7304 115.62 12.6609 115.909 12.5217C116.199 12.3826 116.488 12.2435 116.705 12.0348C116.922 11.8261 117.139 11.5478 117.284 11.2C117.429 10.8522 117.501 10.5044 117.501 10.087C117.501 9.66957 117.429 9.32174 117.284 8.97392C117.139 8.69566 116.922 8.41739 116.705 8.13913Z" fill="white"/>
<path d="M91.1647 0V16.6957H123V0H91.1647ZM103.537 7.37391C103.32 7.7913 103.031 8.2087 102.669 8.55652C102.307 8.90435 101.873 9.11304 101.366 9.32174C100.86 9.53043 100.354 9.6 99.7747 9.6H97.4594V14.1913H95.5059V2.22609H99.8471C100.426 2.22609 100.932 2.29565 101.439 2.50435C101.945 2.71304 102.379 2.92174 102.741 3.26957C103.103 3.61739 103.392 3.96522 103.609 4.45217C103.826 4.86957 103.899 5.42609 103.899 5.91304C103.899 6.46957 103.754 6.95652 103.537 7.37391ZM109.615 7.58261C109.47 7.58261 109.253 7.51304 109.036 7.51304C108.746 7.51304 108.457 7.58261 108.168 7.72174C107.878 7.86087 107.661 8 107.516 8.2087C107.299 8.41739 107.155 8.69565 107.082 8.97391C107.01 9.25217 106.938 9.6 106.938 9.87826V14.1913H104.912V5.98261H106.721V7.23478H106.793C106.865 7.02609 107.01 6.81739 107.227 6.6087C107.372 6.4 107.589 6.26087 107.806 6.12174C108.023 5.98261 108.24 5.91304 108.529 5.77391C108.746 5.70435 109.036 5.63478 109.253 5.63478C109.542 5.63478 109.759 5.63478 109.976 5.70435C110.194 5.77391 110.338 5.84348 110.483 5.91304L109.904 7.58261C109.904 7.65217 109.759 7.58261 109.615 7.58261ZM119.021 11.8261C118.804 12.3826 118.514 12.8 118.08 13.2174C117.718 13.6348 117.212 13.913 116.705 14.1217C116.126 14.3304 115.548 14.4696 114.896 14.4696C114.245 14.4696 113.666 14.3304 113.088 14.1217C112.509 13.913 112.075 13.6348 111.713 13.2174C111.351 12.8 110.989 12.3826 110.772 11.8261C110.555 11.2696 110.411 10.713 110.411 10.087C110.411 9.46087 110.555 8.90435 110.772 8.34783C110.989 7.7913 111.279 7.37391 111.713 6.95652C112.075 6.53913 112.581 6.26087 113.088 6.05217C113.666 5.84348 114.245 5.70435 114.896 5.70435C115.548 5.70435 116.126 5.84348 116.705 6.05217C117.284 6.26087 117.718 6.53913 118.08 6.95652C118.442 7.37391 118.804 7.7913 119.021 8.34783C119.238 8.90435 119.382 9.46087 119.382 10.087C119.382 10.713 119.238 11.2696 119.021 11.8261Z" fill="white"/>
<path d="M39.7941 18.9913H44.8588C45.4377 18.9913 45.9441 19.0609 46.3782 19.2695C46.8847 19.4087 47.2465 19.6869 47.6082 19.9652C47.97 20.2435 48.2594 20.5913 48.4041 20.9391C48.6212 21.2869 48.6935 21.7043 48.6935 22.1217C48.6935 22.7478 48.5488 23.3043 48.1871 23.7913C47.8253 24.2087 47.4635 24.5565 47.0294 24.7652V24.9043C47.6806 25.113 48.1871 25.4609 48.5488 25.9478C48.9106 26.4348 49.1277 26.9913 49.1277 27.6869C49.1277 28.1739 49.0553 28.6609 48.8382 29.0782C48.6212 29.4956 48.3318 29.8435 47.97 30.1217C47.6082 30.4 47.1741 30.6087 46.6677 30.7478C46.1612 30.8869 45.5824 30.9565 45.0035 30.9565H39.7941V18.9913ZM44.5694 23.7217C45.0759 23.7217 45.4377 23.5826 45.7271 23.3739C46.0165 23.1652 46.1612 22.8869 46.1612 22.4695C46.1612 22.0522 46.0165 21.7739 45.7271 21.5652C45.4377 21.3565 45.0759 21.2174 44.6418 21.2174H42.4712V23.6522H44.5694V23.7217ZM44.7865 28.5913C45.9441 28.5913 46.4506 28.1739 46.4506 27.2696C46.4506 26.3652 45.8718 25.9478 44.7141 25.9478H42.4712V28.5913H44.7865ZM56.2906 29.913H56.1459C55.5671 30.7478 54.6988 31.2348 53.5412 31.2348C52.4559 31.2348 51.66 30.8869 51.1535 30.2609C50.6471 29.6348 50.3577 28.7304 50.3577 27.6869V22.8174H52.9624V27.4087C52.9624 27.8261 53.1071 28.2435 53.3241 28.5217C53.5412 28.8 53.903 28.9391 54.3371 28.9391C54.9159 28.9391 55.35 28.7304 55.7118 28.313C56.0012 27.8956 56.1459 27.3391 56.1459 26.6435V22.8869H58.7506V31.0956H56.2906V29.913ZM63.743 31.2348C63.1641 31.2348 62.6577 31.1652 62.1512 31.0261C61.7171 30.8869 61.283 30.7478 60.9935 30.4695C60.7041 30.1913 60.4147 29.9826 60.1977 29.7043C59.9806 29.4261 59.8359 29.1478 59.6912 28.8695L62.0065 27.8956C62.1512 28.2435 62.3682 28.5217 62.6577 28.7304C62.9471 28.9391 63.3088 29.0087 63.6706 29.0087C64.0324 29.0087 64.3218 28.9391 64.4665 28.8695C64.6835 28.7304 64.7559 28.6609 64.7559 28.4522C64.7559 28.2435 64.6835 28.1043 64.4665 28.0348C64.2494 27.9652 64.0324 27.8261 63.6706 27.6869L62.513 27.4782C62.2235 27.4087 61.9341 27.3391 61.6447 27.2C61.3553 27.0609 61.0659 26.9217 60.8488 26.713C60.6318 26.5043 60.4147 26.2956 60.27 26.0174C60.1253 25.7391 60.053 25.4609 60.053 25.0435C60.053 24.6261 60.1253 24.2782 60.3424 24C60.4871 23.6522 60.7765 23.4435 61.0659 23.1652C61.3553 22.9565 61.7171 22.7478 62.1512 22.6782C62.5853 22.5391 63.0194 22.4695 63.5259 22.4695C64.3941 22.4695 65.19 22.6087 65.7688 22.8869C66.42 23.1652 66.8541 23.6522 67.2159 24.3478L64.973 25.2522C64.8282 24.9739 64.6112 24.7652 64.3218 24.6261C64.0324 24.4869 63.743 24.4174 63.5259 24.4174C63.2365 24.4174 62.9471 24.4869 62.8024 24.5565C62.6577 24.6261 62.513 24.7652 62.513 24.9043C62.513 25.0435 62.5853 25.1826 62.8024 25.2522C63.0194 25.3217 63.2365 25.4609 63.5259 25.4609L64.8282 25.7391C65.6965 25.9478 66.3477 26.2956 66.7818 26.713C67.2159 27.1304 67.4329 27.6869 67.4329 28.313C67.4329 28.6609 67.3606 29.0087 67.1435 29.3565C66.9265 29.7043 66.7094 29.9826 66.3477 30.2609C65.9859 30.5391 65.6241 30.7478 65.19 30.8869C64.8282 31.1652 64.3218 31.2348 63.743 31.2348ZM69.9653 21.9826C69.7482 21.9826 69.5312 21.913 69.3141 21.8435C69.0971 21.7739 68.9524 21.6348 68.8077 21.4956C68.663 21.3565 68.5182 21.2174 68.4459 21.0087C68.3735 20.8 68.3012 20.5913 68.3012 20.3826C68.3012 20.1739 68.3735 19.9652 68.4459 19.7565C68.5182 19.5478 68.663 19.4087 68.8077 19.2695C68.9524 19.1304 69.0971 18.9913 69.3141 18.9217C69.5312 18.8522 69.7482 18.7826 69.9653 18.7826C70.1824 18.7826 70.3994 18.8522 70.6165 18.9217C70.8335 18.9913 70.9782 19.1304 71.123 19.2695C71.2677 19.4087 71.4124 19.5478 71.4847 19.7565C71.5571 19.9652 71.6294 20.1739 71.6294 20.3826C71.6294 20.5913 71.5571 20.8 71.4847 21.0087C71.4124 21.2174 71.2677 21.3565 71.123 21.4956C70.9782 21.6348 70.8335 21.7739 70.6165 21.8435C70.3994 21.9826 70.1824 21.9826 69.9653 21.9826ZM68.663 30.9565V22.7478H71.2677V30.9565H68.663ZM75.3194 23.7913H75.4641C76.043 22.9565 76.9112 22.4695 78.0688 22.4695C79.1541 22.4695 79.95 22.8174 80.4565 23.4435C80.9629 24.0696 81.2524 24.9739 81.2524 26.0174V30.8869H78.6477V26.2956C78.6477 25.8782 78.5029 25.4609 78.2859 25.1826C78.0688 24.9043 77.7071 24.7652 77.273 24.7652C76.6941 24.7652 76.26 24.9739 75.8982 25.3913C75.6088 25.8087 75.4641 26.3652 75.4641 27.0609V30.8174H72.8594V22.7478H75.3194V23.7913ZM90.8753 28.9391C90.4412 29.6348 89.9347 30.1913 89.2112 30.6087C88.4877 31.0261 87.6918 31.2348 86.7512 31.2348C86.1 31.2348 85.4488 31.0956 84.9424 30.8869C84.3635 30.6782 83.8571 30.4 83.4953 29.9826C83.0612 29.5652 82.7718 29.1478 82.5547 28.5913C82.3377 28.0348 82.193 27.4782 82.193 26.8522C82.193 26.2956 82.3377 25.6695 82.5547 25.1826C82.7718 24.6261 83.1335 24.2087 83.4953 23.7913C83.9294 23.3739 84.3635 23.0956 84.9424 22.8174C85.5212 22.6087 86.1 22.4695 86.7512 22.4695C87.4747 22.4695 88.0535 22.6087 88.6324 22.8174C89.1388 23.0261 89.6453 23.3739 90.0071 23.7217C90.3688 24.1391 90.6582 24.5565 90.803 25.0435C91.02 25.5304 91.0924 26.0869 91.0924 26.713C91.0924 26.7826 91.0924 26.9217 91.0924 26.9913C91.0924 27.0609 91.0924 27.1304 91.0924 27.2C91.0924 27.2695 91.0924 27.3391 91.0924 27.4087H84.7977C84.9424 27.9652 85.1594 28.313 85.5935 28.5913C85.9553 28.8695 86.4618 28.9391 86.8959 28.9391C87.33 28.9391 87.7641 28.8695 88.1259 28.6609C88.4153 28.4522 88.7047 28.1739 88.8494 27.8956L90.8753 28.9391ZM88.56 25.8087C88.56 25.6695 88.4877 25.5304 88.4153 25.3913C88.3429 25.2522 88.1982 25.113 88.0535 24.9739C87.9088 24.8348 87.6918 24.7652 87.4747 24.6261C87.2577 24.5565 86.9682 24.4869 86.7512 24.4869C86.3171 24.4869 85.9553 24.6261 85.5935 24.8348C85.2318 25.0435 85.0147 25.3913 84.7977 25.8087H88.56ZM95.723 31.2348C95.1441 31.2348 94.6377 31.1652 94.1312 31.0261C93.6971 30.8869 93.263 30.7478 92.9735 30.4695C92.6841 30.1913 92.3947 29.9826 92.1777 29.7043C91.9606 29.4261 91.8159 29.1478 91.6712 28.8695L93.9865 27.8956C94.1312 28.2435 94.3482 28.5217 94.6377 28.7304C94.9271 28.9391 95.2888 29.0087 95.6506 29.0087C96.0124 29.0087 96.3018 28.9391 96.4465 28.8695C96.6635 28.7304 96.7359 28.6609 96.7359 28.4522C96.7359 28.2435 96.6635 28.1043 96.4465 28.0348C96.2294 27.9652 95.94 27.8261 95.5783 27.7565L94.4206 27.5478C94.1312 27.4782 93.8418 27.4087 93.5524 27.2696C93.263 27.1304 92.9735 26.9913 92.7565 26.7826C92.5394 26.5739 92.3224 26.3652 92.1777 26.0869C92.033 25.8087 91.9606 25.5304 91.9606 25.113C91.9606 24.6956 92.033 24.3478 92.25 24.0695C92.3947 23.7217 92.6841 23.513 92.9735 23.2348C93.263 23.0261 93.6247 22.8174 94.0588 22.7478C94.493 22.6087 94.9271 22.5391 95.4335 22.5391C96.3018 22.5391 97.0977 22.6782 97.6765 22.9565C98.3277 23.2348 98.7618 23.7217 99.1235 24.4174L96.8806 25.3217C96.7359 25.0435 96.5188 24.8348 96.2294 24.6956C95.94 24.5565 95.6506 24.4869 95.4335 24.4869C95.1441 24.4869 94.8547 24.5565 94.71 24.6261C94.5653 24.6956 94.4206 24.8348 94.4206 24.9739C94.4206 25.113 94.4929 25.2522 94.71 25.3217C94.9271 25.3913 95.1441 25.5304 95.4335 25.5304L96.7359 25.8087C97.6041 26.0174 98.2553 26.3652 98.6894 26.7826C99.1235 27.2 99.3406 27.7565 99.3406 28.3826C99.3406 28.7304 99.2682 29.0782 99.0512 29.4261C98.8341 29.7739 98.6171 30.0522 98.2553 30.3304C97.8935 30.6087 97.5318 30.8174 97.0977 30.9565C96.7359 31.1652 96.2294 31.2348 95.723 31.2348ZM104.044 31.2348C103.465 31.2348 102.958 31.1652 102.452 31.0261C102.018 30.8869 101.584 30.7478 101.294 30.4695C101.005 30.1913 100.715 29.9826 100.498 29.7043C100.281 29.4261 100.136 29.1478 99.9918 28.8695L102.307 27.8956C102.452 28.2435 102.669 28.5217 102.958 28.7304C103.248 28.9391 103.609 29.0087 103.971 29.0087C104.333 29.0087 104.622 28.9391 104.767 28.8695C104.984 28.7304 105.056 28.6609 105.056 28.4522C105.056 28.2435 104.984 28.1043 104.767 28.0348C104.55 27.9652 104.261 27.8261 103.899 27.7565L102.741 27.5478C102.452 27.4782 102.162 27.4087 101.873 27.2696C101.584 27.1304 101.294 26.9913 101.077 26.7826C100.86 26.5739 100.643 26.3652 100.498 26.0869C100.354 25.8087 100.281 25.5304 100.281 25.113C100.281 24.6956 100.354 24.3478 100.571 24.0695C100.715 23.7217 101.005 23.513 101.294 23.2348C101.584 23.0261 101.945 22.8174 102.379 22.7478C102.814 22.6087 103.248 22.5391 103.754 22.5391C104.622 22.5391 105.418 22.6782 105.997 22.9565C106.648 23.2348 107.082 23.7217 107.444 24.4174L105.201 25.3217C105.056 25.0435 104.839 24.8348 104.55 24.6956C104.261 24.5565 103.971 24.4869 103.754 24.4869C103.465 24.4869 103.175 24.5565 103.031 24.6261C102.886 24.6956 102.741 24.8348 102.741 24.9739C102.741 25.113 102.814 25.2522 103.031 25.3217C103.248 25.3913 103.465 25.5304 103.754 25.5304L105.056 25.8087C105.925 26.0174 106.576 26.3652 107.01 26.7826C107.444 27.2 107.661 27.7565 107.661 28.3826C107.661 28.7304 107.589 29.0782 107.372 29.4261C107.155 29.7739 106.938 30.0522 106.576 30.3304C106.214 30.6087 105.852 30.8174 105.418 30.9565C105.129 31.1652 104.622 31.2348 104.044 31.2348Z" fill="white"/>
<path d="M39.0706 2.36523H41.9647L44.3524 8.97393L44.7865 10.6435H44.9312L45.4376 8.97393L47.8976 2.36523H50.7918L46.3059 14.3305H43.4841L39.0706 2.36523ZM52.2388 2.36523H54.9882V14.3305H52.3112V2.36523H52.2388ZM60.4871 8.76523L56.2906 2.36523H59.5465L61.7171 5.84349H61.8618L63.96 2.36523H67.2882L63.1641 8.76523V14.3305H60.4871V8.76523ZM69.8929 2.36523H73.0041L77.6347 14.3305H74.6682L73.7276 11.687H69.1694L68.2288 14.3305H65.2623L69.8929 2.36523ZM72.8594 9.25219L71.9912 6.74784L71.5571 5.28697H71.4123L70.9782 6.74784L70.11 9.25219H72.8594ZM78.5753 2.36523H83.2782C83.9294 2.36523 84.5806 2.4348 85.0871 2.6435C85.5935 2.85219 86.1 3.13045 86.4618 3.47828C86.8235 3.8261 87.1129 4.2435 87.33 4.73045C87.5471 5.21741 87.6194 5.70436 87.6194 6.26089C87.6194 6.67828 87.5471 7.0261 87.4023 7.37393C87.2576 7.72176 87.1129 8.00002 86.8959 8.27828C86.6788 8.55654 86.3894 8.8348 86.1 9.0435C85.8106 9.25219 85.4488 9.46089 85.1594 9.60002V9.73915L88.4153 14.1913V14.3305H85.3041L82.1929 10.0174H81.3971V14.3305H78.72V2.36523H78.5753ZM83.2782 7.58262C83.7847 7.58262 84.1465 7.44349 84.4359 7.16523C84.7253 6.88697 84.87 6.53915 84.87 6.12176C84.87 5.70436 84.7253 5.35654 84.5082 5.07828C84.2188 4.80002 83.8571 4.66089 83.3506 4.66089H81.3971V7.51306H83.2782V7.58262Z" fill="white"/>
</svg>
