<svg width="112" height="30" viewBox="0 0 112 30" fill="none" xmlns="http://www.w3.org/2000/svg">
<path d="M14.4941 1.30435C6.45647 1.30435 0 7.69566 0 15.6522C0 23.6087 6.45647 30 14.4941 30C22.5318 30 28.9882 23.6087 28.9882 15.6522C28.9882 7.69566 22.5318 1.30435 14.4941 1.30435ZM14.4941 28.6957C7.24706 28.6957 1.31765 22.8261 1.31765 15.6522C1.31765 8.47827 7.24706 2.6087 14.4941 2.6087C21.7412 2.6087 27.6706 8.47827 27.6706 15.6522C27.6706 22.8261 21.7412 28.6957 14.4941 28.6957ZM21.0824 17.6087H23.0588V21.5217H5.92941V17.6087H7.90588V18.913H9.88235V17.6087H19.1059V18.913H21.0824V17.6087ZM23.0588 9.78261V16.9565H5.92941V9.78261H11.2V8.47827C11.2 7.76087 11.7929 7.17392 12.5176 7.17392H16.4706C17.1953 7.17392 17.7882 7.76087 17.7882 8.47827V9.78261H23.0588ZM16.4706 8.47827H12.5176V9.78261H16.4706V8.47827Z" fill="#0080E0"/>
<path d="M92.3012 4.36955C92.1694 4.23911 91.9718 4.04346 91.7082 3.97824C91.4447 3.84781 91.1812 3.84781 90.9176 3.84781H88.7435V7.36955H90.9176C91.1812 7.36955 91.4447 7.30433 91.7082 7.23911C91.9718 7.10868 92.1035 6.97824 92.3012 6.84781C92.4329 6.65216 92.5647 6.52172 92.6965 6.26085C92.7624 6.0652 92.8282 5.86955 92.8282 5.60868C92.8282 5.41303 92.7624 5.15216 92.6965 4.9565C92.5647 4.69563 92.4988 4.49998 92.3012 4.36955Z" fill="#0080E0"/>
<path d="M106.268 7.63045C106.071 7.43479 105.807 7.23914 105.543 7.17392C105.28 7.04349 105.016 6.97827 104.687 6.97827C104.423 6.97827 104.094 7.04349 103.831 7.17392C103.567 7.30436 103.303 7.43479 103.106 7.63045C102.908 7.8261 102.711 8.08697 102.579 8.41305C102.447 8.73914 102.381 9.06523 102.381 9.45653C102.381 9.84784 102.447 10.1739 102.579 10.5C102.711 10.8261 102.908 11.087 103.106 11.2826C103.303 11.4783 103.567 11.6739 103.831 11.7391C104.094 11.8696 104.358 11.9348 104.687 11.9348C104.951 11.9348 105.28 11.8696 105.543 11.7391C105.807 11.6087 106.071 11.4783 106.268 11.2826C106.466 11.087 106.663 10.8261 106.795 10.5C106.927 10.1739 106.993 9.84784 106.993 9.45653C106.993 9.06523 106.927 8.73914 106.795 8.41305C106.663 8.15218 106.466 7.89131 106.268 7.63045Z" fill="#0080E0"/>
<path d="M83.0117 0V15.6522H112V0H83.0117ZM94.2776 6.91304C94.08 7.30435 93.8164 7.69565 93.487 8.02174C93.1576 8.34783 92.7623 8.54348 92.3011 8.73913C91.84 8.93478 91.3788 9 90.8517 9H88.7435V13.3043H86.9647V2.08696H90.9176C91.4447 2.08696 91.9058 2.15217 92.367 2.34783C92.8282 2.54348 93.2235 2.73913 93.5529 3.06522C93.8823 3.3913 94.1458 3.71739 94.3435 4.17391C94.5411 4.56522 94.607 5.08696 94.607 5.54348C94.607 6.06522 94.4753 6.52174 94.2776 6.91304ZM99.8117 7.1087C99.68 7.1087 99.4823 7.04348 99.2847 7.04348C99.0211 7.04348 98.7576 7.1087 98.4941 7.23913C98.2305 7.36957 98.0329 7.5 97.9011 7.69565C97.7035 7.8913 97.5717 8.15217 97.5058 8.41304C97.44 8.67391 97.3741 9 97.3741 9.26087V13.3043H95.5294V5.6087H97.1764V6.78261H97.2423C97.3082 6.58696 97.44 6.3913 97.6376 6.19565C97.7694 6 97.967 5.86957 98.1647 5.73913C98.3623 5.6087 98.56 5.54348 98.8235 5.41304C99.0211 5.34783 99.2847 5.28261 99.4823 5.28261C99.7458 5.28261 99.9435 5.28261 100.141 5.34783C100.339 5.41304 100.471 5.47826 100.602 5.54348L100.075 7.1087C100.075 7.17391 99.9435 7.1087 99.8117 7.1087ZM108.376 11.087C108.179 11.6087 107.915 12 107.52 12.3913C107.191 12.7826 106.729 13.0435 106.268 13.2391C105.741 13.4348 105.214 13.5652 104.621 13.5652C104.028 13.5652 103.501 13.4348 102.974 13.2391C102.447 13.0435 102.052 12.7826 101.722 12.3913C101.393 12 101.063 11.6087 100.866 11.087C100.668 10.5652 100.536 10.0435 100.536 9.45652C100.536 8.86957 100.668 8.34783 100.866 7.82609C101.063 7.30435 101.327 6.91304 101.722 6.52174C102.052 6.13043 102.513 5.86957 102.974 5.67391C103.501 5.47826 104.028 5.34783 104.621 5.34783C105.214 5.34783 105.741 5.47826 106.268 5.67391C106.795 5.86957 107.191 6.13043 107.52 6.52174C107.849 6.91304 108.179 7.30435 108.376 7.82609C108.574 8.34783 108.706 8.86957 108.706 9.45652C108.706 10.0435 108.574 10.5652 108.376 11.087Z" fill="#0080E0"/>
<path d="M36.2354 17.8044H40.8471C41.3742 17.8044 41.8354 17.8696 42.2306 18.0652C42.6918 18.1957 43.0212 18.4565 43.3506 18.7174C43.6801 18.9783 43.9436 19.3044 44.0754 19.6304C44.273 19.9565 44.3389 20.3478 44.3389 20.7391C44.3389 21.3261 44.2071 21.8478 43.8777 22.3044C43.5483 22.6957 43.2189 23.0217 42.8236 23.2174V23.3478C43.4165 23.5435 43.8777 23.8696 44.2071 24.3261C44.5365 24.7826 44.7342 25.3044 44.7342 25.9565C44.7342 26.4131 44.6683 26.8696 44.4706 27.2609C44.273 27.6522 44.0095 27.9783 43.6801 28.2391C43.3506 28.5 42.9554 28.6957 42.4942 28.8261C42.033 28.9565 41.5059 29.0217 40.9789 29.0217H36.2354V17.8044ZM40.5836 22.2391C41.0448 22.2391 41.3742 22.1087 41.6377 21.9131C41.9012 21.7174 42.033 21.4565 42.033 21.0652C42.033 20.6739 41.9012 20.4131 41.6377 20.2174C41.3742 20.0217 41.0448 19.8913 40.6495 19.8913H38.673V22.1739H40.5836V22.2391ZM40.7812 26.8044C41.8354 26.8044 42.2965 26.4131 42.2965 25.5652C42.2965 24.7174 41.7695 24.3261 40.7154 24.3261H38.673V26.8044H40.7812ZM51.2565 28.0435H51.1248C50.5977 28.8261 49.8071 29.2826 48.753 29.2826C47.7648 29.2826 47.0401 28.9565 46.5789 28.3696C46.1177 27.7826 45.8542 26.9348 45.8542 25.9565V21.3913H48.2259V25.6957C48.2259 26.087 48.3577 26.4783 48.5554 26.7391C48.753 27 49.0824 27.1304 49.4777 27.1304C50.0048 27.1304 50.4001 26.9348 50.7295 26.5435C50.993 26.1522 51.1248 25.6304 51.1248 24.9783V21.4565H53.4965V29.1522H51.2565V28.0435ZM58.0424 29.2826C57.5154 29.2826 57.0542 29.2174 56.593 29.087C56.1977 28.9565 55.8024 28.8261 55.5389 28.5652C55.2754 28.3044 55.0118 28.1087 54.8142 27.8478C54.6165 27.587 54.4848 27.3261 54.353 27.0652L56.4612 26.1522C56.593 26.4783 56.7906 26.7391 57.0542 26.9348C57.3177 27.1304 57.6471 27.1957 57.9765 27.1957C58.3059 27.1957 58.5695 27.1304 58.7012 27.0652C58.8989 26.9348 58.9648 26.8696 58.9648 26.6739C58.9648 26.4783 58.8989 26.3478 58.7012 26.2826C58.5036 26.2174 58.3059 26.087 57.9765 25.9565L56.9224 25.7609C56.6589 25.6957 56.3953 25.6304 56.1318 25.5C55.8683 25.3696 55.6048 25.2391 55.4071 25.0435C55.2095 24.8478 55.0118 24.6522 54.8801 24.3913C54.7483 24.1304 54.6824 23.8696 54.6824 23.4783C54.6824 23.087 54.7483 22.7609 54.9459 22.5C55.0777 22.1739 55.3412 21.9783 55.6048 21.7174C55.8683 21.5217 56.1977 21.3261 56.593 21.2609C56.9883 21.1304 57.3836 21.0652 57.8448 21.0652C58.6354 21.0652 59.3601 21.1957 59.8871 21.4565C60.4801 21.7174 60.8754 22.1739 61.2048 22.8261L59.1624 23.6739C59.0306 23.4131 58.833 23.2174 58.5695 23.087C58.3059 22.9565 58.0424 22.8913 57.8448 22.8913C57.5812 22.8913 57.3177 22.9565 57.1859 23.0217C57.0542 23.087 56.9224 23.2174 56.9224 23.3478C56.9224 23.4783 56.9883 23.6087 57.1859 23.6739C57.3836 23.7391 57.5812 23.8696 57.8448 23.8696L59.0306 24.1304C59.8212 24.3261 60.4142 24.6522 60.8095 25.0435C61.2048 25.4348 61.4024 25.9565 61.4024 26.5435C61.4024 26.8696 61.3365 27.1957 61.1389 27.5217C60.9412 27.8478 60.7436 28.1087 60.4142 28.3696C60.0848 28.6304 59.7554 28.8261 59.3601 28.9565C59.0306 29.2174 58.5695 29.2826 58.0424 29.2826ZM63.7083 20.6087C63.5106 20.6087 63.313 20.5435 63.1154 20.4783C62.9177 20.4131 62.7859 20.2826 62.6542 20.1522C62.5224 20.0217 62.3906 19.8913 62.3248 19.6957C62.2589 19.5 62.193 19.3044 62.193 19.1087C62.193 18.9131 62.2589 18.7174 62.3248 18.5217C62.3906 18.3261 62.5224 18.1957 62.6542 18.0652C62.7859 17.9348 62.9177 17.8044 63.1154 17.7391C63.313 17.6739 63.5106 17.6087 63.7083 17.6087C63.9059 17.6087 64.1036 17.6739 64.3012 17.7391C64.4989 17.8044 64.6306 17.9348 64.7624 18.0652C64.8942 18.1957 65.0259 18.3261 65.0918 18.5217C65.1577 18.7174 65.2236 18.9131 65.2236 19.1087C65.2236 19.3044 65.1577 19.5 65.0918 19.6957C65.0259 19.8913 64.8942 20.0217 64.7624 20.1522C64.6306 20.2826 64.4989 20.4131 64.3012 20.4783C64.1036 20.6087 63.9059 20.6087 63.7083 20.6087ZM62.5224 29.0217V21.3261H64.8942V29.0217H62.5224ZM68.5836 22.3044H68.7154C69.2424 21.5217 70.033 21.0652 71.0871 21.0652C72.0754 21.0652 72.8001 21.3913 73.2612 21.9783C73.7224 22.5652 73.9859 23.4131 73.9859 24.3913V28.9565H71.6142V24.6522C71.6142 24.2609 71.4824 23.8696 71.2848 23.6087C71.0871 23.3478 70.7577 23.2174 70.3624 23.2174C69.8354 23.2174 69.4401 23.4131 69.1106 23.8044C68.8471 24.1957 68.7154 24.7174 68.7154 25.3696V28.8913H66.3436V21.3261H68.5836V22.3044ZM82.7483 27.1304C82.353 27.7826 81.8918 28.3044 81.233 28.6957C80.5742 29.087 79.8495 29.2826 78.993 29.2826C78.4001 29.2826 77.8071 29.1522 77.3459 28.9565C76.8189 28.7609 76.3577 28.5 76.0283 28.1087C75.633 27.7174 75.3695 27.3261 75.1718 26.8044C74.9742 26.2826 74.8424 25.7609 74.8424 25.1739C74.8424 24.6522 74.9742 24.0652 75.1718 23.6087C75.3695 23.087 75.6989 22.6957 76.0283 22.3044C76.4236 21.9131 76.8189 21.6522 77.3459 21.3913C77.873 21.1957 78.4001 21.0652 78.993 21.0652C79.6518 21.0652 80.1789 21.1957 80.7059 21.3913C81.1671 21.587 81.6283 21.9131 81.9577 22.2391C82.2871 22.6304 82.5506 23.0217 82.6824 23.4783C82.8801 23.9348 82.9459 24.4565 82.9459 25.0435C82.9459 25.1087 82.9459 25.2391 82.9459 25.3044C82.9459 25.3696 82.9459 25.4348 82.9459 25.5C82.9459 25.5652 82.9459 25.6304 82.9459 25.6957H77.2142C77.3459 26.2174 77.5436 26.5435 77.9389 26.8044C78.2683 27.0652 78.7295 27.1304 79.1248 27.1304C79.5201 27.1304 79.9154 27.0652 80.2448 26.8696C80.5083 26.6739 80.7718 26.4131 80.9036 26.1522L82.7483 27.1304ZM80.6401 24.1957C80.6401 24.0652 80.5742 23.9348 80.5083 23.8044C80.4424 23.6739 80.3106 23.5435 80.1789 23.4131C80.0471 23.2826 79.8495 23.2174 79.6518 23.087C79.4542 23.0217 79.1906 22.9565 78.993 22.9565C78.5977 22.9565 78.2683 23.087 77.9389 23.2826C77.6095 23.4783 77.4118 23.8044 77.2142 24.1957H80.6401ZM87.1624 29.2826C86.6354 29.2826 86.1742 29.2174 85.713 29.087C85.3177 28.9565 84.9224 28.8261 84.6589 28.5652C84.3954 28.3044 84.1318 28.1087 83.9342 27.8478C83.7365 27.587 83.6048 27.3261 83.473 27.0652L85.5812 26.1522C85.713 26.4783 85.9106 26.7391 86.1742 26.9348C86.4377 27.1304 86.7671 27.1957 87.0965 27.1957C87.4259 27.1957 87.6895 27.1304 87.8212 27.0652C88.0189 26.9348 88.0848 26.8696 88.0848 26.6739C88.0848 26.4783 88.0189 26.3478 87.8212 26.2826C87.6236 26.2174 87.3601 26.087 87.0307 26.0217L85.9765 25.8261C85.713 25.7609 85.4495 25.6957 85.1859 25.5652C84.9224 25.4348 84.6589 25.3044 84.4612 25.1087C84.2636 24.9131 84.0659 24.7174 83.9342 24.4565C83.8024 24.1957 83.7365 23.9348 83.7365 23.5435C83.7365 23.1522 83.8024 22.8261 84.0001 22.5652C84.1318 22.2391 84.3954 22.0435 84.6589 21.7826C84.9224 21.587 85.2518 21.3913 85.6471 21.3261C86.0424 21.1957 86.4377 21.1304 86.8989 21.1304C87.6895 21.1304 88.4142 21.2609 88.9412 21.5217C89.5342 21.7826 89.9295 22.2391 90.2589 22.8913L88.2165 23.7391C88.0848 23.4783 87.8871 23.2826 87.6236 23.1522C87.3601 23.0217 87.0965 22.9565 86.8989 22.9565C86.6353 22.9565 86.3718 23.0217 86.2401 23.087C86.1083 23.1522 85.9765 23.2826 85.9765 23.4131C85.9765 23.5435 86.0424 23.6739 86.2401 23.7391C86.4377 23.8044 86.6353 23.9348 86.8989 23.9348L88.0848 24.1957C88.8754 24.3913 89.4683 24.7174 89.8636 25.1087C90.2589 25.5 90.4565 26.0217 90.4565 26.6087C90.4565 26.9348 90.3906 27.2609 90.193 27.587C89.9953 27.9131 89.7977 28.1739 89.4683 28.4348C89.1389 28.6957 88.8095 28.8913 88.4142 29.0217C88.0848 29.2174 87.6236 29.2826 87.1624 29.2826ZM94.7389 29.2826C94.2118 29.2826 93.7507 29.2174 93.2895 29.087C92.8942 28.9565 92.4989 28.8261 92.2354 28.5652C91.9718 28.3044 91.7083 28.1087 91.5106 27.8478C91.313 27.587 91.1812 27.3261 91.0495 27.0652L93.1577 26.1522C93.2895 26.4783 93.4871 26.7391 93.7506 26.9348C94.0142 27.1304 94.3436 27.1957 94.673 27.1957C95.0024 27.1957 95.2659 27.1304 95.3977 27.0652C95.5954 26.9348 95.6612 26.8696 95.6612 26.6739C95.6612 26.4783 95.5954 26.3478 95.3977 26.2826C95.2001 26.2174 94.9365 26.087 94.6071 26.0217L93.553 25.8261C93.2895 25.7609 93.0259 25.6957 92.7624 25.5652C92.4989 25.4348 92.2354 25.3044 92.0377 25.1087C91.8401 24.9131 91.6424 24.7174 91.5106 24.4565C91.3789 24.1957 91.313 23.9348 91.313 23.5435C91.313 23.1522 91.3789 22.8261 91.5765 22.5652C91.7083 22.2391 91.9718 22.0435 92.2354 21.7826C92.4989 21.587 92.8283 21.3913 93.2236 21.3261C93.6189 21.1957 94.0142 21.1304 94.4753 21.1304C95.2659 21.1304 95.9906 21.2609 96.5177 21.5217C97.1106 21.7826 97.5059 22.2391 97.8354 22.8913L95.793 23.7391C95.6612 23.4783 95.4636 23.2826 95.2001 23.1522C94.9365 23.0217 94.673 22.9565 94.4753 22.9565C94.2118 22.9565 93.9483 23.0217 93.8165 23.087C93.6848 23.1522 93.553 23.2826 93.553 23.4131C93.553 23.5435 93.6189 23.6739 93.8165 23.7391C94.0142 23.8044 94.2118 23.9348 94.4753 23.9348L95.6612 24.1957C96.4518 24.3913 97.0448 24.7174 97.4401 25.1087C97.8354 25.5 98.033 26.0217 98.033 26.6087C98.033 26.9348 97.9671 27.2609 97.7695 27.587C97.5718 27.9131 97.3742 28.1739 97.0448 28.4348C96.7154 28.6957 96.3859 28.8913 95.9906 29.0217C95.7271 29.2174 95.2659 29.2826 94.7389 29.2826Z" fill="#0080E0"/>
<path d="M35.5764 2.21738H38.2117L40.3858 8.41303L40.7811 9.97825H40.9129L41.3741 8.41303L43.6141 2.21738H46.2494L42.1647 13.4348H39.5952L35.5764 2.21738ZM47.567 2.21738H50.0705V13.4348H47.6329V2.21738H47.567ZM55.0776 8.21738L51.2564 2.21738H54.2211L56.1976 5.47825H56.3294L58.2399 2.21738H61.2705L57.5152 8.21738V13.4348H55.0776V8.21738ZM63.6423 2.21738H66.4752L70.6917 13.4348H67.9905L67.1341 10.9565H62.9835L62.127 13.4348H59.4258L63.6423 2.21738ZM66.3435 8.6739L65.5529 6.32607L65.1576 4.95651H65.0258L64.6305 6.32607L63.8399 8.6739H66.3435ZM71.5482 2.21738H75.8305C76.4235 2.21738 77.0164 2.28259 77.4776 2.47825C77.9388 2.6739 78.3999 2.93477 78.7294 3.26085C79.0588 3.58694 79.3223 3.97825 79.5199 4.43477C79.7176 4.89129 79.7835 5.34781 79.7835 5.86955C79.7835 6.26086 79.7176 6.58694 79.5858 6.91303C79.4541 7.23912 79.3223 7.49999 79.1246 7.76086C78.927 8.02172 78.6635 8.28259 78.3999 8.47825C78.1364 8.6739 77.807 8.86955 77.5435 8.99999V9.13042L80.5082 13.3043V13.4348H77.6752L74.8423 9.39129H74.1176V13.4348H71.6799V2.21738H71.5482ZM75.8305 7.10868C76.2917 7.10868 76.6211 6.97825 76.8846 6.71738C77.1482 6.45651 77.2799 6.13042 77.2799 5.73912C77.2799 5.34781 77.1482 5.02172 76.9505 4.76086C76.687 4.49999 76.3576 4.36955 75.8964 4.36955H74.1176V7.04346H75.8305V7.10868Z" fill="#0080E0"/>
</svg>
