<svg width="456" height="79" viewBox="0 0 456 79" fill="none" xmlns="http://www.w3.org/2000/svg">
<path d="M37.9626 62.7331C37.9626 62.7331 43.4811 57.4353 51.4277 50.3716C53.6351 48.385 60.0366 43.7494 62.244 41.7628C63.5685 40.6591 65.9966 39.1139 68.6455 36.9065V36.6857C68.6455 36.465 68.4248 36.465 68.4248 36.465C68.4248 36.465 68.4248 36.465 68.204 36.465C68.204 36.465 47.6752 50.1509 37.7418 58.539L35.9759 17.7021C35.9759 17.7021 41.2737 11.3006 49.8826 3.35392C49.8826 3.35392 49.8826 3.35392 49.8826 3.13318C49.8826 2.91244 49.6618 2.91244 49.6618 2.91244C49.6618 2.91244 49.6618 2.91244 49.4411 2.91244C41.0529 10.1969 35.7552 15.0532 35.7552 15.0532L35.5344 0.26355H33.7685L33.1063 43.5287C13.0189 31.388 11.0323 31.1672 0.878211 26.3109C0.657471 26.3109 0.657471 26.3109 0.657471 26.5317V26.7524C8.38338 30.7257 25.1596 38.4517 32.6648 47.0605C33.327 55.0072 33.1063 67.8101 32.6648 78.8471H38.1833C38.1833 77.9642 37.9626 77.302 37.9626 76.8605C37.7418 72.8871 37.9626 62.7331 37.9626 62.7331Z" fill="white"/>
<path d="M4.18924 33.5957C1.09887 36.2445 1.31961 41.7631 1.31961 41.7631C1.31961 41.7631 6.83812 43.0875 9.70771 40.4386C12.7981 38.0105 10.5907 34.0371 10.5907 34.0371C10.5907 34.0371 7.2796 30.9468 4.18924 33.5957Z" fill="#F9DC0B"/>
<path d="M63.3481 47.0604C59.5955 45.7359 57.3881 49.4885 57.3881 49.4885C57.3881 49.4885 56.7259 53.9033 60.4784 55.2278C64.231 56.5522 68.8666 53.4618 68.8666 53.4618C68.8666 53.4618 67.1007 48.3848 63.3481 47.0604Z" fill="#F9DC0B"/>
<path d="M50.1032 55.89C50.1032 55.89 46.3506 58.3182 47.6751 62.0707C48.9995 65.6026 54.518 67.3685 54.518 67.3685C54.518 67.3685 57.3876 62.733 55.8425 58.9804C54.518 55.0071 50.1032 55.89 50.1032 55.89Z" fill="#F9DC0B"/>
<path d="M18.7582 31.3876C18.7582 31.3876 22.9522 29.8424 22.29 25.8691C21.6278 21.8957 16.7715 19.4676 16.7715 19.4676C16.7715 19.4676 13.0189 23.6617 13.6811 27.4142C14.3434 31.3876 18.7582 31.3876 18.7582 31.3876Z" fill="#F9DC0B"/>
<path d="M58.9327 28.2978C58.9327 28.2978 54.2972 31.6089 54.2972 35.3615C54.0765 39.3348 58.4913 40.2178 58.4913 40.2178C58.4913 40.2178 62.9061 39.5556 63.1268 35.5823C63.3475 31.8297 58.9327 28.2978 58.9327 28.2978Z" fill="#F9DC0B"/>
<path d="M53.856 6.22323C50.1034 5.11953 48.1167 9.09285 48.1167 9.09285C48.1167 9.09285 47.4545 13.5076 51.4278 14.6113C55.4011 15.715 59.8159 12.404 59.8159 12.404C59.8159 12.404 57.6085 7.32693 53.856 6.22323Z" fill="#F9DC0B"/>
<path d="M124.152 55.3227H120.822L117.492 47.0481H99.6813L96.3513 55.3227H93.0212L106.795 21.6693H110.378L124.152 55.3227ZM116.533 44.4244L108.561 24.747L100.64 44.4244H116.533ZM153.287 55.3227H149.604L135.729 39.4798L131.995 43.5667V55.3227H129.119V21.6693H131.995V40.0853L148.242 21.6693H151.925L137.596 37.7139L153.287 55.3227ZM186.383 55.3227H183.053L179.723 47.0481H161.912L158.582 55.3227H155.252L169.027 21.6693H172.609L186.383 55.3227ZM178.764 44.4244L170.792 24.747L162.871 44.4244H178.764ZM188.929 61.5286V52.8504C190.51 52.8167 191.772 52.4635 192.713 51.7908C193.689 51.1182 194.579 49.7054 195.387 47.5526C196.194 45.3998 196.868 42.3053 197.405 38.2689L199.574 21.6693H218.495V52.699H221.472V61.5286H218.596V55.3227H191.855V61.5286H188.929ZM200.331 38.5212C199.356 46.0894 197.439 50.8154 194.579 52.699H215.569V24.2929H202.148L200.331 38.5212ZM248.859 55.3227H227.516V21.6693H248.859V24.2929H230.392V36.7553H248.506V39.3789H230.392V52.699H248.859V55.3227ZM287.48 55.3227H284.553V25.6047L272.293 55.3227H271.183L258.872 25.6047V55.3227H255.996V21.6693H260.284L271.738 49.4195L283.14 21.6693H287.48V55.3227ZM298.734 55.3227H295.858V21.6693H298.734V55.3227ZM308.958 55.3227H305.477L315.215 41.1953C312.558 41.0944 310.338 40.1862 308.555 38.4707C306.772 36.7553 305.881 34.4343 305.881 31.508C305.881 28.5143 306.839 26.1261 308.756 24.3434C310.708 22.5607 313.164 21.6693 316.123 21.6693H328.686V55.3227H325.76V41.3971H318.393L308.958 55.3227ZM316.375 38.7735H325.76V24.2929H316.375C314.155 24.2929 312.356 24.9656 310.976 26.3111C309.598 27.6566 308.908 29.3889 308.908 31.508C308.908 33.6271 309.598 35.3762 310.976 36.7553C312.356 38.1008 314.155 38.7735 316.375 38.7735ZM367.366 55.3227H349.101V21.6693H366.811C369.871 21.6693 372.243 22.5102 373.925 24.192C375.641 25.8402 376.498 27.8584 376.498 30.2466C376.498 32.2985 375.943 34.0139 374.833 35.393C373.723 36.7721 372.344 37.6298 370.696 37.9662C372.513 38.2352 374.043 39.1603 375.288 40.7412C376.531 42.3221 377.154 44.1554 377.154 46.2408C377.154 48.8645 376.297 51.034 374.581 52.7495C372.866 54.465 370.46 55.3227 367.366 55.3227ZM365.247 35.1407C366.458 35.1407 367.417 34.8043 368.123 34.1316C368.829 33.4589 369.182 32.5843 369.182 31.508C369.182 30.4316 368.812 29.557 368.073 28.8843C367.366 28.1779 366.424 27.8248 365.247 27.8248H356.266V35.1407H365.247ZM365.499 49.1167C366.844 49.1167 367.903 48.7803 368.678 48.1076C369.451 47.4013 369.838 46.4426 369.838 45.2317C369.838 44.1217 369.451 43.1967 368.678 42.4567C367.903 41.6831 366.844 41.2962 365.499 41.2962H356.266V49.1167H365.499ZM389.721 55.3227H382.557V21.6693H389.721V55.3227ZM403.164 55.3227H394.94L402.508 42.5071C400.456 42.0363 398.706 40.943 397.261 39.2276C395.848 37.5121 395.142 35.2753 395.142 32.5171C395.142 29.3216 396.151 26.7147 398.169 24.6965C400.22 22.6783 402.978 21.6693 406.443 21.6693H422.185V55.3227H415.021V43.3649H409.824L403.164 55.3227ZM407.503 37.058H415.021V27.9761H407.503C406.022 27.9761 404.811 28.3965 403.87 29.2375C402.928 30.0448 402.458 31.138 402.458 32.5171C402.458 33.8961 402.928 35.0061 403.87 35.8471C404.811 36.6544 406.022 37.058 407.503 37.058ZM435.989 55.3227H428.824V21.6693H444.566C448.098 21.6693 450.855 22.712 452.841 24.7975C454.859 26.8493 455.868 29.4225 455.868 32.5171C455.868 35.578 454.859 38.1512 452.841 40.2367C450.822 42.3221 448.064 43.3649 444.566 43.3649H435.989V55.3227ZM443.607 37.058C445.053 37.058 446.231 36.6544 447.139 35.8471C448.08 35.0061 448.552 33.8961 448.552 32.5171C448.552 31.138 448.08 30.0448 447.139 29.2375C446.231 28.3965 445.053 27.9761 443.607 27.9761H435.989V37.058H443.607Z" fill="white"/>
</svg>
