<svg width="118" height="40" viewBox="0 0 118 40" fill="none" xmlns="http://www.w3.org/2000/svg">
<path d="M6.67924 21.6667L13.3585 25.5V35.2222L10.8538 36.6667L9.18396 35.7056L11.6887 34.2611V30.3111L1.66981 24.5389V14.9167L3.33962 15.8778V23.5778L11.6887 28.3889V26.4611L5.00943 22.6111V14.9167L1.66981 12.9889V8.17778L3.33962 7.22222V12.0333L5.00943 12.9944V6.25556L6.67924 5.29444V9.13889L8.34906 8.17778V4.32778L10.0189 3.36667V9.13889L6.67924 11.0667V21.6667ZM28.3868 7.22222V14.9167L26.717 13.95V6.25556L25.0472 5.29444V14.9167L28.3868 16.8389V23.5778L26.717 24.5389V17.7778L23.3774 15.8556V4.32778L21.7075 3.36667V11.0667L20.0377 10.1056V2.40556L18.3679 1.44444V11.0667L21.7075 12.9889V16.8389L25.0472 18.7611V25.5L20.0377 28.3889V26.4611L23.3774 24.5389V19.7278L21.7075 18.7667V23.5778L20.0377 24.5389V13.95L18.3679 12.9889V35.2111L20.8726 36.6667L22.5425 35.7056L20.0377 34.2611V30.3111L30.0566 24.5389V8.17778L28.3868 7.22222ZM15.0283 0.483333V18.7611L13.3585 17.7778V12.9889L11.6887 13.95V18.7611L15.0283 20.6889V22.6111L10.0189 19.7278V12.9889L13.3585 11.0667V1.44444L11.6887 2.40556V10.1056L8.34906 12.0278V20.6889L15.0283 24.5389V36.2056L15.8632 36.6889L16.6981 36.2056V0.483333L15.8632 0L15.0283 0.483333Z" fill="url(#paint0_linear)"/>
<path fill-rule="evenodd" clip-rule="evenodd" d="M47.8679 4.30556L44.25 13.9333L40.6321 4.30556H37.8491L42.8585 17.6389H45.6415L50.6509 4.30556H47.8679Z" fill="white"/>
<path d="M54.5472 4.30556H51.7642V17.6389H54.5472V4.30556Z" fill="white"/>
<path fill-rule="evenodd" clip-rule="evenodd" d="M65.6792 4.30556L62.0613 10.3222L58.4434 4.30556H55.6604L60.6698 12.6389V17.6389H63.4528V12.6389L68.4623 4.30556H65.6792Z" fill="white"/>
<path fill-rule="evenodd" clip-rule="evenodd" d="M76.8113 17.6389H79.5943L74.5849 4.30556H71.8019L66.7925 17.6389H69.5755L70.6219 14.8611H75.7705L76.8113 17.6389ZM71.6627 12.0833L73.1934 8.01111L74.7241 12.0833H71.6627Z" fill="white"/>
<path fill-rule="evenodd" clip-rule="evenodd" d="M91.283 8.75C91.283 7.57126 90.8139 6.4408 89.9788 5.6073C89.1438 4.77381 88.0112 4.30556 86.8302 4.30556H80.7076V17.6389H83.4906V13.1944H85.717L88.5 17.6389H91.283L88.333 12.9278C89.1957 12.6191 89.9419 12.0522 90.4699 11.3045C90.9978 10.5568 91.2818 9.66473 91.283 8.75ZM83.4906 7.08333H86.8302C87.2731 7.08333 87.6978 7.25893 88.0109 7.57149C88.3241 7.88405 88.5 8.30797 88.5 8.75C88.5 9.19203 88.3241 9.61595 88.0109 9.92851C87.6978 10.2411 87.2731 10.4167 86.8302 10.4167H83.4906V7.08333Z" fill="white"/>
<path fill-rule="evenodd" clip-rule="evenodd" d="M47.8679 35.4167H48.9811L43.9717 22.0833H42.8585L37.8491 35.4167H38.9623L40.4261 31.5278H46.4096L47.8679 35.4167ZM40.8436 30.4167L43.4151 23.5667L45.9922 30.4167H40.8436Z" fill="white"/>
<path fill-rule="evenodd" clip-rule="evenodd" d="M70.1321 35.4167H71.2453L66.2358 22.0833H65.1226L60.1132 35.4167H61.2264L62.6903 31.5278H68.6738L70.1321 35.4167ZM63.1077 30.4167L65.6792 23.5667L68.2563 30.4167H63.1077Z" fill="white"/>
<path fill-rule="evenodd" clip-rule="evenodd" d="M76.2547 22.0833H72.9151V35.4167H76.2547C78.0262 35.4167 79.725 34.7143 80.9777 33.464C82.2303 32.2138 82.934 30.5181 82.934 28.75C82.934 26.9819 82.2303 25.2862 80.9777 24.036C79.725 22.7857 78.0262 22.0833 76.2547 22.0833ZM76.2547 34.3056H74.0283V23.1944H76.2547C77.7309 23.1944 79.1467 23.7798 80.1905 24.8216C81.2343 25.8635 81.8208 27.2766 81.8208 28.75C81.8208 30.2234 81.2343 31.6365 80.1905 32.6784C79.1467 33.7202 77.7309 34.3056 76.2547 34.3056V34.3056Z" fill="white"/>
<path fill-rule="evenodd" clip-rule="evenodd" d="M91.283 23.1944V22.0833H84.6038V35.4167H91.283V34.3056H85.717V29.3056H91.283V28.1944H85.717V23.1944H91.283Z" fill="white"/>
<path fill-rule="evenodd" clip-rule="evenodd" d="M58.7495 32.9444C57.9435 33.6432 56.9532 34.0958 55.8966 34.2483C54.84 34.4009 53.7618 34.2469 52.7904 33.8048C51.8191 33.3627 50.9956 32.6511 50.4182 31.7549C49.8407 30.8586 49.5337 29.8156 49.5337 28.75C49.5337 27.6844 49.8407 26.6413 50.4182 25.7451C50.9956 24.8489 51.8191 24.1373 52.7904 23.6952C53.7618 23.2531 54.84 23.0991 55.8966 23.2517C56.9532 23.4042 57.9435 23.8568 58.7495 24.5556L59.5566 23.75C58.5926 22.9014 57.4036 22.3484 56.1326 22.1575C54.8615 21.9666 53.5622 22.1459 52.3906 22.6737C51.219 23.2016 50.225 24.0557 49.5277 25.1335C48.8304 26.2113 48.4595 27.467 48.4595 28.75C48.4595 30.033 48.8304 31.2887 49.5277 32.3665C50.225 33.4443 51.219 34.2984 52.3906 34.8262C53.5622 35.3541 54.8615 35.5334 56.1326 35.3424C57.4036 35.1515 58.5926 34.5986 59.5566 33.75L58.7495 32.9444Z" fill="white"/>
<path fill-rule="evenodd" clip-rule="evenodd" d="M105.198 22.0833L100.189 30.6556L95.1792 22.0833H94.066V35.4167H95.1792V24.3056L99.7267 32.0833H100.651L105.198 24.3056V35.4167H106.311V22.0833H105.198Z" fill="white"/>
<path fill-rule="evenodd" clip-rule="evenodd" d="M118 22.0833H116.775L112.991 28.1278L109.206 22.0833H107.981L112.434 29.1944V35.4167H113.547V29.1944L118 22.0833Z" fill="white"/>
<defs>
<linearGradient id="paint0_linear" x1="15.8632" y1="36.6667" x2="15.8632" y2="0" gradientUnits="userSpaceOnUse">
<stop stop-color="#60C0FF"/>
<stop offset="1" stop-color="#40E000"/>
</linearGradient>
</defs>
</svg>
