<svg width="30" height="37" viewBox="0 0 30 37" fill="none" xmlns="http://www.w3.org/2000/svg">
<path d="M5.67924 21.6667L12.3585 25.5V35.2222L9.85377 36.6667L8.18396 35.7056L10.6887 34.2611V30.3111L0.669811 24.5389V14.9167L2.33962 15.8778V23.5778L10.6887 28.3889V26.4611L4.00943 22.6111V14.9167L0.669811 12.9889V8.17778L2.33962 7.22222V12.0333L4.00943 12.9944V6.25556L5.67924 5.29444V9.13889L7.34906 8.17778V4.32778L9.01887 3.36667V9.13889L5.67924 11.0667V21.6667ZM27.3868 7.22222V14.9167L25.717 13.95V6.25556L24.0472 5.29444V14.9167L27.3868 16.8389V23.5778L25.717 24.5389V17.7778L22.3774 15.8556V4.32778L20.7075 3.36667V11.0667L19.0377 10.1056V2.40556L17.3679 1.44444V11.0667L20.7075 12.9889V16.8389L24.0472 18.7611V25.5L19.0377 28.3889V26.4611L22.3774 24.5389V19.7278L20.7075 18.7667V23.5778L19.0377 24.5389V13.95L17.3679 12.9889V35.2111L19.8726 36.6667L21.5425 35.7056L19.0377 34.2611V30.3111L29.0566 24.5389V8.17778L27.3868 7.22222ZM14.0283 0.483333V18.7611L12.3585 17.7778V12.9889L10.6887 13.95V18.7611L14.0283 20.6889V22.6111L9.01887 19.7278V12.9889L12.3585 11.0667V1.44444L10.6887 2.40556V10.1056L7.34906 12.0278V20.6889L14.0283 24.5389V36.2056L14.8632 36.6889L15.6981 36.2056V0.483333L14.8632 0L14.0283 0.483333Z" fill="url(#paint0_linear)"/>
<defs>
<linearGradient id="paint0_linear" x1="14.8632" y1="36.6667" x2="14.8632" y2="0" gradientUnits="userSpaceOnUse">
<stop stop-color="#60C0FF"/>
<stop offset="1" stop-color="#40E000"/>
</linearGradient>
</defs>
</svg>
